<svg width="15" height="28" viewBox="0 0 15 28" fill="none" xmlns="http://www.w3.org/2000/svg">
<mask id="mask0_6_11" style="mask-type:alpha" maskUnits="userSpaceOnUse" x="0" y="0" width="15" height="28">
<rect width="15" height="28" fill="#FBA457"/>
</mask>
<g mask="url(#mask0_6_11)">
<path d="M13.2065 3.63397C13.9402 2.14748 16.0598 2.14748 16.7935 3.63397L18.9431 7.98949C19.2344 8.57978 19.7975 8.98891 20.4489 9.08357L25.2555 9.78201C26.896 10.0204 27.551 12.0363 26.3639 13.1934L22.8859 16.5837C22.4145 17.0432 22.1994 17.7052 22.3107 18.354L23.1317 23.1411C23.412 24.7749 21.6971 26.0209 20.2298 25.2495L15.9307 22.9893C15.348 22.683 14.652 22.683 14.0693 22.9893L9.77017 25.2495C8.30291 26.0209 6.58805 24.7749 6.86827 23.1411L7.68933 18.354C7.80061 17.7052 7.58551 17.0432 7.11414 16.5837L3.63605 13.1934C2.44902 12.0363 3.10404 10.0204 4.74448 9.78201L9.55107 9.08357C10.2025 8.98891 10.7656 8.57978 11.057 7.98949L13.2065 3.63397Z" fill="#FBA457"/>
</g>
</svg>
