<svg width="44" height="44" viewBox="0 0 44 44" fill="none" xmlns="http://www.w3.org/2000/svg">
<circle cx="22" cy="22" r="22" fill="#F2F0FE"/>
<path fill-rule="evenodd" clip-rule="evenodd" d="M17.5081 14.4655L16.3562 17H14.5C13.6716 17 13 17.6716 13 18.5V20.382L13.5029 20.6334C18.8518 23.308 25.1479 23.308 30.4971 20.6334L31 20.382V18.5C31 17.6716 30.3284 17 29.5 17H27.6438L26.4919 14.4655C26.0862 13.573 25.1963 13 24.2161 13H19.7839C18.8037 13 17.9138 13.573 17.5081 14.4655ZM19.7839 15C19.5879 15 19.4099 15.1146 19.3289 15.2931L18.553 17H25.447L24.6711 15.2931C24.5901 15.1146 24.4121 15 24.2161 15H19.7839Z" fill="#656084"/>
<path d="M31 22.6129C28.4612 23.8174 25.7405 24.485 23 24.6155V26C23 26.5523 22.5522 27 22 27C21.4478 27 21 26.5523 21 26V24.6155C18.2595 24.485 15.5391 23.8175 13 22.613V29.5C13 30.3284 13.6716 31 14.5 31H29.5C30.3284 31 31 30.3284 31 29.5V22.6129Z" fill="#656084"/>
</svg>
