<svg width="1440" height="973" viewBox="0 0 1440 973" fill="none" xmlns="http://www.w3.org/2000/svg">
<path d="M138.653 281.781C67.016 279.64 61.176 205.498 59.6186 188.957C59.2293 184.87 58.6453 180.978 57.8667 176.891C57.088 172.805 55.92 168.134 54.752 165.021C45.408 140.307 21.0747 122.598 -7.15201 122.598C-34.6 122.598 -58.1547 139.139 -68.2773 162.88C-59.128 158.21 -48.8107 155.68 -37.9093 155.68C-16.6907 155.68 2.19199 165.41 14.2613 180.978C14.2613 180.978 -21.752 163.075 -43.1653 173.389C-43.36 173.583 -17.2747 180.2 -6.17868 207.249C4.72266 233.909 -10.072 248.115 -10.072 248.115C3.35999 273.608 40.736 291.9 84.7307 291.9C106.728 291.9 122.301 289.37 138.653 281.781C138.653 281.781 135.733 282.754 138.653 281.781Z" fill="url(#paint0_linear_16_6)"/>
<path d="M-13.9653 273.608C-13.9653 273.608 2.19206 287.035 25.3574 298.127C41.5147 305.717 82.2001 321.479 57.6721 377.524C57.6721 377.524 47.3547 349.307 13.2881 331.209C-22.5306 312.138 -13.9653 273.608 -13.9653 273.608Z" fill="url(#paint1_linear_16_6)"/>
<path d="M142.741 225.541C136.317 224.179 131.645 223.985 128.141 224.763C129.115 220.093 130.477 215.033 132.619 209.973C148.971 170.47 118.797 150.815 118.797 150.815C118.797 150.815 115.877 164.048 106.339 181.367C89.5972 211.53 85.5092 251.423 132.619 269.132C127.168 235.466 142.741 225.541 142.741 225.541Z" fill="url(#paint2_linear_16_6)"/>
<path d="M72.856 306.3C72.856 306.3 89.208 332.377 78.112 374.41C78.112 374.41 101.472 381.416 106.144 355.145C106.144 355.145 117.435 372.854 133.008 362.734C149.36 352.031 131.645 322.258 131.645 322.258C131.645 322.258 160.845 307.857 147.413 291.122C147.803 290.927 117.24 309.998 72.856 306.3Z" fill="url(#paint3_linear_16_6)"/>
<path d="M99.9146 130.771L92.712 140.307C92.712 140.307 100.693 91.462 38.984 73.3642C17.376 66.9424 3.55463 56.8232 3.55463 56.8232C3.55463 56.8232 -19.6107 100.608 31.7813 117.928L36.8426 119.874C48.912 125.322 78.112 144.393 78.3066 203.162C78.3066 202.968 114.515 151.593 99.9146 130.771Z" fill="url(#paint4_linear_16_6)"/>
<path d="M126.195 132.912C126.195 132.912 62.5388 19.2654 154.032 -28.6062L161.819 -2.91898C161.819 -2.91898 196.859 -57.2124 272.973 -43.0066C335.072 -31.3306 361.936 67.3316 305.288 102.943C305.288 102.943 277.061 59.353 212.432 70.8344C141.379 83.2888 126.195 132.912 126.195 132.912Z" fill="url(#paint5_linear_16_6)"/>
<path d="M176.613 113.063C176.613 113.063 209.707 120.847 222.165 166.967C236.376 219.509 213.211 309.998 176.613 323.231C176.613 323.231 260.515 318.56 286.6 247.531L266.355 241.888C266.355 241.888 335.072 161.518 276.477 112.868C225.669 71.029 176.613 113.063 176.613 113.063Z" fill="url(#paint6_linear_16_6)"/>
<path d="M176.224 291.9C176.224 291.9 176.224 265.045 152.28 259.986C152.28 259.986 157.731 238.19 180.312 248.115C180.312 248.115 177.781 223.401 199.779 222.428C221.776 221.455 203.283 279.64 176.224 291.9Z" fill="url(#paint7_linear_16_6)"/>
<path d="M157.536 212.892C157.536 212.892 187.904 151.399 142.157 140.307C142.157 140.307 155.005 130.771 171.357 132.717C186.736 134.663 197.443 146.534 198.805 159.767C203.477 200.827 157.536 212.892 157.536 212.892Z" fill="url(#paint8_linear_16_6)"/>
<path d="M207.371 206.081C207.371 206.081 189.461 200.438 162.597 209.973C162.597 209.973 189.461 170.664 207.371 206.081Z" fill="url(#paint9_linear_16_6)"/>
<path d="M162.597 346.193C162.597 346.193 301.2 338.02 323.392 459.84C345.584 581.659 429.485 522.89 429.485 522.89C429.485 522.89 375.757 608.514 307.429 546.048C246.888 490.587 293.413 394.26 162.597 346.193Z" fill="url(#paint10_linear_16_6)"/>
<path d="M118.408 382.778C118.408 382.778 168.048 488.641 85.7041 515.885C85.7041 516.079 136.901 446.218 118.408 382.778Z" fill="url(#paint11_linear_16_6)"/>
<path d="M133.203 385.892C133.203 385.892 168.827 440.769 152.28 483.776C152.28 483.97 202.699 442.326 133.203 385.892Z" fill="url(#paint12_linear_16_6)"/>
<path d="M152.28 377.524C152.28 377.524 199.195 396.984 199.195 439.212C199.195 439.212 220.024 380.638 152.28 377.524Z" fill="url(#paint13_linear_16_6)"/>
<path d="M220.024 335.49C220.024 335.49 300.032 311.555 314.243 251.618C314.243 251.618 341.885 261.737 332.541 292.289C332.541 292.289 365.051 289.37 367.192 320.117C369.528 354.95 327.675 350.475 327.675 350.475C327.675 350.475 345.973 379.859 324.755 399.514C324.755 399.514 300.032 337.242 220.024 335.49Z" fill="url(#paint14_linear_16_6)"/>
<path d="M321.64 228.85C319.888 230.212 348.893 173.778 326.507 125.712C326.507 125.712 385.101 180.005 321.64 228.85Z" fill="url(#paint15_linear_16_6)"/>
<path d="M337.992 244.028C337.992 244.028 370.501 225.931 387.827 177.281C387.827 177.281 408.267 237.996 337.992 244.028Z" fill="url(#paint16_linear_16_6)"/>
<path d="M351.229 257.261C351.229 257.261 385.88 257.65 409.435 244.223C409.24 244.028 396.197 285.867 351.229 257.261Z" fill="url(#paint17_linear_16_6)"/>
<path d="M337.992 418.001C337.992 418.001 325.144 504.598 385.491 514.717C432.016 522.501 464.525 466.651 429.485 439.212C397.949 414.303 368.944 446.412 380.235 470.543C380.235 470.543 359.989 484.165 337.992 418.001Z" fill="url(#paint18_linear_16_6)"/>
<path d="M228.2 430.066C228.2 430.066 191.213 541.183 85.7041 543.129C85.7041 543.129 92.1281 589.054 157.536 568.816C157.536 568.816 138.069 587.692 162.597 597.033C186.931 606.568 197.443 543.907 194.523 536.318C194.523 536.318 190.435 623.498 255.259 633.034L251.56 603.065C251.56 603.065 287.573 655.218 316.579 620.774C340.133 592.946 285.432 593.141 255.259 528.923C234.04 483.97 228.2 430.066 228.2 430.066Z" fill="url(#paint19_linear_16_6)"/>
<path d="M100.888 399.514C100.888 399.514 99.1362 479.105 45.9922 477.938C-7.15185 476.77 8.22682 405.741 45.9922 418.001C45.9922 418.001 64.0962 423.644 64.6802 438.628C64.6802 438.823 83.9522 443.883 100.888 399.514Z" fill="url(#paint20_linear_16_6)"/>
<path d="M344.221 367.016C344.221 367.016 358.237 389.784 365.829 432.401C365.829 432.401 391.915 372.27 344.221 367.016Z" fill="url(#paint21_linear_16_6)"/>
<path d="M367.387 358.453C367.387 358.453 389.384 367.016 386.464 418.001C386.464 418.001 420.141 360.983 367.387 358.453Z" fill="url(#paint22_linear_16_6)"/>
<path d="M192.965 584.773C192.965 584.773 179.339 658.721 223.723 668.84C223.723 668.84 206.397 646.461 230.536 643.542C230.536 643.542 193.744 626.807 192.965 584.773Z" fill="url(#paint23_linear_16_6)"/>
<path d="M93.296 -34.2496L75.3866 -6.03258C75.3866 -6.03258 57.088 -53.1258 16.4026 -31.3306C-8.32003 -18.0978 -6.95736 6.61642 4.9173 25.298L-12.7974 29.5792C-12.7974 29.5792 -4.81603 50.2068 41.32 50.4014C38.7893 50.2068 43.8506 51.1798 41.32 50.4014C74.4133 53.1258 86.288 69.8614 86.288 69.8614C86.288 69.8614 80.6426 44.758 90.1813 21.0168C104.587 -14.0112 93.296 -34.2496 93.296 -34.2496Z" fill="url(#paint24_linear_16_6)"/>
<path d="M713.504 518.414C785.141 520.555 790.981 594.698 792.539 611.239C792.928 615.325 793.512 619.217 794.291 623.304C795.069 627.39 796.237 632.061 797.405 635.174C807.139 660.083 831.277 677.597 859.504 677.597C886.952 677.597 910.507 661.056 920.629 637.315C911.48 641.985 901.163 644.515 890.261 644.515C869.043 644.515 850.16 634.591 837.896 619.217C837.896 619.217 873.909 637.12 895.323 626.807C895.517 626.612 869.432 619.996 858.336 592.946C847.435 566.286 862.229 552.08 862.229 552.08C848.797 526.588 811.421 508.295 767.427 508.295C745.624 508.101 730.051 510.63 713.504 518.414C716.424 517.441 713.504 518.414 713.504 518.414Z" fill="url(#paint25_linear_16_6)"/>
<path d="M902.915 614.547C902.915 614.547 896.685 603.455 907.003 584.578C917.32 565.897 941.848 525.809 878.387 489.224C878.387 489.224 893.181 517.636 878.387 553.442C860.672 596.449 902.915 614.547 902.915 614.547Z" fill="url(#paint26_linear_16_6)"/>
<path d="M866.317 526.393C866.317 526.393 850.16 512.966 826.995 501.873C810.837 494.284 770.152 478.521 794.68 422.477C794.68 422.477 804.997 450.694 839.064 468.791C874.688 487.862 866.317 526.393 866.317 526.393Z" fill="url(#paint27_linear_16_6)"/>
<path d="M709.611 574.459C716.035 575.821 720.707 576.016 724.211 575.238C723.237 579.908 721.875 584.968 719.733 590.027C703.381 629.531 733.555 649.186 733.555 649.186C733.555 649.186 736.475 635.953 746.013 618.633C762.755 588.47 766.843 548.577 719.733 530.869C724.989 564.535 709.611 574.459 709.611 574.459Z" fill="url(#paint28_linear_16_6)"/>
<path d="M779.301 493.895C779.301 493.895 762.949 467.818 774.045 425.785C774.045 425.785 750.685 418.779 746.013 445.05C746.013 445.05 734.723 427.342 719.149 437.461C702.797 448.164 720.512 477.938 720.512 477.938C720.512 477.938 691.312 492.338 704.744 509.074C704.549 509.268 735.112 490.197 779.301 493.895Z" fill="url(#paint29_linear_16_6)"/>
<path d="M752.243 669.424L759.445 659.889C759.445 659.889 751.464 708.733 813.173 726.831C834.781 733.253 848.603 743.372 848.603 743.372C848.603 743.372 871.768 699.587 820.376 682.268L815.315 680.322C803.245 674.873 774.045 655.802 773.851 597.033C774.045 597.033 737.837 648.407 752.243 669.424Z" fill="url(#paint30_linear_16_6)"/>
<path d="M726.157 667.089C726.157 667.089 789.813 780.735 698.32 828.607L690.533 802.92C690.533 802.92 655.493 857.213 579.379 843.007C517.28 831.331 490.416 732.669 547.064 697.057C547.064 697.057 575.291 740.648 639.92 729.166C710.973 716.712 726.157 667.089 726.157 667.089Z" fill="url(#paint31_linear_16_6)"/>
<path d="M675.739 686.938C675.739 686.938 642.645 679.154 630.187 633.034C615.976 580.492 639.141 490.003 675.739 476.77C675.739 476.77 591.837 481.44 565.752 552.469L585.997 558.113C585.997 558.113 517.28 638.483 575.875 687.133C626.683 729.166 675.739 686.938 675.739 686.938Z" fill="url(#paint32_linear_16_6)"/>
<path d="M675.933 508.101C675.933 508.101 675.933 534.955 699.877 540.015C699.877 540.015 694.427 561.81 671.845 551.886C671.845 551.886 674.376 576.6 652.379 577.573C630.381 578.546 648.875 520.36 675.933 508.101Z" fill="url(#paint33_linear_16_6)"/>
<path d="M694.816 587.108C694.816 587.108 664.448 648.602 710.195 659.694C710.195 659.694 697.347 669.229 680.995 667.283C665.616 665.337 654.909 653.467 653.547 640.234C648.875 599.173 694.816 587.108 694.816 587.108Z" fill="url(#paint34_linear_16_6)"/>
<path d="M644.981 593.919C644.981 593.919 662.891 599.563 689.755 590.027C689.755 590.222 662.696 629.336 644.981 593.919Z" fill="url(#paint35_linear_16_6)"/>
<path d="M689.755 453.807C689.755 453.807 551.152 461.98 528.96 340.161C506.768 218.341 422.867 277.11 422.867 277.11C422.867 277.11 476.595 191.486 544.923 253.953C605.464 309.414 558.744 405.741 689.755 453.807Z" fill="url(#paint36_linear_16_6)"/>
<path d="M733.944 417.222C733.944 417.222 684.304 311.36 766.648 284.116C766.648 284.116 715.256 353.783 733.944 417.222Z" fill="url(#paint37_linear_16_6)"/>
<path d="M719.149 414.109C719.149 414.109 683.525 359.232 700.072 316.225C700.072 316.225 649.653 357.675 719.149 414.109Z" fill="url(#paint38_linear_16_6)"/>
<path d="M700.072 422.671C700.072 422.671 653.157 403.211 653.157 360.983C652.963 360.788 632.328 419.363 700.072 422.671Z" fill="url(#paint39_linear_16_6)"/>
<path d="M632.133 464.705C632.133 464.705 552.125 488.641 537.915 548.577C537.915 548.577 510.272 538.458 519.616 507.906C519.616 507.906 487.107 510.825 484.965 480.078C482.629 445.245 524.483 449.721 524.483 449.721C524.483 449.721 506.184 420.336 527.403 400.681C527.403 400.487 552.32 462.759 632.133 464.705Z" fill="url(#paint40_linear_16_6)"/>
<path d="M530.517 571.346C532.269 569.983 503.264 626.417 525.651 674.484C525.651 674.289 467.251 619.996 530.517 571.346Z" fill="url(#paint41_linear_16_6)"/>
<path d="M514.36 555.972C514.36 555.972 481.851 574.07 464.525 622.72C464.331 622.72 444.085 562.005 514.36 555.972Z" fill="url(#paint42_linear_16_6)"/>
<path d="M501.123 542.934C501.123 542.934 466.472 542.545 442.917 555.972C442.917 555.972 456.155 514.328 501.123 542.934Z" fill="url(#paint43_linear_16_6)"/>
<path d="M514.36 382C514.36 382 527.208 295.403 466.861 285.284C420.336 277.5 387.827 333.35 422.867 360.788C454.403 385.697 483.408 353.588 472.117 329.458C471.923 329.652 492.168 316.03 514.36 382Z" fill="url(#paint44_linear_16_6)"/>
<path d="M624.152 369.935C624.152 369.935 661.139 258.818 766.648 256.872C766.648 256.872 760.224 210.946 694.816 231.185C694.816 231.185 714.283 212.309 689.755 202.968C665.421 193.432 654.909 256.094 657.829 263.683C657.829 263.683 661.917 176.502 597.093 166.967L600.792 196.935C600.792 196.935 564.779 144.782 535.773 179.227C512.219 207.054 566.92 206.86 597.093 271.078C618.312 316.225 624.152 369.935 624.152 369.935Z" fill="url(#paint45_linear_16_6)"/>
<path d="M751.269 400.487C751.269 400.487 753.021 320.895 806.165 322.063C859.309 323.231 843.931 394.26 806.165 382C806.165 382 788.061 376.356 787.477 361.372C787.477 361.372 768.205 356.118 751.269 400.487Z" fill="url(#paint46_linear_16_6)"/>
<path d="M508.131 432.985C508.131 432.985 494.115 410.217 486.523 367.599C486.328 367.599 460.243 427.925 508.131 432.985Z" fill="url(#paint47_linear_16_6)"/>
<path d="M484.965 441.547C484.965 441.547 462.968 432.985 465.888 382C465.888 382 432.016 439.018 484.965 441.547Z" fill="url(#paint48_linear_16_6)"/>
<path d="M659.192 215.228C659.192 215.228 672.819 141.28 628.435 131.16C628.435 131.16 645.76 153.539 621.621 156.458C621.816 156.653 658.413 173.389 659.192 215.228Z" fill="url(#paint49_linear_16_6)"/>
<path d="M758.861 834.25L776.771 806.033C776.771 806.033 795.069 853.126 835.755 831.331C860.477 818.098 859.115 793.579 847.24 774.897L864.955 770.616C864.955 770.616 856.973 749.988 810.837 749.794C808.307 749.015 813.368 749.988 810.837 749.794C777.744 747.069 765.869 730.334 765.869 730.334C765.869 730.334 771.515 755.437 761.976 779.178C747.571 814.012 758.861 834.25 758.861 834.25Z" fill="url(#paint50_linear_16_6)"/>
<path d="M989.736 251.618C918.099 249.477 912.259 175.335 910.701 158.794C910.312 154.707 909.728 150.815 908.949 146.728C908.171 142.642 907.003 137.971 905.835 134.858C896.101 109.949 871.963 92.4349 843.736 92.4349C816.288 92.4349 792.733 108.976 782.611 132.717C791.76 128.047 802.077 125.517 812.979 125.517C834.197 125.517 853.08 135.442 865.344 150.815C865.344 150.815 829.331 132.912 807.917 143.226C807.723 143.42 833.808 150.037 844.904 177.086C855.805 203.746 841.011 217.952 841.011 217.952C854.443 243.445 891.819 261.737 935.813 261.737C957.616 261.737 973.189 259.402 989.736 251.618C989.736 251.618 986.621 252.591 989.736 251.618Z" fill="url(#paint51_linear_16_6)"/>
<path d="M800.325 155.485C800.325 155.485 806.555 166.578 796.237 185.454C785.92 204.135 761.392 244.223 824.853 280.808C824.853 280.808 810.059 252.396 824.853 216.59C842.568 173.583 800.325 155.485 800.325 155.485Z" fill="url(#paint52_linear_16_6)"/>
<path d="M836.923 243.639C836.923 243.639 853.08 257.067 876.245 268.159C892.403 275.748 933.088 291.511 908.56 347.556C908.56 347.556 898.243 319.339 864.176 301.241C828.357 281.975 836.923 243.639 836.923 243.639Z" fill="url(#paint53_linear_16_6)"/>
<path d="M993.629 195.573C987.205 194.211 982.533 194.016 979.029 194.795C980.003 190.124 981.365 185.065 983.507 180.005C999.859 140.501 969.685 120.847 969.685 120.847C969.685 120.847 966.765 134.079 957.227 151.399C940.485 181.562 936.397 221.455 983.507 239.163C978.056 205.498 993.629 195.573 993.629 195.573Z" fill="url(#paint54_linear_16_6)"/>
<path d="M923.744 276.137C923.744 276.137 940.096 302.214 929 344.247C929 344.247 952.36 351.253 957.032 324.982C957.032 324.982 968.323 342.691 983.896 332.571C1000.25 321.868 982.533 292.095 982.533 292.095C982.533 292.095 1011.73 277.694 998.301 260.959C998.691 260.764 968.128 279.835 923.744 276.137Z" fill="url(#paint55_linear_16_6)"/>
<path d="M950.997 100.608L943.795 110.144C943.795 110.144 951.776 61.299 890.067 43.2012C868.459 36.7794 854.637 26.6602 854.637 26.6602C854.637 26.6602 831.472 70.4451 882.864 87.7645L887.925 89.7105C899.995 95.1593 929.195 114.23 929.389 172.999C929.195 172.805 965.403 121.43 950.997 100.608Z" fill="url(#paint56_linear_16_6)"/>
<path d="M977.083 102.749C977.083 102.749 913.427 -10.8976 1004.92 -58.7692L1012.71 -33.082C1012.71 -33.082 1047.75 -87.3754 1123.86 -73.1696C1185.96 -61.4936 1212.82 37.1686 1156.18 72.7804C1156.18 72.7804 1127.95 29.19 1063.32 40.6714C992.267 53.3204 977.083 102.749 977.083 102.749Z" fill="url(#paint57_linear_16_6)"/>
<path d="M1027.5 82.8996C1027.5 82.8996 1060.59 90.6836 1073.05 136.804C1087.26 189.346 1064.1 279.835 1027.5 293.068C1027.5 293.068 1111.4 288.397 1137.49 217.368L1117.24 211.725C1117.24 211.725 1185.96 131.355 1127.37 82.705C1076.56 40.866 1027.5 82.8996 1027.5 82.8996Z" fill="url(#paint58_linear_16_6)"/>
<path d="M1027.31 261.737C1027.31 261.737 1027.31 234.882 1003.36 229.823C1003.36 229.823 1008.81 208.027 1031.39 217.952C1031.39 217.952 1028.86 193.238 1050.86 192.265C1072.86 191.486 1054.17 249.672 1027.31 261.737Z" fill="url(#paint59_linear_16_6)"/>
<path d="M1008.42 182.924C1008.42 182.924 1038.79 121.43 993.045 110.338C993.045 110.338 1005.89 100.803 1022.25 102.749C1037.62 104.695 1048.33 116.565 1049.69 129.798C1054.37 170.859 1008.42 182.924 1008.42 182.924Z" fill="url(#paint60_linear_16_6)"/>
<path d="M1058.26 175.918C1058.26 175.918 1040.35 170.275 1013.49 179.81C1013.49 179.81 1040.35 140.501 1058.26 175.918Z" fill="url(#paint61_linear_16_6)"/>
<path d="M1013.49 316.225C1013.49 316.225 1152.09 308.052 1174.28 429.871C1196.47 551.691 1280.37 492.922 1280.37 492.922C1280.37 492.922 1226.65 578.546 1158.32 516.079C1097.78 460.424 1144.3 364.291 1013.49 316.225Z" fill="url(#paint62_linear_16_6)"/>
<path d="M969.296 352.615C969.296 352.615 1018.94 458.478 936.592 485.722C936.592 485.916 987.789 416.249 969.296 352.615Z" fill="url(#paint63_linear_16_6)"/>
<path d="M984.091 355.923C984.091 355.923 1019.71 410.801 1003.17 453.807C1003.17 453.807 1053.59 412.163 984.091 355.923Z" fill="url(#paint64_linear_16_6)"/>
<path d="M1003.17 347.361C1003.17 347.361 1050.08 366.821 1050.08 409.049C1050.08 409.049 1070.91 350.475 1003.17 347.361Z" fill="url(#paint65_linear_16_6)"/>
<path d="M1070.91 305.327C1070.91 305.327 1150.92 281.392 1165.13 221.455C1165.13 221.455 1192.77 231.574 1183.43 262.126C1183.43 262.126 1215.94 259.207 1218.08 289.954C1220.42 324.787 1178.56 320.312 1178.56 320.312C1178.56 320.312 1196.86 349.696 1175.64 369.351C1175.64 369.351 1150.92 307.273 1070.91 305.327Z" fill="url(#paint66_linear_16_6)"/>
<path d="M1172.53 198.687C1170.78 200.049 1199.78 143.615 1177.39 95.5486C1177.59 95.5486 1235.99 150.037 1172.53 198.687Z" fill="url(#paint67_linear_16_6)"/>
<path d="M1188.88 214.06C1188.88 214.06 1221.39 195.962 1238.71 147.312C1238.71 147.118 1259.15 207.833 1188.88 214.06Z" fill="url(#paint68_linear_16_6)"/>
<path d="M1202.12 227.098C1202.12 227.098 1236.77 227.487 1260.32 214.06C1260.32 214.06 1247.09 255.704 1202.12 227.098Z" fill="url(#paint69_linear_16_6)"/>
<path d="M1188.88 388.032C1188.88 388.032 1176.03 474.629 1236.38 484.749C1282.9 492.533 1315.41 436.682 1280.37 409.244C1248.84 384.335 1219.83 416.444 1231.12 440.574C1231.12 440.38 1210.88 454.002 1188.88 388.032Z" fill="url(#paint70_linear_16_6)"/>
<path d="M1079.09 400.098C1079.09 400.098 1042.1 511.214 936.592 513.16C936.592 513.16 943.016 559.086 1008.42 538.847C1008.42 538.847 988.957 557.724 1013.49 567.064C1037.82 576.6 1048.33 513.939 1045.41 506.349C1045.41 506.349 1041.32 593.53 1106.15 603.065L1102.45 573.097C1102.45 573.097 1138.46 625.25 1167.47 590.806C1191.02 562.978 1136.32 563.172 1106.15 498.954C1084.93 453.807 1079.09 400.098 1079.09 400.098Z" fill="url(#paint71_linear_16_6)"/>
<path d="M951.971 369.351C951.971 369.351 950.219 448.942 897.075 447.775C843.931 446.607 859.309 375.578 897.075 387.838C897.075 387.838 915.179 393.481 915.763 408.465C915.568 408.66 935.035 413.914 951.971 369.351Z" fill="url(#paint72_linear_16_6)"/>
<path d="M1195.11 336.853C1195.11 336.853 1209.13 359.621 1216.72 402.238C1216.72 402.433 1243 342.107 1195.11 336.853Z" fill="url(#paint73_linear_16_6)"/>
<path d="M1218.27 328.485C1218.27 328.485 1240.27 337.047 1237.35 388.032C1237.35 388.032 1271.22 331.015 1218.27 328.485Z" fill="url(#paint74_linear_16_6)"/>
<path d="M1044.05 554.61C1044.05 554.61 1030.42 628.558 1074.81 638.677C1074.81 638.677 1057.48 616.298 1081.62 613.379C1081.42 613.379 1044.83 596.644 1044.05 554.61Z" fill="url(#paint75_linear_16_6)"/>
<path d="M944.184 -64.4126L926.275 -36.1956C926.275 -36.1956 907.976 -83.2888 867.291 -61.4936C842.568 -48.2608 843.931 -23.7412 855.805 -5.0596L838.091 -0.778404C838.091 -0.778404 846.072 19.8492 892.208 20.0438C889.677 19.8492 894.739 20.8222 892.208 20.0438C925.301 22.7682 937.176 39.5038 937.176 39.5038C937.176 39.5038 931.531 14.4004 941.069 -9.34081C955.475 -44.1742 944.184 -64.4126 944.184 -64.4126Z" fill="url(#paint76_linear_16_6)"/>
<path d="M1577.05 637.12C1577.05 637.12 1640.7 750.767 1549.21 798.638L1541.42 772.951C1541.42 772.951 1506.38 827.245 1430.27 813.039C1368.17 801.363 1341.3 702.701 1397.95 667.089C1397.95 667.089 1426.18 710.679 1490.81 699.198C1561.86 686.549 1577.05 637.12 1577.05 637.12Z" fill="url(#paint77_linear_16_6)"/>
<path d="M1526.63 656.97C1526.63 656.97 1493.53 649.186 1481.07 603.065C1466.86 550.523 1490.03 460.034 1526.63 446.802C1526.63 446.802 1442.73 451.472 1416.64 522.501L1436.89 528.144C1436.89 528.144 1368.17 608.514 1426.76 657.164C1477.57 699.003 1526.63 656.97 1526.63 656.97Z" fill="url(#paint78_linear_16_6)"/>
<path d="M1540.64 423.644C1540.64 423.644 1402.04 431.817 1379.85 309.998C1357.66 188.178 1273.75 246.947 1273.75 246.947C1273.75 246.947 1327.48 161.323 1395.81 223.79C1456.35 279.446 1409.63 375.578 1540.64 423.644Z" fill="url(#paint79_linear_16_6)"/>
<path d="M1483.02 434.542C1483.02 434.542 1403.01 458.478 1388.8 518.414C1388.8 518.414 1361.16 508.295 1370.5 477.743C1370.5 477.743 1337.99 480.662 1335.85 449.915C1333.52 415.082 1375.37 419.558 1375.37 419.558C1375.37 419.558 1357.07 390.173 1378.29 370.518C1378.49 370.518 1403.21 432.596 1483.02 434.542Z" fill="url(#paint80_linear_16_6)"/>
<path d="M1381.41 541.183C1383.16 539.82 1354.15 596.254 1376.54 644.321C1376.54 644.126 1318.14 589.833 1381.41 541.183Z" fill="url(#paint81_linear_16_6)"/>
<path d="M1365.25 525.809C1365.25 525.809 1332.74 543.907 1315.41 592.557C1315.22 592.752 1294.97 531.842 1365.25 525.809Z" fill="url(#paint82_linear_16_6)"/>
<path d="M1352.01 512.771C1352.01 512.771 1317.36 512.382 1293.81 525.809C1293.81 525.809 1307.04 484.165 1352.01 512.771Z" fill="url(#paint83_linear_16_6)"/>
<path d="M1365.25 351.837C1365.25 351.837 1378.1 265.24 1317.75 255.121C1271.22 247.337 1238.71 303.187 1273.75 330.625C1305.29 355.534 1334.3 323.425 1323.01 299.295C1323.01 299.489 1343.06 285.867 1365.25 351.837Z" fill="url(#paint84_linear_16_6)"/>
<path d="M1475.04 339.772C1475.04 339.772 1512.03 228.655 1617.54 226.709C1617.54 226.709 1611.11 180.783 1545.7 201.022C1545.7 201.022 1565.17 182.146 1540.64 172.805C1516.31 163.269 1505.8 225.931 1508.72 233.52C1508.72 233.52 1512.81 146.339 1447.98 136.804L1451.68 166.772C1451.68 166.772 1415.67 114.619 1386.66 149.064C1363.11 176.891 1417.81 176.697 1447.98 240.915C1469.2 286.062 1475.04 339.772 1475.04 339.772Z" fill="url(#paint85_linear_16_6)"/>
<path d="M1359.02 403.017C1359.02 403.017 1345 380.248 1337.41 337.631C1337.41 337.436 1311.13 397.762 1359.02 403.017Z" fill="url(#paint86_linear_16_6)"/>
<path d="M1335.85 411.384C1335.85 411.384 1313.86 402.822 1316.78 351.837C1316.78 351.837 1282.9 408.855 1335.85 411.384Z" fill="url(#paint87_linear_16_6)"/>
<path d="M483.408 1048.5C483.408 1048.5 467.251 1035.08 444.085 1023.99C427.928 1016.4 387.243 1000.63 411.771 944.588C411.771 944.588 422.088 972.805 456.155 990.903C491.973 1010.17 483.408 1048.5 483.408 1048.5Z" fill="url(#paint88_linear_16_6)"/>
<path d="M396.587 1016.01C396.587 1016.01 380.235 989.93 391.331 947.897C391.331 947.897 367.971 940.891 363.299 967.162C363.299 967.162 352.008 949.453 336.435 959.573C320.083 970.276 337.797 1000.05 337.797 1000.05C337.797 1000.05 308.597 1014.45 322.029 1031.19C321.64 1031.38 352.203 1012.31 396.587 1016.01Z" fill="url(#paint89_linear_16_6)"/>
<path d="M306.845 975.919C306.845 975.919 168.243 984.092 146.051 862.273C123.859 740.453 39.9573 799.222 39.9573 799.222C39.9573 799.222 93.6853 713.598 162.013 776.065C222.555 831.526 176.029 927.853 306.845 975.919Z" fill="url(#paint90_linear_16_6)"/>
<path d="M351.035 939.334C351.035 939.334 301.395 833.472 383.739 806.228C383.739 806.228 332.541 875.895 351.035 939.334Z" fill="url(#paint91_linear_16_6)"/>
<path d="M336.24 936.221C336.24 936.221 300.616 881.343 317.163 838.337C317.163 838.337 266.744 879.787 336.24 936.221Z" fill="url(#paint92_linear_16_6)"/>
<path d="M317.163 944.783C317.163 944.783 270.248 925.323 270.248 883.095C270.248 883.095 249.419 941.669 317.163 944.783Z" fill="url(#paint93_linear_16_6)"/>
<path d="M249.419 986.817C249.419 986.817 169.411 1010.75 155.2 1070.69C155.2 1070.69 127.557 1060.57 136.901 1030.02C136.901 1030.02 104.392 1032.94 102.251 1002.19C99.9148 967.357 141.768 971.832 141.768 971.832C141.768 971.832 123.469 942.448 144.688 922.793C144.688 922.599 169.411 984.871 249.419 986.817Z" fill="url(#paint94_linear_16_6)"/>
<path d="M131.451 904.112C131.451 904.112 144.299 817.515 83.9521 807.395C37.4267 799.611 4.9174 855.462 39.9574 882.9C71.4934 907.809 100.499 875.7 89.2081 851.57C89.2081 851.764 109.453 838.142 131.451 904.112Z" fill="url(#paint95_linear_16_6)"/>
<path d="M241.243 892.046C241.243 892.046 278.229 780.93 383.739 778.984C383.739 778.984 377.315 733.058 311.907 753.297C311.907 753.297 331.373 734.42 306.845 725.08C282.512 715.544 272 778.205 274.92 785.795C274.92 785.795 279.008 698.614 214.184 689.079L217.883 719.047C217.883 719.047 181.869 666.894 152.864 701.338C129.309 729.166 184.011 728.972 214.184 793.19C235.403 838.337 241.243 892.046 241.243 892.046Z" fill="url(#paint96_linear_16_6)"/>
<path d="M368.36 922.599C368.36 922.599 370.112 843.007 423.256 844.175C476.4 845.342 461.021 916.371 423.256 904.112C423.256 904.112 405.152 898.468 404.568 883.484C404.763 883.484 385.296 878.23 368.36 922.599Z" fill="url(#paint97_linear_16_6)"/>
<path d="M125.221 955.291C125.221 955.291 111.205 932.523 103.613 889.906C103.613 889.711 77.3333 950.037 125.221 955.291Z" fill="url(#paint98_linear_16_6)"/>
<path d="M276.283 737.534C276.283 737.534 289.909 663.586 245.525 653.467C245.525 653.467 262.851 675.846 238.712 678.765C238.907 678.765 275.504 695.5 276.283 737.534Z" fill="url(#paint99_linear_16_6)"/>
<path d="M1327.68 1020.87C1327.68 1020.87 1311.52 1007.44 1288.35 996.352C1272.2 988.763 1231.51 973 1256.04 916.955C1256.04 916.955 1266.36 945.172 1300.42 963.27C1336.24 982.341 1327.68 1020.87 1327.68 1020.87Z" fill="url(#paint100_linear_16_6)"/>
<path d="M1240.86 988.373C1240.86 988.373 1224.5 962.297 1235.6 920.263C1235.6 920.263 1212.24 913.258 1207.57 939.529C1207.57 939.529 1196.28 921.82 1180.7 931.939C1164.35 942.642 1182.07 972.416 1182.07 972.416C1182.07 972.416 1152.87 986.817 1166.3 1003.55C1165.91 1003.75 1196.67 984.676 1240.86 988.373Z" fill="url(#paint101_linear_16_6)"/>
<path d="M1137.1 1181.42C1137.1 1181.42 1104.01 1173.63 1091.55 1127.51C1077.34 1074.97 1100.5 984.481 1137.1 971.249C1137.1 971.249 1053.2 975.919 1027.11 1046.95L1047.36 1052.59C1047.36 1052.59 978.64 1132.96 1037.23 1181.61C1088.04 1223.64 1137.1 1181.42 1137.1 1181.42Z" fill="url(#paint102_linear_16_6)"/>
<path d="M1151.31 948.286C1151.31 948.286 1012.71 956.459 990.515 834.639C968.323 712.82 884.421 771.589 884.421 771.589C884.421 771.589 938.149 685.965 1006.48 748.432C1066.82 803.893 1020.3 900.22 1151.31 948.286Z" fill="url(#paint103_linear_16_6)"/>
<path d="M1195.3 911.701C1195.3 911.701 1145.66 805.839 1228.01 778.595C1228.01 778.595 1176.81 848.261 1195.3 911.701Z" fill="url(#paint104_linear_16_6)"/>
<path d="M1180.51 908.587C1180.51 908.587 1144.89 853.71 1161.43 810.704C1161.43 810.704 1111.01 852.153 1180.51 908.587Z" fill="url(#paint105_linear_16_6)"/>
<path d="M1161.43 917.15C1161.43 917.15 1114.52 897.69 1114.52 855.462C1114.52 855.267 1093.69 913.842 1161.43 917.15Z" fill="url(#paint106_linear_16_6)"/>
<path d="M1093.69 959.183C1093.69 959.183 1013.68 983.119 999.469 1043.06C999.469 1043.06 971.827 1032.94 981.171 1002.38C981.171 1002.38 948.661 1005.3 946.52 974.557C944.184 939.723 986.037 944.199 986.037 944.199C986.037 944.199 967.739 914.815 988.957 895.16C988.957 894.965 1013.68 957.237 1093.69 959.183Z" fill="url(#paint107_linear_16_6)"/>
<path d="M975.72 876.478C975.72 876.478 988.568 789.882 928.221 779.762C881.696 771.978 849.187 827.828 884.227 855.267C915.763 880.176 944.768 848.067 933.477 823.936C933.477 824.131 953.723 810.509 975.72 876.478Z" fill="url(#paint108_linear_16_6)"/>
<path d="M1085.51 864.413C1085.51 864.413 1122.5 753.297 1228.01 751.351C1228.01 751.351 1221.58 705.425 1156.18 725.663C1156.18 725.663 1175.64 706.787 1151.11 697.446C1126.78 687.911 1116.27 750.572 1119.19 758.162C1119.19 758.162 1123.28 670.981 1058.45 661.445L1062.15 691.414C1062.15 691.414 1026.14 639.261 997.133 673.705C973.579 701.533 1028.28 701.338 1058.45 765.556C1079.67 810.704 1085.51 864.413 1085.51 864.413Z" fill="url(#paint109_linear_16_6)"/>
<path d="M1212.82 894.965C1212.82 894.965 1214.58 815.374 1267.72 816.542C1320.86 817.709 1305.49 888.738 1267.72 876.478C1267.72 876.478 1249.62 870.835 1249.03 855.851C1249.03 855.851 1229.76 850.597 1212.82 894.965Z" fill="url(#paint110_linear_16_6)"/>
<path d="M969.491 927.464C969.491 927.464 955.475 904.695 947.883 862.078C947.883 862.078 921.797 922.404 969.491 927.464Z" fill="url(#paint111_linear_16_6)"/>
<path d="M1120.75 709.706C1120.75 709.706 1134.37 635.758 1089.99 625.639C1089.99 625.639 1107.31 648.018 1083.18 650.937C1083.18 651.132 1119.97 667.867 1120.75 709.706Z" fill="url(#paint112_linear_16_6)"/>
<path d="M344.416 722.744C344.416 722.744 431.237 723.717 429.485 806.228C429.485 806.228 509.688 762.443 487.885 684.797L471.923 711.458C471.923 711.458 479.709 661.64 439.024 642.375C398.339 623.109 389.968 673.511 413.133 685.965C413.133 685.965 359.211 660.472 344.416 722.744Z" fill="url(#paint113_linear_16_6)"/>
<path d="M383.739 667.478C383.739 667.478 346.947 696.474 312.88 677.403C312.88 677.403 364.272 659.499 383.739 667.478Z" fill="url(#paint114_linear_16_6)"/>
<path d="M336.24 651.521C336.24 651.521 368.944 638.288 383.739 655.218L336.24 651.521Z" fill="url(#paint115_linear_16_6)"/>
<path d="M388.995 642.569C388.995 642.569 381.403 627.196 360.184 627.196C338.771 627.196 356.875 626.612 356.875 626.612L388.995 642.569Z" fill="url(#paint116_linear_16_6)"/>
<path d="M501.123 827.828C501.123 827.828 523.899 909.755 457.712 944.783C457.712 944.783 503.848 973.584 520.784 936.221C520.784 936.221 526.819 1003.75 605.075 1003.55C605.075 1003.75 586.776 877.257 501.123 827.828Z" fill="url(#paint117_linear_16_6)"/>
<path d="M590.669 889.711C590.669 889.711 580.157 981.368 709.611 985.649C839.064 989.93 831.277 896.328 904.472 899.83C904.472 899.83 888.704 867.527 817.067 868.305C745.429 869.084 709.611 939.334 709.611 939.334C709.611 939.334 738.616 941.864 786.309 908.587C786.309 908.587 709.805 1034.49 590.669 889.711Z" fill="url(#paint118_linear_16_6)"/>
<path d="M892.597 725.663C892.597 725.663 897.269 696.279 940.68 672.343C984.091 648.407 958.005 609.487 931.141 620.969C931.141 620.969 926.469 583.022 964.04 583.022C1001.61 583.022 995.771 627.39 995.771 627.39C995.771 627.39 1007.26 615.325 1026.53 621.552C1026.53 621.552 1019.33 650.937 984.869 654.44L997.328 661.445C997.328 661.445 985.259 683.046 946.52 690.635C907.781 698.03 895.128 719.631 892.597 725.663Z" fill="url(#paint119_linear_16_6)"/>
<path d="M415.08 623.109C426.154 623.109 435.131 614.135 435.131 603.065C435.131 591.996 426.154 583.022 415.08 583.022C404.006 583.022 395.029 591.996 395.029 603.065C395.029 614.135 404.006 623.109 415.08 623.109Z" fill="url(#paint120_linear_16_6)"/>
<path d="M615.003 885.041C612.667 885.041 610.72 883.095 610.72 880.76C610.72 878.424 612.667 876.478 615.003 876.478C617.339 876.478 619.285 878.424 619.285 880.76C619.285 883.095 617.339 885.041 615.003 885.041Z" fill="url(#paint121_linear_16_6)"/>
<path d="M625.515 896.328C625.515 889.517 630.965 884.068 637.779 884.068C644.592 884.068 650.043 889.517 650.043 896.328C650.043 903.139 644.592 908.587 637.779 908.587C630.965 908.587 625.515 903.139 625.515 896.328Z" fill="url(#paint122_linear_16_6)"/>
<path d="M672.819 927.074C682.602 927.074 690.533 919.146 690.533 909.366C690.533 899.586 682.602 891.657 672.819 891.657C663.035 891.657 655.104 899.586 655.104 909.366C655.104 919.146 663.035 927.074 672.819 927.074Z" fill="url(#paint123_linear_16_6)"/>
<path d="M1257.4 794.357C1253.9 796.109 1279.79 740.258 1236.38 709.706L1278.62 719.631C1278.62 719.631 1276.09 660.083 1228.2 638.677C1228.2 638.677 1251.37 626.612 1271.61 647.24C1271.61 647.24 1240.27 550.913 1285.05 540.988C1285.05 540.988 1289.33 626.223 1312.69 644.126L1328.65 619.023C1328.65 619.217 1389.19 730.723 1257.4 794.357Z" fill="url(#paint124_linear_16_6)"/>
<path d="M1248.45 688.106C1248.45 688.106 1189.85 627.78 1157.93 651.91C1126 676.04 1248.45 688.106 1248.45 688.106Z" fill="url(#paint125_linear_16_6)"/>
<path d="M1245.33 611.433C1245.33 611.433 1216.52 563.562 1204.26 571.735C1192.19 579.908 1223.14 608.514 1245.33 611.433Z" fill="url(#paint126_linear_16_6)"/>
<path d="M1301.98 906.447C1301.98 906.447 1390.17 1058.04 1500.15 952.178C1610.14 846.51 1408.46 845.148 1408.46 845.148C1408.46 845.148 1352.79 844.369 1354.15 794.357C1354.15 794.357 1307.63 833.083 1353.37 876.478C1399.31 919.874 1361.35 948.675 1301.98 906.447Z" fill="url(#paint127_linear_16_6)"/>
<path d="M1209.51 62.272C1209.51 62.272 1232.68 88.3484 1223.92 120.652C1223.92 120.652 1316.58 115.592 1285.43 192.459C1285.43 192.459 1363.89 75.5048 1209.51 62.272Z" fill="url(#paint128_linear_16_6)"/>
<path d="M1312.69 178.643C1313.86 179.81 1389.78 160.35 1376.54 120.652C1363.3 80.9536 1324.56 152.956 1312.69 182.924" fill="url(#paint129_linear_16_6)"/>
<path d="M1341.11 78.813C1341.11 85.624 1335.66 91.0728 1328.85 91.0728C1322.03 91.0728 1316.58 85.624 1316.58 78.813C1316.58 72.002 1322.03 66.5532 1328.85 66.5532C1335.66 66.7478 1341.11 72.1966 1341.11 78.813Z" fill="url(#paint130_linear_16_6)"/>
<path d="M1302.95 55.6556C1302.95 61.1044 1298.48 65.5802 1293.03 65.5802C1287.58 65.5802 1283.1 61.1044 1283.1 55.6556C1283.1 50.2068 1287.58 45.731 1293.03 45.731C1298.48 45.9256 1302.95 50.2068 1302.95 55.6556Z" fill="url(#paint131_linear_16_6)"/>
<path d="M1260.32 49.623C1260.32 54.8772 1256.23 58.9638 1250.98 58.9638C1245.72 58.9638 1241.63 54.8772 1241.63 49.623C1241.63 44.3688 1245.72 40.2822 1250.98 40.2822C1256.04 40.2822 1260.32 44.5634 1260.32 49.623Z" fill="url(#paint132_linear_16_6)"/>
<path d="M1283.1 18.8762C1280.96 20.433 1370.11 37.3632 1384.33 79.0076C1398.54 120.652 1489.06 119.29 1478.54 39.893C1468.03 -39.5038 1357.66 -34.2496 1283.1 18.8762Z" fill="url(#paint133_linear_16_6)"/>
<path d="M364.272 -20.433C364.272 -20.433 410.019 79.3968 364.272 125.712C364.272 125.712 455.96 134.079 422.672 225.541C422.672 225.541 574.123 35.8064 364.272 -20.433Z" fill="url(#paint134_linear_16_6)"/>
<path d="M501.123 55.6556C501.123 55.6556 517.085 158.599 461.8 209.779C461.8 209.973 595.731 154.318 501.123 55.6556Z" fill="url(#paint135_linear_16_6)"/>
<path d="M572.371 128.631C572.371 133.106 568.672 136.609 564.389 136.609C559.912 136.609 556.408 132.912 556.408 128.631C556.408 124.155 560.107 120.652 564.389 120.652C568.672 120.652 572.371 124.349 572.371 128.631Z" fill="url(#paint136_linear_16_6)"/>
<path d="M563.027 96.7162C574.315 96.7162 583.467 87.5681 583.467 76.2832C583.467 64.9984 574.315 55.8502 563.027 55.8502C551.738 55.8502 542.587 64.9984 542.587 76.2832C542.587 87.5681 551.738 96.7162 563.027 96.7162Z" fill="url(#paint137_linear_16_6)"/>
<path d="M536.163 35.6118C551.644 35.6118 564.195 23.0657 564.195 7.58936C564.195 -7.88699 551.644 -20.433 536.163 -20.433C520.681 -20.433 508.131 -7.88699 508.131 7.58936C508.131 23.0657 520.681 35.6118 536.163 35.6118Z" fill="url(#paint138_linear_16_6)"/>
<path d="M595.536 -3.8147e-05C595.536 -3.8147e-05 623.179 14.2058 608.773 55.6556L632.328 46.8986C632.328 46.8986 676.517 109.754 682.552 150.426C688.587 191.097 758.083 203.746 758.083 203.746C758.083 203.746 784.557 121.82 743.093 70.2506C743.093 70.2506 767.232 80.9536 796.237 70.2506C795.848 70.2506 729.077 -65.5802 595.536 -3.8147e-05Z" fill="url(#paint139_linear_16_6)"/>
<path d="M-74.1173 555.972C-75.0906 552.469 -43.7493 491.365 56.3094 516.079L30.6134 544.296C30.6134 544.296 63.7067 624.471 152.28 622.72C152.28 622.72 -32.848 711.847 -74.1173 555.972Z" fill="url(#paint140_linear_16_6)"/>
<path d="M-11.0453 727.22C6.049 727.22 19.9067 713.367 19.9067 696.279C19.9067 679.19 6.049 665.337 -11.0453 665.337C-28.1396 665.337 -41.9973 679.19 -41.9973 696.279C-41.9973 713.367 -28.1396 727.22 -11.0453 727.22Z" fill="url(#paint141_linear_16_6)"/>
<path d="M59.0347 717.49C70.0009 717.49 78.8907 708.603 78.8907 697.641C78.8907 686.679 70.0009 677.792 59.0347 677.792C48.0685 677.792 39.1787 686.679 39.1787 697.641C39.1787 708.603 48.0685 717.49 59.0347 717.49Z" fill="url(#paint142_linear_16_6)"/>
<path d="M113.736 690.83C121.907 690.83 128.531 684.208 128.531 676.04C128.531 667.872 121.907 661.251 113.736 661.251C105.565 661.251 98.9414 667.872 98.9414 676.04C98.9414 684.208 105.565 690.83 113.736 690.83Z" fill="url(#paint143_linear_16_6)"/>
<path d="M167.075 655.024C167.075 659.694 163.181 663.586 158.509 663.586C153.837 663.586 149.944 659.694 149.944 655.024C149.944 650.353 153.837 646.461 158.509 646.461C163.181 646.461 167.075 650.353 167.075 655.024Z" fill="url(#paint144_linear_16_6)"/>
<path d="M30.2241 753.297C30.2241 753.297 -45.6959 849.04 -22.9199 915.788L-74.1172 800.39C-74.1172 800.195 -16.6905 758.162 30.2241 753.297Z" fill="url(#paint145_linear_16_6)"/>
<path d="M-34.5999 1003.75C-34.5999 1003.75 -41.4132 911.117 30.2241 927.269C102.056 943.421 66.4321 1046.56 60.2028 1048.7" fill="url(#paint146_linear_16_6)"/>
<defs>
<linearGradient id="paint0_linear_16_6" x1="-118.476" y1="113.332" x2="1551.49" y2="1185.47" gradientUnits="userSpaceOnUse">
<stop offset="0.00337891" stop-color="#F0F0F0"/>
<stop offset="0.4924" stop-color="white"/>
<stop offset="0.9998" stop-color="#E3E3E2"/>
</linearGradient>
<linearGradient id="paint1_linear_16_6" x1="-173.402" y1="198.885" x2="1496.56" y2="1271.02" gradientUnits="userSpaceOnUse">
<stop offset="0.00337891" stop-color="#F0F0F0"/>
<stop offset="0.4924" stop-color="white"/>
<stop offset="0.9998" stop-color="#E3E3E2"/>
</linearGradient>
<linearGradient id="paint2_linear_16_6" x1="-91.6878" y1="71.605" x2="1578.28" y2="1143.74" gradientUnits="userSpaceOnUse">
<stop offset="0.00337891" stop-color="#F0F0F0"/>
<stop offset="0.4924" stop-color="white"/>
<stop offset="0.9998" stop-color="#E3E3E2"/>
</linearGradient>
<linearGradient id="paint3_linear_16_6" x1="-150.638" y1="163.428" x2="1519.33" y2="1235.56" gradientUnits="userSpaceOnUse">
<stop offset="0.00337891" stop-color="#F0F0F0"/>
<stop offset="0.4924" stop-color="white"/>
<stop offset="0.9998" stop-color="#E3E3E2"/>
</linearGradient>
<linearGradient id="paint4_linear_16_6" x1="-76.947" y1="48.6451" x2="1593.02" y2="1120.79" gradientUnits="userSpaceOnUse">
<stop offset="0.00337891" stop-color="#F0F0F0"/>
<stop offset="0.4924" stop-color="white"/>
<stop offset="0.9998" stop-color="#E3E3E2"/>
</linearGradient>
<linearGradient id="paint5_linear_16_6" x1="6.72513" y1="-81.6822" x2="1676.69" y2="990.455" gradientUnits="userSpaceOnUse">
<stop offset="0.00337891" stop-color="#F0F0F0"/>
<stop offset="0.4924" stop-color="white"/>
<stop offset="0.9998" stop-color="#E3E3E2"/>
</linearGradient>
<linearGradient id="paint6_linear_16_6" x1="-65.3076" y1="30.5166" x2="1604.66" y2="1102.66" gradientUnits="userSpaceOnUse">
<stop offset="0.00337891" stop-color="#F0F0F0"/>
<stop offset="0.4924" stop-color="white"/>
<stop offset="0.9998" stop-color="#E3E3E2"/>
</linearGradient>
<linearGradient id="paint7_linear_16_6" x1="-93.9998" y1="75.2068" x2="1575.97" y2="1147.35" gradientUnits="userSpaceOnUse">
<stop offset="0.00337891" stop-color="#F0F0F0"/>
<stop offset="0.4924" stop-color="white"/>
<stop offset="0.9998" stop-color="#E3E3E2"/>
</linearGradient>
<linearGradient id="paint8_linear_16_6" x1="-62.153" y1="25.602" x2="1607.82" y2="1097.74" gradientUnits="userSpaceOnUse">
<stop offset="0.00337891" stop-color="#F0F0F0"/>
<stop offset="0.4924" stop-color="white"/>
<stop offset="0.9998" stop-color="#E3E3E2"/>
</linearGradient>
<linearGradient id="paint9_linear_16_6" x1="-71.67" y1="40.4247" x2="1598.3" y2="1112.57" gradientUnits="userSpaceOnUse">
<stop offset="0.00337891" stop-color="#F0F0F0"/>
<stop offset="0.4924" stop-color="white"/>
<stop offset="0.9998" stop-color="#E3E3E2"/>
</linearGradient>
<linearGradient id="paint10_linear_16_6" x1="-157.999" y1="174.893" x2="1511.97" y2="1247.03" gradientUnits="userSpaceOnUse">
<stop offset="0.00337891" stop-color="#F0F0F0"/>
<stop offset="0.4924" stop-color="white"/>
<stop offset="0.9998" stop-color="#E3E3E2"/>
</linearGradient>
<linearGradient id="paint11_linear_16_6" x1="-206.972" y1="251.173" x2="1463" y2="1323.31" gradientUnits="userSpaceOnUse">
<stop offset="0.00337891" stop-color="#F0F0F0"/>
<stop offset="0.4924" stop-color="white"/>
<stop offset="0.9998" stop-color="#E3E3E2"/>
</linearGradient>
<linearGradient id="paint12_linear_16_6" x1="-188.504" y1="222.407" x2="1481.46" y2="1294.54" gradientUnits="userSpaceOnUse">
<stop offset="0.00337891" stop-color="#F0F0F0"/>
<stop offset="0.4924" stop-color="white"/>
<stop offset="0.9998" stop-color="#E3E3E2"/>
</linearGradient>
<linearGradient id="paint13_linear_16_6" x1="-163.997" y1="184.236" x2="1505.97" y2="1256.37" gradientUnits="userSpaceOnUse">
<stop offset="0.00337891" stop-color="#F0F0F0"/>
<stop offset="0.4924" stop-color="white"/>
<stop offset="0.9998" stop-color="#E3E3E2"/>
</linearGradient>
<linearGradient id="paint14_linear_16_6" x1="-87.7493" y1="65.4714" x2="1582.21" y2="1137.61" gradientUnits="userSpaceOnUse">
<stop offset="0.00337891" stop-color="#F0F0F0"/>
<stop offset="0.4924" stop-color="white"/>
<stop offset="0.9998" stop-color="#E3E3E2"/>
</linearGradient>
<linearGradient id="paint15_linear_16_6" x1="-18.4395" y1="-42.4864" x2="1651.53" y2="1029.65" gradientUnits="userSpaceOnUse">
<stop offset="0.00337891" stop-color="#F0F0F0"/>
<stop offset="0.4924" stop-color="white"/>
<stop offset="0.9998" stop-color="#E3E3E2"/>
</linearGradient>
<linearGradient id="paint16_linear_16_6" x1="-22.3128" y1="-36.4546" x2="1647.65" y2="1035.68" gradientUnits="userSpaceOnUse">
<stop offset="0.00337891" stop-color="#F0F0F0"/>
<stop offset="0.4924" stop-color="white"/>
<stop offset="0.9998" stop-color="#E3E3E2"/>
</linearGradient>
<linearGradient id="paint17_linear_16_6" x1="-35.4342" y1="-16.0185" x2="1634.53" y2="1056.12" gradientUnits="userSpaceOnUse">
<stop offset="0.00337891" stop-color="#F0F0F0"/>
<stop offset="0.4924" stop-color="white"/>
<stop offset="0.9998" stop-color="#E3E3E2"/>
</linearGradient>
<linearGradient id="paint18_linear_16_6" x1="-131.537" y1="133.675" x2="1538.43" y2="1205.81" gradientUnits="userSpaceOnUse">
<stop offset="0.00337891" stop-color="#F0F0F0"/>
<stop offset="0.4924" stop-color="white"/>
<stop offset="0.9998" stop-color="#E3E3E2"/>
</linearGradient>
<linearGradient id="paint19_linear_16_6" x1="-211.005" y1="257.456" x2="1458.96" y2="1329.59" gradientUnits="userSpaceOnUse">
<stop offset="0.00337891" stop-color="#F0F0F0"/>
<stop offset="0.4924" stop-color="white"/>
<stop offset="0.9998" stop-color="#E3E3E2"/>
</linearGradient>
<linearGradient id="paint20_linear_16_6" x1="-212.231" y1="259.365" x2="1457.74" y2="1331.5" gradientUnits="userSpaceOnUse">
<stop offset="0.00337891" stop-color="#F0F0F0"/>
<stop offset="0.4924" stop-color="white"/>
<stop offset="0.9998" stop-color="#E3E3E2"/>
</linearGradient>
<linearGradient id="paint21_linear_16_6" x1="-109.407" y1="99.2034" x2="1560.57" y2="1171.34" gradientUnits="userSpaceOnUse">
<stop offset="0.00337891" stop-color="#F0F0F0"/>
<stop offset="0.4924" stop-color="white"/>
<stop offset="0.9998" stop-color="#E3E3E2"/>
</linearGradient>
<linearGradient id="paint22_linear_16_6" x1="-97.3167" y1="80.3753" x2="1572.65" y2="1152.52" gradientUnits="userSpaceOnUse">
<stop offset="0.00337891" stop-color="#F0F0F0"/>
<stop offset="0.4924" stop-color="white"/>
<stop offset="0.9998" stop-color="#E3E3E2"/>
</linearGradient>
<linearGradient id="paint23_linear_16_6" x1="-257.195" y1="329.399" x2="1412.77" y2="1401.54" gradientUnits="userSpaceOnUse">
<stop offset="0.00337891" stop-color="#F0F0F0"/>
<stop offset="0.4924" stop-color="white"/>
<stop offset="0.9998" stop-color="#E3E3E2"/>
</linearGradient>
<linearGradient id="paint24_linear_16_6" x1="-20.483" y1="-39.3033" x2="1649.48" y2="1032.83" gradientUnits="userSpaceOnUse">
<stop offset="0.00337891" stop-color="#F0F0F0"/>
<stop offset="0.4924" stop-color="white"/>
<stop offset="0.9998" stop-color="#E3E3E2"/>
</linearGradient>
<linearGradient id="paint25_linear_16_6" x1="-61.4526" y1="24.5113" x2="1608.51" y2="1096.65" gradientUnits="userSpaceOnUse">
<stop offset="0.00337891" stop-color="#F0F0F0"/>
<stop offset="0.4924" stop-color="white"/>
<stop offset="0.9998" stop-color="#E3E3E2"/>
</linearGradient>
<linearGradient id="paint26_linear_16_6" x1="-23.5975" y1="-34.4497" x2="1646.37" y2="1037.69" gradientUnits="userSpaceOnUse">
<stop offset="0.00337891" stop-color="#F0F0F0"/>
<stop offset="0.4924" stop-color="white"/>
<stop offset="0.9998" stop-color="#E3E3E2"/>
</linearGradient>
<linearGradient id="paint27_linear_16_6" x1="-6.52627" y1="-61.0414" x2="1663.44" y2="1011.1" gradientUnits="userSpaceOnUse">
<stop offset="0.00337891" stop-color="#F0F0F0"/>
<stop offset="0.4924" stop-color="white"/>
<stop offset="0.9998" stop-color="#E3E3E2"/>
</linearGradient>
<linearGradient id="paint28_linear_16_6" x1="-88.2445" y1="66.2348" x2="1581.72" y2="1138.37" gradientUnits="userSpaceOnUse">
<stop offset="0.00337891" stop-color="#F0F0F0"/>
<stop offset="0.4924" stop-color="white"/>
<stop offset="0.9998" stop-color="#E3E3E2"/>
</linearGradient>
<linearGradient id="paint29_linear_16_6" x1="-29.2912" y1="-25.5849" x2="1640.68" y2="1046.55" gradientUnits="userSpaceOnUse">
<stop offset="0.00337891" stop-color="#F0F0F0"/>
<stop offset="0.4924" stop-color="white"/>
<stop offset="0.9998" stop-color="#E3E3E2"/>
</linearGradient>
<linearGradient id="paint30_linear_16_6" x1="-102.982" y1="89.1981" x2="1566.99" y2="1161.34" gradientUnits="userSpaceOnUse">
<stop offset="0.00337891" stop-color="#F0F0F0"/>
<stop offset="0.4924" stop-color="white"/>
<stop offset="0.9998" stop-color="#E3E3E2"/>
</linearGradient>
<linearGradient id="paint31_linear_16_6" x1="-186.655" y1="219.525" x2="1483.31" y2="1291.66" gradientUnits="userSpaceOnUse">
<stop offset="0.00337891" stop-color="#F0F0F0"/>
<stop offset="0.4924" stop-color="white"/>
<stop offset="0.9998" stop-color="#E3E3E2"/>
</linearGradient>
<linearGradient id="paint32_linear_16_6" x1="-114.621" y1="107.327" x2="1555.35" y2="1179.46" gradientUnits="userSpaceOnUse">
<stop offset="0.00337891" stop-color="#F0F0F0"/>
<stop offset="0.4924" stop-color="white"/>
<stop offset="0.9998" stop-color="#E3E3E2"/>
</linearGradient>
<linearGradient id="paint33_linear_16_6" x1="-85.9299" y1="62.6358" x2="1584.04" y2="1134.77" gradientUnits="userSpaceOnUse">
<stop offset="0.00337891" stop-color="#F0F0F0"/>
<stop offset="0.4924" stop-color="white"/>
<stop offset="0.9998" stop-color="#E3E3E2"/>
</linearGradient>
<linearGradient id="paint34_linear_16_6" x1="-117.773" y1="112.244" x2="1552.19" y2="1184.38" gradientUnits="userSpaceOnUse">
<stop offset="0.00337891" stop-color="#F0F0F0"/>
<stop offset="0.4924" stop-color="white"/>
<stop offset="0.9998" stop-color="#E3E3E2"/>
</linearGradient>
<linearGradient id="paint35_linear_16_6" x1="-108.258" y1="97.4206" x2="1561.71" y2="1169.56" gradientUnits="userSpaceOnUse">
<stop offset="0.00337891" stop-color="#F0F0F0"/>
<stop offset="0.4924" stop-color="white"/>
<stop offset="0.9998" stop-color="#E3E3E2"/>
</linearGradient>
<linearGradient id="paint36_linear_16_6" x1="-21.9293" y1="-37.05" x2="1648.04" y2="1035.09" gradientUnits="userSpaceOnUse">
<stop offset="0.00337891" stop-color="#F0F0F0"/>
<stop offset="0.4924" stop-color="white"/>
<stop offset="0.9998" stop-color="#E3E3E2"/>
</linearGradient>
<linearGradient id="paint37_linear_16_6" x1="27.0433" y1="-113.33" x2="1697.01" y2="958.809" gradientUnits="userSpaceOnUse">
<stop offset="0.00337891" stop-color="#F0F0F0"/>
<stop offset="0.4924" stop-color="white"/>
<stop offset="0.9998" stop-color="#E3E3E2"/>
</linearGradient>
<linearGradient id="paint38_linear_16_6" x1="8.57432" y1="-84.5649" x2="1678.54" y2="987.57" gradientUnits="userSpaceOnUse">
<stop offset="0.00337891" stop-color="#F0F0F0"/>
<stop offset="0.4924" stop-color="white"/>
<stop offset="0.9998" stop-color="#E3E3E2"/>
</linearGradient>
<linearGradient id="paint39_linear_16_6" x1="-15.9312" y1="-46.3917" x2="1654.04" y2="1025.75" gradientUnits="userSpaceOnUse">
<stop offset="0.00337891" stop-color="#F0F0F0"/>
<stop offset="0.4924" stop-color="white"/>
<stop offset="0.9998" stop-color="#E3E3E2"/>
</linearGradient>
<linearGradient id="paint40_linear_16_6" x1="-92.1794" y1="72.3719" x2="1577.78" y2="1144.51" gradientUnits="userSpaceOnUse">
<stop offset="0.00337891" stop-color="#F0F0F0"/>
<stop offset="0.4924" stop-color="white"/>
<stop offset="0.9998" stop-color="#E3E3E2"/>
</linearGradient>
<linearGradient id="paint41_linear_16_6" x1="-161.489" y1="180.33" x2="1508.47" y2="1252.47" gradientUnits="userSpaceOnUse">
<stop offset="0.00337891" stop-color="#F0F0F0"/>
<stop offset="0.4924" stop-color="white"/>
<stop offset="0.9998" stop-color="#E3E3E2"/>
</linearGradient>
<linearGradient id="paint42_linear_16_6" x1="-157.618" y1="174.297" x2="1512.35" y2="1246.44" gradientUnits="userSpaceOnUse">
<stop offset="0.00337891" stop-color="#F0F0F0"/>
<stop offset="0.4924" stop-color="white"/>
<stop offset="0.9998" stop-color="#E3E3E2"/>
</linearGradient>
<linearGradient id="paint43_linear_16_6" x1="-144.495" y1="153.861" x2="1525.47" y2="1226" gradientUnits="userSpaceOnUse">
<stop offset="0.00337891" stop-color="#F0F0F0"/>
<stop offset="0.4924" stop-color="white"/>
<stop offset="0.9998" stop-color="#E3E3E2"/>
</linearGradient>
<linearGradient id="paint44_linear_16_6" x1="-48.3927" y1="4.16755" x2="1621.58" y2="1076.31" gradientUnits="userSpaceOnUse">
<stop offset="0.00337891" stop-color="#F0F0F0"/>
<stop offset="0.4924" stop-color="white"/>
<stop offset="0.9998" stop-color="#E3E3E2"/>
</linearGradient>
<linearGradient id="paint45_linear_16_6" x1="31.0772" y1="-119.613" x2="1701.04" y2="952.525" gradientUnits="userSpaceOnUse">
<stop offset="0.00337891" stop-color="#F0F0F0"/>
<stop offset="0.4924" stop-color="white"/>
<stop offset="0.9998" stop-color="#E3E3E2"/>
</linearGradient>
<linearGradient id="paint46_linear_16_6" x1="32.3002" y1="-121.524" x2="1702.27" y2="950.615" gradientUnits="userSpaceOnUse">
<stop offset="0.00337891" stop-color="#F0F0F0"/>
<stop offset="0.4924" stop-color="white"/>
<stop offset="0.9998" stop-color="#E3E3E2"/>
</linearGradient>
<linearGradient id="paint47_linear_16_6" x1="-70.5207" y1="38.6397" x2="1599.45" y2="1110.78" gradientUnits="userSpaceOnUse">
<stop offset="0.00337891" stop-color="#F0F0F0"/>
<stop offset="0.4924" stop-color="white"/>
<stop offset="0.9998" stop-color="#E3E3E2"/>
</linearGradient>
<linearGradient id="paint48_linear_16_6" x1="-82.6093" y1="57.4698" x2="1587.35" y2="1129.6" gradientUnits="userSpaceOnUse">
<stop offset="0.00337891" stop-color="#F0F0F0"/>
<stop offset="0.4924" stop-color="white"/>
<stop offset="0.9998" stop-color="#E3E3E2"/>
</linearGradient>
<linearGradient id="paint49_linear_16_6" x1="77.2668" y1="-191.556" x2="1747.23" y2="880.578" gradientUnits="userSpaceOnUse">
<stop offset="0.00337891" stop-color="#F0F0F0"/>
<stop offset="0.4924" stop-color="white"/>
<stop offset="0.9998" stop-color="#E3E3E2"/>
</linearGradient>
<linearGradient id="paint50_linear_16_6" x1="-159.446" y1="177.146" x2="1510.52" y2="1249.28" gradientUnits="userSpaceOnUse">
<stop offset="0.00337891" stop-color="#F0F0F0"/>
<stop offset="0.4924" stop-color="white"/>
<stop offset="0.9998" stop-color="#E3E3E2"/>
</linearGradient>
<linearGradient id="paint51_linear_16_6" x1="143.453" y1="-294.655" x2="1813.42" y2="777.484" gradientUnits="userSpaceOnUse">
<stop offset="0.00337891" stop-color="#F0F0F0"/>
<stop offset="0.4924" stop-color="white"/>
<stop offset="0.9998" stop-color="#E3E3E2"/>
</linearGradient>
<linearGradient id="paint52_linear_16_6" x1="105.6" y1="-235.694" x2="1775.57" y2="836.447" gradientUnits="userSpaceOnUse">
<stop offset="0.00337891" stop-color="#F0F0F0"/>
<stop offset="0.4924" stop-color="white"/>
<stop offset="0.9998" stop-color="#E3E3E2"/>
</linearGradient>
<linearGradient id="paint53_linear_16_6" x1="88.5282" y1="-209.101" x2="1758.5" y2="863.037" gradientUnits="userSpaceOnUse">
<stop offset="0.00337891" stop-color="#F0F0F0"/>
<stop offset="0.4924" stop-color="white"/>
<stop offset="0.9998" stop-color="#E3E3E2"/>
</linearGradient>
<linearGradient id="paint54_linear_16_6" x1="170.24" y1="-336.383" x2="1840.21" y2="735.755" gradientUnits="userSpaceOnUse">
<stop offset="0.00337891" stop-color="#F0F0F0"/>
<stop offset="0.4924" stop-color="white"/>
<stop offset="0.9998" stop-color="#E3E3E2"/>
</linearGradient>
<linearGradient id="paint55_linear_16_6" x1="111.296" y1="-244.557" x2="1781.26" y2="827.579" gradientUnits="userSpaceOnUse">
<stop offset="0.00337891" stop-color="#F0F0F0"/>
<stop offset="0.4924" stop-color="white"/>
<stop offset="0.9998" stop-color="#E3E3E2"/>
</linearGradient>
<linearGradient id="paint56_linear_16_6" x1="184.984" y1="-359.341" x2="1854.95" y2="712.798" gradientUnits="userSpaceOnUse">
<stop offset="0.00337891" stop-color="#F0F0F0"/>
<stop offset="0.4924" stop-color="white"/>
<stop offset="0.9998" stop-color="#E3E3E2"/>
</linearGradient>
<linearGradient id="paint57_linear_16_6" x1="268.656" y1="-489.668" x2="1938.62" y2="582.47" gradientUnits="userSpaceOnUse">
<stop offset="0.00337891" stop-color="#F0F0F0"/>
<stop offset="0.4924" stop-color="white"/>
<stop offset="0.9998" stop-color="#E3E3E2"/>
</linearGradient>
<linearGradient id="paint58_linear_16_6" x1="196.622" y1="-377.47" x2="1866.59" y2="694.67" gradientUnits="userSpaceOnUse">
<stop offset="0.00337891" stop-color="#F0F0F0"/>
<stop offset="0.4924" stop-color="white"/>
<stop offset="0.9998" stop-color="#E3E3E2"/>
</linearGradient>
<linearGradient id="paint59_linear_16_6" x1="167.932" y1="-332.779" x2="1837.9" y2="739.357" gradientUnits="userSpaceOnUse">
<stop offset="0.00337891" stop-color="#F0F0F0"/>
<stop offset="0.4924" stop-color="white"/>
<stop offset="0.9998" stop-color="#E3E3E2"/>
</linearGradient>
<linearGradient id="paint60_linear_16_6" x1="199.778" y1="-382.384" x2="1869.75" y2="689.756" gradientUnits="userSpaceOnUse">
<stop offset="0.00337891" stop-color="#F0F0F0"/>
<stop offset="0.4924" stop-color="white"/>
<stop offset="0.9998" stop-color="#E3E3E2"/>
</linearGradient>
<linearGradient id="paint61_linear_16_6" x1="190.264" y1="-367.56" x2="1860.23" y2="704.578" gradientUnits="userSpaceOnUse">
<stop offset="0.00337891" stop-color="#F0F0F0"/>
<stop offset="0.4924" stop-color="white"/>
<stop offset="0.9998" stop-color="#E3E3E2"/>
</linearGradient>
<linearGradient id="paint62_linear_16_6" x1="103.933" y1="-233.093" x2="1773.9" y2="839.044" gradientUnits="userSpaceOnUse">
<stop offset="0.00337891" stop-color="#F0F0F0"/>
<stop offset="0.4924" stop-color="white"/>
<stop offset="0.9998" stop-color="#E3E3E2"/>
</linearGradient>
<linearGradient id="paint63_linear_16_6" x1="54.96" y1="-156.812" x2="1724.93" y2="915.325" gradientUnits="userSpaceOnUse">
<stop offset="0.00337891" stop-color="#F0F0F0"/>
<stop offset="0.4924" stop-color="white"/>
<stop offset="0.9998" stop-color="#E3E3E2"/>
</linearGradient>
<linearGradient id="paint64_linear_16_6" x1="73.4283" y1="-185.578" x2="1743.39" y2="886.558" gradientUnits="userSpaceOnUse">
<stop offset="0.00337891" stop-color="#F0F0F0"/>
<stop offset="0.4924" stop-color="white"/>
<stop offset="0.9998" stop-color="#E3E3E2"/>
</linearGradient>
<linearGradient id="paint65_linear_16_6" x1="97.9342" y1="-223.75" x2="1767.9" y2="848.39" gradientUnits="userSpaceOnUse">
<stop offset="0.00337891" stop-color="#F0F0F0"/>
<stop offset="0.4924" stop-color="white"/>
<stop offset="0.9998" stop-color="#E3E3E2"/>
</linearGradient>
<linearGradient id="paint66_linear_16_6" x1="174.182" y1="-342.515" x2="1844.15" y2="729.62" gradientUnits="userSpaceOnUse">
<stop offset="0.00337891" stop-color="#F0F0F0"/>
<stop offset="0.4924" stop-color="white"/>
<stop offset="0.9998" stop-color="#E3E3E2"/>
</linearGradient>
<linearGradient id="paint67_linear_16_6" x1="243.492" y1="-450.472" x2="1913.46" y2="621.668" gradientUnits="userSpaceOnUse">
<stop offset="0.00337891" stop-color="#F0F0F0"/>
<stop offset="0.4924" stop-color="white"/>
<stop offset="0.9998" stop-color="#E3E3E2"/>
</linearGradient>
<linearGradient id="paint68_linear_16_6" x1="239.619" y1="-444.44" x2="1909.59" y2="627.697" gradientUnits="userSpaceOnUse">
<stop offset="0.00337891" stop-color="#F0F0F0"/>
<stop offset="0.4924" stop-color="white"/>
<stop offset="0.9998" stop-color="#E3E3E2"/>
</linearGradient>
<linearGradient id="paint69_linear_16_6" x1="226.502" y1="-424.002" x2="1896.47" y2="648.133" gradientUnits="userSpaceOnUse">
<stop offset="0.00337891" stop-color="#F0F0F0"/>
<stop offset="0.4924" stop-color="white"/>
<stop offset="0.9998" stop-color="#E3E3E2"/>
</linearGradient>
<linearGradient id="paint70_linear_16_6" x1="130.393" y1="-274.311" x2="1800.36" y2="797.829" gradientUnits="userSpaceOnUse">
<stop offset="0.00337891" stop-color="#F0F0F0"/>
<stop offset="0.4924" stop-color="white"/>
<stop offset="0.9998" stop-color="#E3E3E2"/>
</linearGradient>
<linearGradient id="paint71_linear_16_6" x1="50.9248" y1="-150.53" x2="1720.89" y2="921.608" gradientUnits="userSpaceOnUse">
<stop offset="0.00337891" stop-color="#F0F0F0"/>
<stop offset="0.4924" stop-color="white"/>
<stop offset="0.9998" stop-color="#E3E3E2"/>
</linearGradient>
<linearGradient id="paint72_linear_16_6" x1="49.7015" y1="-148.62" x2="1719.67" y2="923.518" gradientUnits="userSpaceOnUse">
<stop offset="0.00337891" stop-color="#F0F0F0"/>
<stop offset="0.4924" stop-color="white"/>
<stop offset="0.9998" stop-color="#E3E3E2"/>
</linearGradient>
<linearGradient id="paint73_linear_16_6" x1="152.526" y1="-308.781" x2="1822.49" y2="763.356" gradientUnits="userSpaceOnUse">
<stop offset="0.00337891" stop-color="#F0F0F0"/>
<stop offset="0.4924" stop-color="white"/>
<stop offset="0.9998" stop-color="#E3E3E2"/>
</linearGradient>
<linearGradient id="paint74_linear_16_6" x1="164.612" y1="-327.614" x2="1834.58" y2="744.522" gradientUnits="userSpaceOnUse">
<stop offset="0.00337891" stop-color="#F0F0F0"/>
<stop offset="0.4924" stop-color="white"/>
<stop offset="0.9998" stop-color="#E3E3E2"/>
</linearGradient>
<linearGradient id="paint75_linear_16_6" x1="4.73326" y1="-78.5872" x2="1674.7" y2="993.554" gradientUnits="userSpaceOnUse">
<stop offset="0.00337891" stop-color="#F0F0F0"/>
<stop offset="0.4924" stop-color="white"/>
<stop offset="0.9998" stop-color="#E3E3E2"/>
</linearGradient>
<linearGradient id="paint76_linear_16_6" x1="241.448" y1="-447.289" x2="1911.41" y2="624.848" gradientUnits="userSpaceOnUse">
<stop offset="0.00337891" stop-color="#F0F0F0"/>
<stop offset="0.4924" stop-color="white"/>
<stop offset="0.9998" stop-color="#E3E3E2"/>
</linearGradient>
<linearGradient id="paint77_linear_16_6" x1="75.2785" y1="-188.46" x2="1745.25" y2="883.678" gradientUnits="userSpaceOnUse">
<stop offset="0.00337891" stop-color="#F0F0F0"/>
<stop offset="0.4924" stop-color="white"/>
<stop offset="0.9998" stop-color="#E3E3E2"/>
</linearGradient>
<linearGradient id="paint78_linear_16_6" x1="147.311" y1="-300.659" x2="1817.28" y2="771.479" gradientUnits="userSpaceOnUse">
<stop offset="0.00337891" stop-color="#F0F0F0"/>
<stop offset="0.4924" stop-color="white"/>
<stop offset="0.9998" stop-color="#E3E3E2"/>
</linearGradient>
<linearGradient id="paint79_linear_16_6" x1="240.002" y1="-445.036" x2="1909.97" y2="627.102" gradientUnits="userSpaceOnUse">
<stop offset="0.00337891" stop-color="#F0F0F0"/>
<stop offset="0.4924" stop-color="white"/>
<stop offset="0.9998" stop-color="#E3E3E2"/>
</linearGradient>
<linearGradient id="paint80_linear_16_6" x1="169.76" y1="-335.61" x2="1839.72" y2="736.522" gradientUnits="userSpaceOnUse">
<stop offset="0.00337891" stop-color="#F0F0F0"/>
<stop offset="0.4924" stop-color="white"/>
<stop offset="0.9998" stop-color="#E3E3E2"/>
</linearGradient>
<linearGradient id="paint81_linear_16_6" x1="100.443" y1="-227.656" x2="1770.41" y2="844.479" gradientUnits="userSpaceOnUse">
<stop offset="0.00337891" stop-color="#F0F0F0"/>
<stop offset="0.4924" stop-color="white"/>
<stop offset="0.9998" stop-color="#E3E3E2"/>
</linearGradient>
<linearGradient id="paint82_linear_16_6" x1="104.314" y1="-233.69" x2="1774.28" y2="838.448" gradientUnits="userSpaceOnUse">
<stop offset="0.00337891" stop-color="#F0F0F0"/>
<stop offset="0.4924" stop-color="white"/>
<stop offset="0.9998" stop-color="#E3E3E2"/>
</linearGradient>
<linearGradient id="paint83_linear_16_6" x1="117.436" y1="-254.127" x2="1787.4" y2="818.008" gradientUnits="userSpaceOnUse">
<stop offset="0.00337891" stop-color="#F0F0F0"/>
<stop offset="0.4924" stop-color="white"/>
<stop offset="0.9998" stop-color="#E3E3E2"/>
</linearGradient>
<linearGradient id="paint84_linear_16_6" x1="213.539" y1="-403.818" x2="1883.51" y2="668.323" gradientUnits="userSpaceOnUse">
<stop offset="0.00337891" stop-color="#F0F0F0"/>
<stop offset="0.4924" stop-color="white"/>
<stop offset="0.9998" stop-color="#E3E3E2"/>
</linearGradient>
<linearGradient id="paint85_linear_16_6" x1="293.007" y1="-527.599" x2="1962.97" y2="544.539" gradientUnits="userSpaceOnUse">
<stop offset="0.00337891" stop-color="#F0F0F0"/>
<stop offset="0.4924" stop-color="white"/>
<stop offset="0.9998" stop-color="#E3E3E2"/>
</linearGradient>
<linearGradient id="paint86_linear_16_6" x1="191.412" y1="-369.346" x2="1861.38" y2="702.791" gradientUnits="userSpaceOnUse">
<stop offset="0.00337891" stop-color="#F0F0F0"/>
<stop offset="0.4924" stop-color="white"/>
<stop offset="0.9998" stop-color="#E3E3E2"/>
</linearGradient>
<linearGradient id="paint87_linear_16_6" x1="179.324" y1="-350.515" x2="1849.29" y2="721.618" gradientUnits="userSpaceOnUse">
<stop offset="0.00337891" stop-color="#F0F0F0"/>
<stop offset="0.4924" stop-color="white"/>
<stop offset="0.9998" stop-color="#E3E3E2"/>
</linearGradient>
<linearGradient id="paint88_linear_16_6" x1="-355.651" y1="482.753" x2="1314.32" y2="1554.89" gradientUnits="userSpaceOnUse">
<stop offset="0.00337891" stop-color="#F0F0F0"/>
<stop offset="0.4924" stop-color="white"/>
<stop offset="0.9998" stop-color="#E3E3E2"/>
</linearGradient>
<linearGradient id="paint89_linear_16_6" x1="-378.411" y1="518.213" x2="1291.55" y2="1590.35" gradientUnits="userSpaceOnUse">
<stop offset="0.00337891" stop-color="#F0F0F0"/>
<stop offset="0.4924" stop-color="white"/>
<stop offset="0.9998" stop-color="#E3E3E2"/>
</linearGradient>
<linearGradient id="paint90_linear_16_6" x1="-371.051" y1="506.746" x2="1298.92" y2="1578.88" gradientUnits="userSpaceOnUse">
<stop offset="0.00337891" stop-color="#F0F0F0"/>
<stop offset="0.4924" stop-color="white"/>
<stop offset="0.9998" stop-color="#E3E3E2"/>
</linearGradient>
<linearGradient id="paint91_linear_16_6" x1="-322.079" y1="430.466" x2="1347.89" y2="1502.6" gradientUnits="userSpaceOnUse">
<stop offset="0.00337891" stop-color="#F0F0F0"/>
<stop offset="0.4924" stop-color="white"/>
<stop offset="0.9998" stop-color="#E3E3E2"/>
</linearGradient>
<linearGradient id="paint92_linear_16_6" x1="-340.546" y1="459.232" x2="1329.42" y2="1531.37" gradientUnits="userSpaceOnUse">
<stop offset="0.00337891" stop-color="#F0F0F0"/>
<stop offset="0.4924" stop-color="white"/>
<stop offset="0.9998" stop-color="#E3E3E2"/>
</linearGradient>
<linearGradient id="paint93_linear_16_6" x1="-365.052" y1="497.404" x2="1304.92" y2="1569.54" gradientUnits="userSpaceOnUse">
<stop offset="0.00337891" stop-color="#F0F0F0"/>
<stop offset="0.4924" stop-color="white"/>
<stop offset="0.9998" stop-color="#E3E3E2"/>
</linearGradient>
<linearGradient id="paint94_linear_16_6" x1="-441.302" y1="616.167" x2="1228.66" y2="1688.3" gradientUnits="userSpaceOnUse">
<stop offset="0.00337891" stop-color="#F0F0F0"/>
<stop offset="0.4924" stop-color="white"/>
<stop offset="0.9998" stop-color="#E3E3E2"/>
</linearGradient>
<linearGradient id="paint95_linear_16_6" x1="-397.514" y1="547.964" x2="1272.45" y2="1620.1" gradientUnits="userSpaceOnUse">
<stop offset="0.00337891" stop-color="#F0F0F0"/>
<stop offset="0.4924" stop-color="white"/>
<stop offset="0.9998" stop-color="#E3E3E2"/>
</linearGradient>
<linearGradient id="paint96_linear_16_6" x1="-318.047" y1="424.182" x2="1351.92" y2="1496.32" gradientUnits="userSpaceOnUse">
<stop offset="0.00337891" stop-color="#F0F0F0"/>
<stop offset="0.4924" stop-color="white"/>
<stop offset="0.9998" stop-color="#E3E3E2"/>
</linearGradient>
<linearGradient id="paint97_linear_16_6" x1="-316.818" y1="422.274" x2="1353.15" y2="1494.41" gradientUnits="userSpaceOnUse">
<stop offset="0.00337891" stop-color="#F0F0F0"/>
<stop offset="0.4924" stop-color="white"/>
<stop offset="0.9998" stop-color="#E3E3E2"/>
</linearGradient>
<linearGradient id="paint98_linear_16_6" x1="-419.647" y1="582.433" x2="1250.32" y2="1654.57" gradientUnits="userSpaceOnUse">
<stop offset="0.00337891" stop-color="#F0F0F0"/>
<stop offset="0.4924" stop-color="white"/>
<stop offset="0.9998" stop-color="#E3E3E2"/>
</linearGradient>
<linearGradient id="paint99_linear_16_6" x1="-271.858" y1="352.238" x2="1398.11" y2="1424.38" gradientUnits="userSpaceOnUse">
<stop offset="0.00337891" stop-color="#F0F0F0"/>
<stop offset="0.4924" stop-color="white"/>
<stop offset="0.9998" stop-color="#E3E3E2"/>
</linearGradient>
<linearGradient id="paint100_linear_16_6" x1="-96.7447" y1="79.4925" x2="1573.22" y2="1151.63" gradientUnits="userSpaceOnUse">
<stop offset="0.00337891" stop-color="#F0F0F0"/>
<stop offset="0.4924" stop-color="white"/>
<stop offset="0.9998" stop-color="#E3E3E2"/>
</linearGradient>
<linearGradient id="paint101_linear_16_6" x1="-119.512" y1="114.946" x2="1550.45" y2="1187.08" gradientUnits="userSpaceOnUse">
<stop offset="0.00337891" stop-color="#F0F0F0"/>
<stop offset="0.4924" stop-color="white"/>
<stop offset="0.9998" stop-color="#E3E3E2"/>
</linearGradient>
<linearGradient id="paint102_linear_16_6" x1="-204.844" y1="247.857" x2="1465.12" y2="1320" gradientUnits="userSpaceOnUse">
<stop offset="0.00337891" stop-color="#F0F0F0"/>
<stop offset="0.4924" stop-color="white"/>
<stop offset="0.9998" stop-color="#E3E3E2"/>
</linearGradient>
<linearGradient id="paint103_linear_16_6" x1="-112.151" y1="103.481" x2="1557.82" y2="1175.62" gradientUnits="userSpaceOnUse">
<stop offset="0.00337891" stop-color="#F0F0F0"/>
<stop offset="0.4924" stop-color="white"/>
<stop offset="0.9998" stop-color="#E3E3E2"/>
</linearGradient>
<linearGradient id="paint104_linear_16_6" x1="-63.1787" y1="27.1996" x2="1606.79" y2="1099.34" gradientUnits="userSpaceOnUse">
<stop offset="0.00337891" stop-color="#F0F0F0"/>
<stop offset="0.4924" stop-color="white"/>
<stop offset="0.9998" stop-color="#E3E3E2"/>
</linearGradient>
<linearGradient id="paint105_linear_16_6" x1="-81.6451" y1="55.9687" x2="1588.32" y2="1128.11" gradientUnits="userSpaceOnUse">
<stop offset="0.00337891" stop-color="#F0F0F0"/>
<stop offset="0.4924" stop-color="white"/>
<stop offset="0.9998" stop-color="#E3E3E2"/>
</linearGradient>
<linearGradient id="paint106_linear_16_6" x1="-106.151" y1="94.1409" x2="1563.82" y2="1166.28" gradientUnits="userSpaceOnUse">
<stop offset="0.00337891" stop-color="#F0F0F0"/>
<stop offset="0.4924" stop-color="white"/>
<stop offset="0.9998" stop-color="#E3E3E2"/>
</linearGradient>
<linearGradient id="paint107_linear_16_6" x1="-182.398" y1="212.904" x2="1487.56" y2="1285.04" gradientUnits="userSpaceOnUse">
<stop offset="0.00337891" stop-color="#F0F0F0"/>
<stop offset="0.4924" stop-color="white"/>
<stop offset="0.9998" stop-color="#E3E3E2"/>
</linearGradient>
<linearGradient id="paint108_linear_16_6" x1="-138.615" y1="144.699" x2="1531.36" y2="1216.84" gradientUnits="userSpaceOnUse">
<stop offset="0.00337891" stop-color="#F0F0F0"/>
<stop offset="0.4924" stop-color="white"/>
<stop offset="0.9998" stop-color="#E3E3E2"/>
</linearGradient>
<linearGradient id="paint109_linear_16_6" x1="-59.1452" y1="20.9175" x2="1610.82" y2="1093.06" gradientUnits="userSpaceOnUse">
<stop offset="0.00337891" stop-color="#F0F0F0"/>
<stop offset="0.4924" stop-color="white"/>
<stop offset="0.9998" stop-color="#E3E3E2"/>
</linearGradient>
<linearGradient id="paint110_linear_16_6" x1="-57.9177" y1="19.0107" x2="1612.05" y2="1091.15" gradientUnits="userSpaceOnUse">
<stop offset="0.00337891" stop-color="#F0F0F0"/>
<stop offset="0.4924" stop-color="white"/>
<stop offset="0.9998" stop-color="#E3E3E2"/>
</linearGradient>
<linearGradient id="paint111_linear_16_6" x1="-160.745" y1="179.169" x2="1509.22" y2="1251.31" gradientUnits="userSpaceOnUse">
<stop offset="0.00337891" stop-color="#F0F0F0"/>
<stop offset="0.4924" stop-color="white"/>
<stop offset="0.9998" stop-color="#E3E3E2"/>
</linearGradient>
<linearGradient id="paint112_linear_16_6" x1="-12.9578" y1="-51.028" x2="1657.01" y2="1021.11" gradientUnits="userSpaceOnUse">
<stop offset="0.00337891" stop-color="#F0F0F0"/>
<stop offset="0.4924" stop-color="white"/>
<stop offset="0.9998" stop-color="#E3E3E2"/>
</linearGradient>
<linearGradient id="paint113_linear_16_6" x1="-234.905" y1="294.681" x2="1435.07" y2="1366.82" gradientUnits="userSpaceOnUse">
<stop offset="0.00337891" stop-color="#F0F0F0"/>
<stop offset="0.4924" stop-color="white"/>
<stop offset="0.9998" stop-color="#E3E3E2"/>
</linearGradient>
<linearGradient id="paint114_linear_16_6" x1="-236.53" y1="297.212" x2="1433.44" y2="1369.35" gradientUnits="userSpaceOnUse">
<stop offset="0.00337891" stop-color="#F0F0F0"/>
<stop offset="0.4924" stop-color="white"/>
<stop offset="0.9998" stop-color="#E3E3E2"/>
</linearGradient>
<linearGradient id="paint115_linear_16_6" x1="-224.18" y1="277.974" x2="1445.79" y2="1350.11" gradientUnits="userSpaceOnUse">
<stop offset="0.00337891" stop-color="#F0F0F0"/>
<stop offset="0.4924" stop-color="white"/>
<stop offset="0.9998" stop-color="#E3E3E2"/>
</linearGradient>
<linearGradient id="paint116_linear_16_6" x1="-212.47" y1="259.733" x2="1457.5" y2="1331.87" gradientUnits="userSpaceOnUse">
<stop offset="0.00337891" stop-color="#F0F0F0"/>
<stop offset="0.4924" stop-color="white"/>
<stop offset="0.9998" stop-color="#E3E3E2"/>
</linearGradient>
<linearGradient id="paint117_linear_16_6" x1="-295.481" y1="389.034" x2="1374.48" y2="1461.17" gradientUnits="userSpaceOnUse">
<stop offset="0.00337891" stop-color="#F0F0F0"/>
<stop offset="0.4924" stop-color="white"/>
<stop offset="0.9998" stop-color="#E3E3E2"/>
</linearGradient>
<linearGradient id="paint118_linear_16_6" x1="-231.402" y1="289.225" x2="1438.56" y2="1361.36" gradientUnits="userSpaceOnUse">
<stop offset="0.00337891" stop-color="#F0F0F0"/>
<stop offset="0.4924" stop-color="white"/>
<stop offset="0.9998" stop-color="#E3E3E2"/>
</linearGradient>
<linearGradient id="paint119_linear_16_6" x1="-57.5604" y1="18.4513" x2="1612.4" y2="1090.59" gradientUnits="userSpaceOnUse">
<stop offset="0.00337891" stop-color="#F0F0F0"/>
<stop offset="0.4924" stop-color="white"/>
<stop offset="0.9998" stop-color="#E3E3E2"/>
</linearGradient>
<linearGradient id="paint120_linear_16_6" x1="-185.473" y1="217.684" x2="1484.49" y2="1289.82" gradientUnits="userSpaceOnUse">
<stop offset="0.00337891" stop-color="#F0F0F0"/>
<stop offset="0.4924" stop-color="white"/>
<stop offset="0.9998" stop-color="#E3E3E2"/>
</linearGradient>
<linearGradient id="paint121_linear_16_6" x1="-253.418" y1="323.529" x2="1416.54" y2="1395.66" gradientUnits="userSpaceOnUse">
<stop offset="0.00337891" stop-color="#F0F0F0"/>
<stop offset="0.4924" stop-color="white"/>
<stop offset="0.9998" stop-color="#E3E3E2"/>
</linearGradient>
<linearGradient id="paint122_linear_16_6" x1="-253.967" y1="324.365" x2="1416.01" y2="1396.51" gradientUnits="userSpaceOnUse">
<stop offset="0.00337891" stop-color="#F0F0F0"/>
<stop offset="0.4924" stop-color="white"/>
<stop offset="0.9998" stop-color="#E3E3E2"/>
</linearGradient>
<linearGradient id="paint123_linear_16_6" x1="-249.605" y1="317.58" x2="1420.36" y2="1389.71" gradientUnits="userSpaceOnUse">
<stop offset="0.00337891" stop-color="#F0F0F0"/>
<stop offset="0.4924" stop-color="white"/>
<stop offset="0.9998" stop-color="#E3E3E2"/>
</linearGradient>
<linearGradient id="paint124_linear_16_6" x1="34.7932" y1="-125.403" x2="1704.76" y2="946.735" gradientUnits="userSpaceOnUse">
<stop offset="0.00337891" stop-color="#F0F0F0"/>
<stop offset="0.4924" stop-color="white"/>
<stop offset="0.9998" stop-color="#E3E3E2"/>
</linearGradient>
<linearGradient id="paint125_linear_16_6" x1="11.7531" y1="-89.5151" x2="1681.72" y2="982.621" gradientUnits="userSpaceOnUse">
<stop offset="0.00337891" stop-color="#F0F0F0"/>
<stop offset="0.4924" stop-color="white"/>
<stop offset="0.9998" stop-color="#E3E3E2"/>
</linearGradient>
<linearGradient id="paint126_linear_16_6" x1="55.8601" y1="-158.221" x2="1725.83" y2="913.92" gradientUnits="userSpaceOnUse">
<stop offset="0.00337891" stop-color="#F0F0F0"/>
<stop offset="0.4924" stop-color="white"/>
<stop offset="0.9998" stop-color="#E3E3E2"/>
</linearGradient>
<linearGradient id="paint127_linear_16_6" x1="-30.8501" y1="-23.1562" x2="1639.12" y2="1048.98" gradientUnits="userSpaceOnUse">
<stop offset="0.00337891" stop-color="#F0F0F0"/>
<stop offset="0.4924" stop-color="white"/>
<stop offset="0.9998" stop-color="#E3E3E2"/>
</linearGradient>
<linearGradient id="paint128_linear_16_6" x1="279.193" y1="-506.079" x2="1949.16" y2="566.059" gradientUnits="userSpaceOnUse">
<stop offset="0.00337891" stop-color="#F0F0F0"/>
<stop offset="0.4924" stop-color="white"/>
<stop offset="0.9998" stop-color="#E3E3E2"/>
</linearGradient>
<linearGradient id="paint129_linear_16_6" x1="292.26" y1="-526.435" x2="1962.23" y2="545.703" gradientUnits="userSpaceOnUse">
<stop offset="0.00337891" stop-color="#F0F0F0"/>
<stop offset="0.4924" stop-color="white"/>
<stop offset="0.9998" stop-color="#E3E3E2"/>
</linearGradient>
<linearGradient id="paint130_linear_16_6" x1="319.411" y1="-568.732" x2="1989.38" y2="503.412" gradientUnits="userSpaceOnUse">
<stop offset="0.00337891" stop-color="#F0F0F0"/>
<stop offset="0.4924" stop-color="white"/>
<stop offset="0.9998" stop-color="#E3E3E2"/>
</linearGradient>
<linearGradient id="paint131_linear_16_6" x1="319.517" y1="-568.876" x2="1989.48" y2="503.248" gradientUnits="userSpaceOnUse">
<stop offset="0.00337891" stop-color="#F0F0F0"/>
<stop offset="0.4924" stop-color="white"/>
<stop offset="0.9998" stop-color="#E3E3E2"/>
</linearGradient>
<linearGradient id="paint132_linear_16_6" x1="309.952" y1="-553.997" x2="1979.93" y2="518.145" gradientUnits="userSpaceOnUse">
<stop offset="0.00337891" stop-color="#F0F0F0"/>
<stop offset="0.4924" stop-color="white"/>
<stop offset="0.9998" stop-color="#E3E3E2"/>
</linearGradient>
<linearGradient id="paint133_linear_16_6" x1="362.674" y1="-636.11" x2="2032.64" y2="436.024" gradientUnits="userSpaceOnUse">
<stop offset="0.00337891" stop-color="#F0F0F0"/>
<stop offset="0.4924" stop-color="white"/>
<stop offset="0.9998" stop-color="#E3E3E2"/>
</linearGradient>
<linearGradient id="paint134_linear_16_6" x1="38.8625" y1="-131.741" x2="1708.84" y2="940.401" gradientUnits="userSpaceOnUse">
<stop offset="0.00337891" stop-color="#F0F0F0"/>
<stop offset="0.4924" stop-color="white"/>
<stop offset="0.9998" stop-color="#E3E3E2"/>
</linearGradient>
<linearGradient id="paint135_linear_16_6" x1="47.671" y1="-145.46" x2="1717.64" y2="926.679" gradientUnits="userSpaceOnUse">
<stop offset="0.00337891" stop-color="#F0F0F0"/>
<stop offset="0.4924" stop-color="white"/>
<stop offset="0.9998" stop-color="#E3E3E2"/>
</linearGradient>
<linearGradient id="paint136_linear_16_6" x1="73.7098" y1="-186.027" x2="1743.69" y2="886.118" gradientUnits="userSpaceOnUse">
<stop offset="0.00337891" stop-color="#F0F0F0"/>
<stop offset="0.4924" stop-color="white"/>
<stop offset="0.9998" stop-color="#E3E3E2"/>
</linearGradient>
<linearGradient id="paint137_linear_16_6" x1="97.2144" y1="-222.629" x2="1767.18" y2="849.508" gradientUnits="userSpaceOnUse">
<stop offset="0.00337891" stop-color="#F0F0F0"/>
<stop offset="0.4924" stop-color="white"/>
<stop offset="0.9998" stop-color="#E3E3E2"/>
</linearGradient>
<linearGradient id="paint138_linear_16_6" x1="120.565" y1="-259.003" x2="1790.53" y2="813.138" gradientUnits="userSpaceOnUse">
<stop offset="0.00337891" stop-color="#F0F0F0"/>
<stop offset="0.4924" stop-color="white"/>
<stop offset="0.9998" stop-color="#E3E3E2"/>
</linearGradient>
<linearGradient id="paint139_linear_16_6" x1="135.422" y1="-282.143" x2="1805.39" y2="789.994" gradientUnits="userSpaceOnUse">
<stop offset="0.00337891" stop-color="#F0F0F0"/>
<stop offset="0.4924" stop-color="white"/>
<stop offset="0.9998" stop-color="#E3E3E2"/>
</linearGradient>
<linearGradient id="paint140_linear_16_6" x1="-288.347" y1="377.925" x2="1381.62" y2="1450.06" gradientUnits="userSpaceOnUse">
<stop offset="0.00337891" stop-color="#F0F0F0"/>
<stop offset="0.4924" stop-color="white"/>
<stop offset="0.9998" stop-color="#E3E3E2"/>
</linearGradient>
<linearGradient id="paint141_linear_16_6" x1="-352.239" y1="477.441" x2="1317.73" y2="1549.58" gradientUnits="userSpaceOnUse">
<stop offset="0.00337891" stop-color="#F0F0F0"/>
<stop offset="0.4924" stop-color="white"/>
<stop offset="0.9998" stop-color="#E3E3E2"/>
</linearGradient>
<linearGradient id="paint142_linear_16_6" x1="-332.435" y1="446.592" x2="1337.53" y2="1518.73" gradientUnits="userSpaceOnUse">
<stop offset="0.00337891" stop-color="#F0F0F0"/>
<stop offset="0.4924" stop-color="white"/>
<stop offset="0.9998" stop-color="#E3E3E2"/>
</linearGradient>
<linearGradient id="paint143_linear_16_6" x1="-306.611" y1="406.37" x2="1363.35" y2="1478.51" gradientUnits="userSpaceOnUse">
<stop offset="0.00337891" stop-color="#F0F0F0"/>
<stop offset="0.4924" stop-color="white"/>
<stop offset="0.9998" stop-color="#E3E3E2"/>
</linearGradient>
<linearGradient id="paint144_linear_16_6" x1="-284.054" y1="371.237" x2="1385.91" y2="1443.37" gradientUnits="userSpaceOnUse">
<stop offset="0.00337891" stop-color="#F0F0F0"/>
<stop offset="0.4924" stop-color="white"/>
<stop offset="0.9998" stop-color="#E3E3E2"/>
</linearGradient>
<linearGradient id="paint145_linear_16_6" x1="-410.79" y1="568.641" x2="1259.18" y2="1640.78" gradientUnits="userSpaceOnUse">
<stop offset="0.00337891" stop-color="#F0F0F0"/>
<stop offset="0.4924" stop-color="white"/>
<stop offset="0.9998" stop-color="#E3E3E2"/>
</linearGradient>
<linearGradient id="paint146_linear_16_6" x1="-470.966" y1="662.372" x2="1199.01" y2="1734.51" gradientUnits="userSpaceOnUse">
<stop offset="0.00337891" stop-color="#F0F0F0"/>
<stop offset="0.4924" stop-color="white"/>
<stop offset="0.9998" stop-color="#E3E3E2"/>
</linearGradient>
</defs>
</svg>
