<svg width="40" height="40" viewBox="0 0 40 40" fill="none" xmlns="http://www.w3.org/2000/svg">
<rect width="40" height="40" rx="5" fill="#EBE8FF"/>
<path d="M22.9296 8.528C22.7623 8.36052 22.5636 8.22768 22.3449 8.13708C22.1263 8.04647 21.8919 7.99989 21.6552 8H13.4016C12.9242 8 12.4663 8.18964 12.1288 8.52721C11.7912 8.86477 11.6016 9.32261 11.6016 9.8V30.2C11.6016 30.6774 11.7912 31.1352 12.1288 31.4728C12.4663 31.8104 12.9242 32 13.4016 32H26.6016C27.079 32 27.5368 31.8104 27.8744 31.4728C28.2119 31.1352 28.4016 30.6774 28.4016 30.2V14.7452C28.4011 14.268 28.2112 13.8104 27.8736 13.4732L22.9296 8.5268V8.528Z" fill="#656084"/>
</svg>
