<svg width="18" height="30" viewBox="0 0 18 30" fill="none" xmlns="http://www.w3.org/2000/svg">
<path d="M16.5 0.00585938L12.6094 0C8.23828 0 5.41406 2.90039 5.41406 7.38281V10.7871H1.5C1.16016 10.7871 0.890625 11.0625 0.890625 11.3965V16.3301C0.890625 16.6699 1.16602 16.9395 1.5 16.9395H5.41406V29.3848C5.41406 29.7246 5.68945 29.9941 6.02344 29.9941H11.1269C11.4668 29.9941 11.7363 29.7188 11.7363 29.3848V16.9453H16.3125C16.6523 16.9453 16.9219 16.6699 16.9219 16.3359V11.4023C16.9219 11.2383 16.8574 11.0859 16.7402 10.9688C16.623 10.8516 16.4707 10.7871 16.3066 10.7871H11.7305V7.9043C11.7305 6.51562 12.0586 5.8125 13.8691 5.8125H16.4883C16.8281 5.8125 17.0976 5.53711 17.0976 5.20312V0.615234C17.1094 0.28125 16.834 0.00585938 16.5 0.00585938Z" fill="black"/>
</svg>
