<svg width="12" height="7" viewBox="0 0 12 7" fill="none" xmlns="http://www.w3.org/2000/svg">
<path d="M5.99985 6.99985C5.86851 6.99998 5.73844 6.97417 5.61712 6.92389C5.49579 6.87361 5.38559 6.79985 5.29285 6.70685L0.292849 1.70685C0.200004 1.614 0.126356 1.50378 0.0761089 1.38247C0.0258618 1.26117 9.78277e-10 1.13115 0 0.999849C-9.78276e-10 0.868547 0.0258618 0.738531 0.0761089 0.617223C0.126356 0.495916 0.200005 0.385694 0.292849 0.292849C0.385694 0.200005 0.495916 0.126356 0.617223 0.0761089C0.738531 0.0258618 0.868547 -9.78275e-10 0.999849 0C1.13115 9.78278e-10 1.26117 0.0258618 1.38247 0.0761089C1.50378 0.126356 1.614 0.200004 1.70685 0.292849L5.99985 4.58585L10.2928 0.292849C10.3857 0.200004 10.4959 0.126356 10.6172 0.0761089C10.7385 0.0258618 10.8685 1.95655e-09 10.9998 0C11.1312 -1.95655e-09 11.2612 0.0258618 11.3825 0.0761089C11.5038 0.126356 11.614 0.200004 11.7068 0.292849C11.7997 0.385693 11.8733 0.495916 11.9236 0.617223C11.9738 0.738531 11.9997 0.868547 11.9997 0.999849C11.9997 1.13115 11.9738 1.26117 11.9236 1.38247C11.8733 1.50378 11.7997 1.614 11.7068 1.70685L6.70685 6.70685C6.61411 6.79985 6.50391 6.87361 6.38258 6.92389C6.26125 6.97417 6.13118 6.99998 5.99985 6.99985Z" fill="#B0AAD0"/>
</svg>
