<svg width="12" height="12" viewBox="0 0 12 12" fill="none" xmlns="http://www.w3.org/2000/svg">
<path d="M7.05887 6L11.7714 1.28749C11.8429 1.21841 11.9 1.13578 11.9392 1.04442C11.9785 0.953053 11.9991 0.854789 12 0.755357C12.0008 0.655925 11.9819 0.557317 11.9442 0.465286C11.9066 0.373255 11.851 0.289645 11.7807 0.219333C11.7104 0.149022 11.6267 0.0934171 11.5347 0.0557643C11.4427 0.0181114 11.3441 -0.000835761 11.2446 2.82741e-05C11.1452 0.000892309 11.0469 0.0215503 10.9556 0.0607968C10.8642 0.100043 10.7816 0.157092 10.7125 0.228615L6 4.94113L1.28749 0.228615C1.14625 0.0922059 0.957093 0.0167261 0.760747 0.0184323C0.564401 0.0201385 0.37658 0.0988943 0.237737 0.237737C0.0988943 0.37658 0.0201385 0.564401 0.0184323 0.760747C0.0167261 0.957093 0.092206 1.14625 0.228615 1.28749L4.94113 6L0.228615 10.7125C0.157092 10.7816 0.100043 10.8642 0.0607968 10.9556C0.0215503 11.0469 0.000892309 11.1452 2.82741e-05 11.2446C-0.000835761 11.3441 0.0181114 11.4427 0.0557643 11.5347C0.0934171 11.6267 0.149022 11.7104 0.219333 11.7807C0.289645 11.851 0.373255 11.9066 0.465286 11.9442C0.557317 11.9819 0.655925 12.0008 0.755357 12C0.854789 11.9991 0.953053 11.9784 1.04442 11.9392C1.13578 11.9 1.21841 11.8429 1.28749 11.7714L6 7.05887L10.7125 11.7714C10.817 11.8768 10.9504 11.9488 11.0959 11.9781C11.2414 12.0074 11.3923 11.9927 11.5294 11.9359C11.6665 11.8791 11.7836 11.7828 11.8658 11.6592C11.948 11.5356 11.9915 11.3904 11.9908 11.2419C11.9908 11.1436 11.9715 11.0462 11.9338 10.9554C11.8962 10.8645 11.841 10.782 11.7714 10.7125L7.05887 6Z" fill="#222222"/>
</svg>
