<svg width="32" height="32" viewBox="0 0 32 32" fill="none" xmlns="http://www.w3.org/2000/svg">
<path d="M25.75 25H6.25C5.00734 25 4 23.9927 4 22.75V9.25C4 8.00734 5.00734 7 6.25 7H25.75C26.9927 7 28 8.00734 28 9.25V22.75C28 23.9927 26.9927 25 25.75 25ZM9.25 9.625C7.80025 9.625 6.625 10.8003 6.625 12.25C6.625 13.6997 7.80025 14.875 9.25 14.875C10.6997 14.875 11.875 13.6997 11.875 12.25C11.875 10.8003 10.6997 9.625 9.25 9.625ZM7 22H25V16.75L20.8977 12.6477C20.6781 12.4281 20.3219 12.4281 20.1022 12.6477L13.75 19L11.1477 16.3977C10.9281 16.1781 10.5719 16.1781 10.3522 16.3977L7 19.75V22Z" fill="black"/>
</svg>
