<svg width="32" height="32" viewBox="0 0 32 32" fill="none" xmlns="http://www.w3.org/2000/svg">
<g clip-path="url(#clip0_599_3046)">
<path d="M19.31 12.6897C22.1106 15.4933 22.0722 19.9881 19.3268 22.7486C19.3217 22.7542 19.3156 22.7603 19.31 22.766L16.16 25.916C13.3817 28.6942 8.86157 28.6939 6.08371 25.916C3.30543 23.1382 3.30543 18.6175 6.08371 15.8397L7.82305 14.1004C8.2843 13.6391 9.07865 13.9457 9.10246 14.5975C9.13284 15.4282 9.2818 16.2629 9.55668 17.0688C9.64977 17.3417 9.58326 17.6436 9.37935 17.8475L8.7659 18.461C7.45218 19.7747 7.41098 21.9138 8.71176 23.2403C10.0254 24.58 12.1845 24.5879 13.5082 23.2642L16.6582 20.1147C17.9797 18.7933 17.9742 16.6574 16.6582 15.3414C16.4848 15.1683 16.31 15.0337 16.1735 14.9398C16.0769 14.8735 15.9972 14.7855 15.9407 14.6829C15.8841 14.5803 15.8524 14.4659 15.8479 14.3489C15.8293 13.8535 16.0048 13.3431 16.3962 12.9517L17.3831 11.9648C17.6419 11.706 18.0479 11.6742 18.348 11.8836C18.6917 12.1236 19.0136 12.3933 19.31 12.6897ZM25.9163 6.08307C23.1384 3.30516 18.6183 3.30479 15.84 6.08307L12.69 9.23306C12.6844 9.23869 12.6783 9.24478 12.6732 9.25041C9.92788 12.011 9.8894 16.5058 12.69 19.3093C12.9864 19.6057 13.3083 19.8754 13.652 20.1154C13.9521 20.3248 14.3581 20.293 14.6168 20.0342L15.6037 19.0473C15.9951 18.6559 16.1706 18.1455 16.1521 17.6501C16.1476 17.5331 16.1158 17.4187 16.0593 17.3161C16.0027 17.2135 15.923 17.1255 15.8264 17.0592C15.6899 16.9652 15.5152 16.8307 15.3417 16.6575C14.0258 15.3416 14.0203 13.2057 15.3417 11.8843L18.4917 8.73474C19.8154 7.41103 21.9745 7.419 23.2882 8.75864C24.589 10.0852 24.5478 12.2243 23.2341 13.538L22.6206 14.1515C22.4167 14.3554 22.3502 14.6572 22.4433 14.9302C22.7181 15.7361 22.8671 16.5707 22.8975 17.4015C22.9213 18.0533 23.7156 18.3599 24.1769 17.8986L25.9162 16.1593C28.6946 13.3815 28.6946 8.86088 25.9163 6.08307Z" fill="black"/>
</g>
<defs>
<clipPath id="clip0_599_3046">
<rect width="24" height="24" fill="white" transform="translate(4 4)"/>
</clipPath>
</defs>
</svg>
