<svg width="32" height="32" viewBox="0 0 32 32" fill="none" xmlns="http://www.w3.org/2000/svg">
<path d="M28 10.75V24.25C28 25.4922 26.9922 26.5 25.75 26.5H6.25C5.00781 26.5 4 25.4922 4 24.25V10.75C4 9.50781 5.00781 8.5 6.25 8.5H10.375L10.9516 6.95781C11.2797 6.08125 12.1187 5.5 13.0562 5.5H18.9391C19.8766 5.5 20.7156 6.08125 21.0438 6.95781L21.625 8.5H25.75C26.9922 8.5 28 9.50781 28 10.75ZM21.625 17.5C21.625 14.3969 19.1031 11.875 16 11.875C12.8969 11.875 10.375 14.3969 10.375 17.5C10.375 20.6031 12.8969 23.125 16 23.125C19.1031 23.125 21.625 20.6031 21.625 17.5ZM20.125 17.5C20.125 19.7734 18.2734 21.625 16 21.625C13.7266 21.625 11.875 19.7734 11.875 17.5C11.875 15.2266 13.7266 13.375 16 13.375C18.2734 13.375 20.125 15.2266 20.125 17.5Z" fill="black"/>
</svg>
