<svg width="32" height="32" viewBox="0 0 32 32" fill="none" xmlns="http://www.w3.org/2000/svg">
<g clip-path="url(#clip0_599_3025)">
<path d="M15.625 4.375C9.20312 4.375 4 9.57812 4 16C4 22.4219 9.20312 27.625 15.625 27.625C22.0469 27.625 27.25 22.4219 27.25 16C27.25 9.57812 22.0469 4.375 15.625 4.375ZM15.625 25.375C10.4547 25.375 6.25 21.1703 6.25 16C6.25 10.8297 10.4547 6.625 15.625 6.625C20.7953 6.625 25 10.8297 25 16C25 21.1703 20.7953 25.375 15.625 25.375ZM19.5625 18.6531C18.5875 19.825 17.1484 20.5 15.625 20.5C14.1016 20.5 12.6625 19.8297 11.6875 18.6531C11.2891 18.175 10.5812 18.1141 10.1031 18.5078C9.625 18.9062 9.56406 19.6141 9.95781 20.0922C11.3641 21.7797 13.4312 22.7453 15.625 22.7453C17.8188 22.7453 19.8859 21.7797 21.2922 20.0922C21.6906 19.6141 21.625 18.9062 21.1469 18.5078C20.6687 18.1141 19.9609 18.175 19.5625 18.6531ZM10.3984 13.8906C10.7594 13.2484 11.2984 12.8781 11.875 12.8781C12.4516 12.8781 12.9906 13.2484 13.3516 13.8906L13.7969 14.6875C13.8953 14.8609 14.0875 14.9078 14.2328 14.8609C14.4016 14.8094 14.5141 14.65 14.5 14.4719C14.3453 12.4984 12.9906 11.125 11.875 11.125C10.7594 11.125 9.40469 12.4984 9.25 14.4719C9.23594 14.6453 9.34844 14.8094 9.51719 14.8609C9.67656 14.9125 9.86406 14.8375 9.95312 14.6875L10.3984 13.8906ZM19.375 11.125C18.2594 11.125 16.9047 12.4984 16.75 14.4719C16.7359 14.6453 16.8484 14.8094 17.0172 14.8609C17.1813 14.9125 17.3641 14.8375 17.4531 14.6875L17.8984 13.8906C18.2594 13.2484 18.7984 12.8781 19.375 12.8781C19.9516 12.8781 20.4906 13.2484 20.8516 13.8906L21.2969 14.6875C21.3953 14.8609 21.5875 14.9078 21.7328 14.8609C21.9016 14.8094 22.0141 14.65 22 14.4719C21.8453 12.4984 20.4906 11.125 19.375 11.125Z" fill="black"/>
</g>
<defs>
<clipPath id="clip0_599_3025">
<rect width="23.25" height="24" fill="white" transform="translate(4 4)"/>
</clipPath>
</defs>
</svg>
