<svg width="24" height="24" viewBox="0 0 24 24" fill="none" xmlns="http://www.w3.org/2000/svg">
<path fill-rule="evenodd" clip-rule="evenodd" d="M12.5 1.37891C15.864 1.37891 17.598 3.47491 17.616 7.39891L20 7.39991C20.299 7.39991 20.552 7.61991 20.594 7.91491L22.104 18.4909C22.386 20.4589 21.018 22.2829 19.05 22.5639C18.881 22.5879 18.711 22.5999 18.541 22.5999H6.45901C4.47101 22.5999 2.85901 20.9879 2.85901 18.9999C2.85901 18.8299 2.87101 18.6599 2.89501 18.4899L4.40601 7.91591C4.44801 7.61991 4.70101 7.39991 5.00001 7.39991H7.42601C7.41501 3.47691 9.13601 1.37891 12.5 1.37891ZM19.48 8.59991H5.51901L4.07301 18.7449L4.06501 18.8299L4.05901 18.9999C4.05901 20.3249 5.13401 21.3999 6.45901 21.3999H18.541C18.655 21.3999 18.768 21.3919 18.881 21.3759C20.193 21.1879 21.104 19.9729 20.917 18.6609L19.48 8.59991ZM12.5 2.57891C9.86801 2.57891 8.60601 4.09591 8.62601 7.39891L16.416 7.39991C16.41 4.09691 15.133 2.57991 12.5 2.57991V2.57891Z" fill="#141414"/>
</svg>
