<svg width="11" height="14" viewBox="0 0 11 14" fill="none" xmlns="http://www.w3.org/2000/svg">
<path d="M5.253 1.25776L5.187 1.21776C4.439 0.762757 3.781 0.361757 3.217 0.159757C2.90609 0.0402635 2.5737 -0.0132039 2.241 0.0027572C1.89078 0.0294913 1.55602 0.158108 1.278 0.372757C0.699 0.806757 0.449 1.44576 0.312 2.15276C0.179 2.83776 0.128 3.72976 0.0650001 4.81576L0.0619998 4.87176C0.0239998 5.52176 0 6.16476 0 6.74776C0 7.33076 0.0239998 7.97476 0.0619998 8.62476L0.0650001 8.67976C0.128 9.76576 0.179 10.6578 0.312 11.3418C0.449 12.0498 0.699 12.6878 1.278 13.1228C1.564 13.3378 1.885 13.4658 2.241 13.4928C2.583 13.5178 2.911 13.4458 3.217 13.3358C3.781 13.1338 4.439 12.7328 5.187 12.2788L5.253 12.2388C5.679 11.9788 6.097 11.7118 6.47 11.4488C6.9268 11.1238 7.37207 10.7829 7.805 10.4268L7.855 10.3858C8.619 9.76276 9.267 9.23376 9.715 8.71376C10.203 8.14376 10.5 7.53176 10.5 6.74776C10.5 5.96376 10.203 5.35076 9.714 4.78176C9.267 4.26176 8.619 3.73176 7.856 3.10976L7.806 3.06876C7.352 2.69876 6.896 2.34476 6.47 2.04676C6.07274 1.77069 5.66687 1.50723 5.253 1.25676" fill="white"/>
</svg>
