<svg width="25" height="43" viewBox="0 0 25 43" fill="none" xmlns="http://www.w3.org/2000/svg">
<path fill-rule="evenodd" clip-rule="evenodd" d="M0.829345 41.7716C1.74577 42.5982 3.22791 42.5982 4.14208 41.7716L23.5183 24.256C23.9521 23.8699 24.2975 23.406 24.5335 22.8909C24.7694 22.3759 24.8911 21.8204 24.8911 21.2599C24.8911 20.6995 24.7694 20.145 24.5335 19.63C24.2975 19.115 23.9521 18.651 23.5183 18.265L4.00179 0.619957C3.55886 0.225624 2.9723 0.00398975 2.36122 5.32257e-05C1.75015 -0.0038833 1.16036 0.21067 0.711676 0.599259C0.489406 0.791156 0.31158 1.0234 0.189172 1.28229C0.0667653 1.54118 0.00239917 1.82087 6.58035e-05 2.104C-0.00226756 2.38713 0.0574775 2.66715 0.175603 2.92778C0.293729 3.1884 0.467701 3.424 0.686782 3.61909L18.5492 19.7635C18.7663 19.9565 18.9391 20.1889 19.0572 20.4465C19.1753 20.7041 19.2363 20.9806 19.2363 21.261C19.2363 21.5413 19.1753 21.8189 19.0572 22.0765C18.9391 22.3341 18.7663 22.5665 18.5492 22.7595L0.829345 38.7766C0.612367 38.9695 0.439594 39.2022 0.321516 39.4597C0.203438 39.7171 0.142526 39.9939 0.142526 40.2741C0.142526 40.5543 0.203438 40.8311 0.321516 41.0886C0.439594 41.346 0.612367 41.5787 0.829345 41.7716Z" fill="currentColor"/>
</svg>
