<svg width="75" height="76" viewBox="0 0 75 76" fill="none" xmlns="http://www.w3.org/2000/svg">
<path d="M55.5321 15.4523C60.6463 19.757 64.2683 25.65 65.7171 32.2703C67.0645 38.4304 66.485 45.0804 63.9786 50.8546C59.2555 61.8242 48.4041 69.0382 36.6833 68.8749C25.093 68.7117 14.285 61.2453 9.92418 50.2015C7.70753 44.5757 7.15699 38.3265 8.43193 32.389C9.67789 26.6 12.59 21.2711 16.7625 17.1593C20.8915 13.0773 26.1506 10.3312 31.7864 9.24762C38.4364 7.9859 45.463 9.1734 51.3741 12.5578C52.8229 13.4039 54.2282 14.3687 55.5321 15.4523C55.9957 15.8382 56.6187 15.8976 57.0678 15.4523C57.459 15.0664 57.517 14.25 57.0678 13.8789C51.2002 9.01012 43.8404 6.35309 36.2632 6.5609C30.0189 6.72418 23.8615 8.81715 18.7763 12.5578C13.778 16.2539 9.90969 21.3453 7.66407 27.2234C5.36049 33.2945 4.95483 40.1078 6.44708 46.4312C9.34466 58.7812 19.5297 68.5632 31.7719 70.6413C38.1032 71.7101 44.6082 70.8343 50.4324 68.0585C55.9523 65.4312 60.6753 61.082 63.8916 55.7828C67.2383 50.246 68.8755 43.6554 68.5423 37.1539C68.1656 29.8656 65.3694 22.8742 60.6464 17.4117C59.5453 16.1351 58.3428 14.9625 57.0533 13.8789C56.5897 13.4929 55.9668 13.4336 55.5176 13.8789C55.1409 14.2648 55.083 15.0664 55.5321 15.4523ZM59.7336 68.1921C61.4287 69.9289 63.1093 71.6507 64.8044 73.3874C65.7896 74.3968 67.3253 72.8234 66.3401 71.814C64.645 70.0773 62.9644 68.3554 61.2693 66.6187C60.2841 65.5945 58.7484 67.1679 59.7336 68.1921ZM12.9087 66.6187C11.2136 68.3554 9.53301 70.0773 7.83792 71.814C6.85274 72.8234 8.38846 74.3968 9.37364 73.3874C11.0687 71.6507 12.7493 69.9289 14.4444 68.1921C15.4296 67.1679 13.8939 65.5945 12.9087 66.6187Z" fill="black"/>
<path d="M56.3 36.8867C51.3596 36.8867 46.4193 36.8867 41.4934 36.8867C40.1025 36.8867 38.8276 36.2633 38.3495 34.8383C38.1032 34.1109 38.1901 33.2945 38.1901 32.5375C38.1901 29.4648 38.1901 26.3773 38.1901 23.3047C38.1901 20.8258 38.1901 18.3469 38.1901 15.868C38.1901 14.4281 36.017 14.4281 36.017 15.868C36.017 21.3008 36.017 26.7188 36.017 32.1516C36.017 32.8789 35.9735 33.6359 36.0459 34.3633C36.3357 37.0648 38.5234 39.0687 41.1602 39.1281C43.4637 39.1727 45.7818 39.1281 48.0854 39.1281C50.8236 39.1281 53.5763 39.1281 56.3145 39.1281C57.7053 39.1133 57.7053 36.8867 56.3 36.8867Z" fill="black"/>
<path d="M61.168 4.20093C64.4712 6.97671 67.137 10.3908 69.0639 14.3244C69.6869 15.6009 71.5703 14.4728 70.9473 13.1962C68.9625 9.12906 66.1518 5.50718 62.7182 2.61265C62.2546 2.22671 61.6316 2.16734 61.1825 2.61265C60.7768 3.01343 60.7044 3.815 61.168 4.20093ZM11.4745 2.61265C8.04084 5.50718 5.23018 9.12906 3.24534 13.1962C2.62236 14.4728 4.4913 15.6009 5.12877 14.3244C7.04117 10.3908 9.70695 6.97671 13.0102 4.20093C13.4738 3.815 13.3869 3.02828 13.0102 2.6275C12.5756 2.1525 11.9236 2.24156 11.4745 2.61265Z" fill="black"/>
</svg>
