<svg width="68" height="73" viewBox="0 0 68 73" fill="none" xmlns="http://www.w3.org/2000/svg">
<path d="M54.5859 0H13.4141C12.4458 0.0015086 11.5177 0.415086 10.833 1.15007C10.1484 1.88506 9.76312 2.88147 9.76172 3.9209V69.0791C9.76312 70.1185 10.1484 71.1149 10.833 71.8499C11.5177 72.5849 12.4458 72.9985 13.4141 73H54.5859C55.5542 72.9985 56.4823 72.5849 57.167 71.8499C57.8516 71.1149 58.2369 70.1185 58.2383 69.0791V3.9209C58.2369 2.88147 57.8516 1.88506 57.167 1.15007C56.4823 0.415086 55.5542 0.0015086 54.5859 0V0ZM56.2461 69.0791C56.2454 69.5515 56.0703 70.0044 55.7591 70.3385C55.4479 70.6726 55.026 70.8606 54.5859 70.8613H13.4141C12.974 70.8606 12.5521 70.6726 12.2409 70.3385C11.9297 70.0044 11.7546 69.5515 11.7539 69.0791V3.9209C11.7546 3.44845 11.9297 2.99558 12.2409 2.66151C12.5521 2.32744 12.974 2.13943 13.4141 2.13867H54.5859C55.026 2.13943 55.4479 2.32744 55.7591 2.66151C56.0703 2.99558 56.2454 3.44845 56.2461 3.9209V69.0791Z" fill="black"/>
<path d="M49.9375 5.70312H18.0625C17.4463 5.70388 16.8555 5.967 16.4198 6.43476C15.9841 6.90252 15.739 7.53673 15.7383 8.19824V13.9014C15.739 14.5629 15.9841 15.1971 16.4198 15.6648C16.8555 16.1326 17.4463 16.3957 18.0625 16.3965H49.9375C50.5537 16.3957 51.1445 16.1326 51.5802 15.6648C52.0159 15.1971 52.261 14.5629 52.2617 13.9014V8.19824C52.261 7.53673 52.0159 6.90252 51.5802 6.43476C51.1445 5.967 50.5537 5.70388 49.9375 5.70312ZM50.2695 13.9014C50.2695 13.9959 50.2346 14.0866 50.1723 14.1534C50.11 14.2203 50.0256 14.2578 49.9375 14.2578H18.0625C17.9744 14.2578 17.89 14.2203 17.8277 14.1534C17.7655 14.0866 17.7305 13.9959 17.7305 13.9014V8.19824C17.7305 8.10371 17.7655 8.01304 17.8277 7.9462C17.89 7.87935 17.9744 7.8418 18.0625 7.8418H49.9375C50.0256 7.8418 50.11 7.87935 50.1723 7.9462C50.2346 8.01304 50.2695 8.10371 50.2695 8.19824V13.9014ZM20.7188 23.0264H18.0625C17.4463 23.0271 16.8555 23.2902 16.4198 23.758C15.9841 24.2258 15.739 24.86 15.7383 25.5215V28.373C15.739 29.0346 15.9841 29.6688 16.4198 30.1365C16.8555 30.6043 17.4463 30.8674 18.0625 30.8682H20.7188C21.335 30.8674 21.9257 30.6043 22.3614 30.1365C22.7972 29.6688 23.0423 29.0346 23.043 28.373V25.5215C23.0423 24.86 22.7972 24.2258 22.3614 23.758C21.9257 23.2902 21.335 23.0271 20.7188 23.0264ZM21.0508 28.373C21.0508 28.4676 21.0158 28.5582 20.9535 28.6251C20.8913 28.6919 20.8068 28.7295 20.7188 28.7295H18.0625C17.9744 28.7295 17.89 28.6919 17.8277 28.6251C17.7655 28.5582 17.7305 28.4676 17.7305 28.373V25.5215C17.7305 25.4269 17.7655 25.3363 17.8277 25.2694C17.89 25.2026 17.9744 25.165 18.0625 25.165H20.7188C20.8068 25.165 20.8913 25.2026 20.9535 25.2694C21.0158 25.3363 21.0508 25.4269 21.0508 25.5215V28.373ZM30.4579 23.0264H27.8016C27.1854 23.0271 26.5947 23.2902 26.1589 23.758C25.7232 24.2258 25.4781 24.86 25.4774 25.5215V28.373C25.4781 29.0346 25.7232 29.6688 26.1589 30.1365C26.5947 30.6043 27.1854 30.8674 27.8016 30.8682H30.4579C31.0741 30.8674 31.6649 30.6043 32.1006 30.1365C32.5363 29.6688 32.7814 29.0346 32.7821 28.373V25.5215C32.7814 24.86 32.5363 24.2258 32.1006 23.758C31.6649 23.2902 31.0741 23.0271 30.4579 23.0264ZM30.7899 28.373C30.7899 28.4676 30.7549 28.5582 30.6927 28.6251C30.6304 28.6919 30.546 28.7295 30.4579 28.7295H27.8016C27.7137 28.7291 27.6294 28.6914 27.5672 28.6247C27.5051 28.5579 27.47 28.4675 27.4696 28.373V25.5215C27.47 25.4271 27.5051 25.3366 27.5672 25.2699C27.6294 25.2031 27.7137 25.1654 27.8016 25.165H30.4579C30.546 25.165 30.6304 25.2026 30.6927 25.2694C30.7549 25.3363 30.7899 25.4269 30.7899 25.5215V28.373ZM40.1984 23.0264H37.5421C36.9259 23.0271 36.3351 23.2902 35.8994 23.758C35.4637 24.2258 35.2186 24.86 35.2179 25.5215V28.373C35.2186 29.0346 35.4637 29.6688 35.8994 30.1365C36.3351 30.6043 36.9259 30.8674 37.5421 30.8682H40.1984C40.8146 30.8674 41.4053 30.6043 41.8411 30.1365C42.2768 29.6688 42.5219 29.0346 42.5226 28.373V25.5215C42.5219 24.86 42.2768 24.2258 41.8411 23.758C41.4053 23.2902 40.8146 23.0271 40.1984 23.0264ZM40.5304 28.373C40.53 28.4675 40.4949 28.5579 40.4328 28.6247C40.3706 28.6914 40.2863 28.7291 40.1984 28.7295H37.5421C37.4541 28.7295 37.3696 28.6919 37.3073 28.6251C37.2451 28.5582 37.2101 28.4676 37.2101 28.373V25.5215C37.2101 25.4269 37.2451 25.3363 37.3073 25.2694C37.3696 25.2026 37.4541 25.165 37.5421 25.165H40.1984C40.2863 25.1654 40.3706 25.2031 40.4328 25.2699C40.4949 25.3366 40.53 25.4271 40.5304 25.5215V28.373ZM49.9375 23.0264H47.2812C46.665 23.0271 46.0743 23.2902 45.6386 23.758C45.2028 24.2258 44.9577 24.86 44.957 25.5215V28.373C44.9577 29.0346 45.2028 29.6688 45.6386 30.1365C46.0743 30.6043 46.665 30.8674 47.2812 30.8682H49.9375C50.5537 30.8674 51.1445 30.6043 51.5802 30.1365C52.0159 29.6688 52.261 29.0346 52.2617 28.373V25.5215C52.261 24.86 52.0159 24.2258 51.5802 23.758C51.1445 23.2902 50.5537 23.0271 49.9375 23.0264ZM50.2695 28.373C50.2695 28.4676 50.2346 28.5582 50.1723 28.6251C50.11 28.6919 50.0256 28.7295 49.9375 28.7295H47.2812C47.1932 28.7295 47.1087 28.6919 47.0465 28.6251C46.9842 28.5582 46.9492 28.4676 46.9492 28.373V25.5215C46.9492 25.4269 46.9842 25.3363 47.0465 25.2694C47.1087 25.2026 47.1932 25.165 47.2812 25.165H49.9375C50.0256 25.165 50.11 25.2026 50.1723 25.2694C50.2346 25.3363 50.2695 25.4269 50.2695 25.5215V28.373ZM20.7188 35.2881H18.0625C17.4463 35.2888 16.8555 35.552 16.4198 36.0197C15.9841 36.4875 15.739 37.1217 15.7383 37.7832V40.6348C15.739 41.2963 15.9841 41.9305 16.4198 42.3982C16.8555 42.866 17.4463 43.1291 18.0625 43.1299H20.7188C21.335 43.1291 21.9257 42.866 22.3614 42.3982C22.7972 41.9305 23.0423 41.2963 23.043 40.6348V37.7832C23.0423 37.1217 22.7972 36.4875 22.3614 36.0197C21.9257 35.552 21.335 35.2888 20.7188 35.2881ZM21.0508 40.6348C21.0508 40.7293 21.0158 40.82 20.9535 40.8868C20.8913 40.9537 20.8068 40.9912 20.7188 40.9912H18.0625C17.9744 40.9912 17.89 40.9537 17.8277 40.8868C17.7655 40.82 17.7305 40.7293 17.7305 40.6348V37.7832C17.7305 37.6887 17.7655 37.598 17.8277 37.5312C17.89 37.4643 17.9744 37.4268 18.0625 37.4268H20.7188C20.8068 37.4268 20.8913 37.4643 20.9535 37.5312C21.0158 37.598 21.0508 37.6887 21.0508 37.7832V40.6348ZM30.4579 35.2881H27.8016C27.1854 35.2888 26.5947 35.552 26.1589 36.0197C25.7232 36.4875 25.4781 37.1217 25.4774 37.7832V40.6348C25.4781 41.2963 25.7232 41.9305 26.1589 42.3982C26.5947 42.866 27.1854 43.1291 27.8016 43.1299H30.4579C31.0741 43.1291 31.6649 42.866 32.1006 42.3982C32.5363 41.9305 32.7814 41.2963 32.7821 40.6348V37.7832C32.7814 37.1217 32.5363 36.4875 32.1006 36.0197C31.6649 35.552 31.0741 35.2888 30.4579 35.2881ZM30.7899 40.6348C30.7899 40.7293 30.7549 40.82 30.6927 40.8868C30.6304 40.9537 30.546 40.9912 30.4579 40.9912H27.8016C27.7137 40.9908 27.6294 40.9532 27.5672 40.8864C27.5051 40.8196 27.47 40.7292 27.4696 40.6348V37.7832C27.47 37.6888 27.5051 37.5983 27.5672 37.5316C27.6294 37.4648 27.7137 37.4271 27.8016 37.4268H30.4579C30.546 37.4268 30.6304 37.4643 30.6927 37.5312C30.7549 37.598 30.7899 37.6887 30.7899 37.7832V40.6348ZM40.1984 35.2881H37.5421C36.9259 35.2888 36.3351 35.552 35.8994 36.0197C35.4637 36.4875 35.2186 37.1217 35.2179 37.7832V40.6348C35.2186 41.2963 35.4637 41.9305 35.8994 42.3982C36.3351 42.866 36.9259 43.1291 37.5421 43.1299H40.1984C40.8146 43.1291 41.4053 42.866 41.8411 42.3982C42.2768 41.9305 42.5219 41.2963 42.5226 40.6348V37.7832C42.5219 37.1217 42.2768 36.4875 41.8411 36.0197C41.4053 35.552 40.8146 35.2888 40.1984 35.2881ZM40.5304 40.6348C40.53 40.7292 40.4949 40.8196 40.4328 40.8864C40.3706 40.9532 40.2863 40.9908 40.1984 40.9912H37.5421C37.4541 40.9912 37.3696 40.9537 37.3073 40.8868C37.2451 40.82 37.2101 40.7293 37.2101 40.6348V37.7832C37.2101 37.6887 37.2451 37.598 37.3073 37.5312C37.3696 37.4643 37.4541 37.4268 37.5421 37.4268H40.1984C40.2863 37.4271 40.3706 37.4648 40.4328 37.5316C40.4949 37.5983 40.53 37.6888 40.5304 37.7832V40.6348ZM49.9375 35.2881H47.2812C46.665 35.2888 46.0743 35.552 45.6386 36.0197C45.2028 36.4875 44.9577 37.1217 44.957 37.7832V40.6348C44.9577 41.2963 45.2028 41.9305 45.6386 42.3982C46.0743 42.866 46.665 43.1291 47.2812 43.1299H49.9375C50.5537 43.1291 51.1445 42.866 51.5802 42.3982C52.0159 41.9305 52.261 41.2963 52.2617 40.6348V37.7832C52.261 37.1217 52.0159 36.4875 51.5802 36.0197C51.1445 35.552 50.5537 35.2888 49.9375 35.2881ZM50.2695 40.6348C50.2695 40.7293 50.2346 40.82 50.1723 40.8868C50.11 40.9537 50.0256 40.9912 49.9375 40.9912H47.2812C47.1932 40.9912 47.1087 40.9537 47.0465 40.8868C46.9842 40.82 46.9492 40.7293 46.9492 40.6348V37.7832C46.9492 37.6887 46.9842 37.598 47.0465 37.5312C47.1087 37.4643 47.1932 37.4268 47.2812 37.4268H49.9375C50.0256 37.4268 50.11 37.4643 50.1723 37.5312C50.2346 37.598 50.2695 37.6887 50.2695 37.7832V40.6348ZM20.7188 47.5498H18.0625C17.4463 47.5506 16.8555 47.8137 16.4198 48.2814C15.9841 48.7492 15.739 49.3834 15.7383 50.0449V52.8965C15.739 53.558 15.9841 54.1922 16.4198 54.66C16.8555 55.1277 17.4463 55.3908 18.0625 55.3916H20.7188C21.335 55.3908 21.9257 55.1277 22.3614 54.66C22.7972 54.1922 23.0423 53.558 23.043 52.8965V50.0449C23.0423 49.3834 22.7972 48.7492 22.3614 48.2814C21.9257 47.8137 21.335 47.5506 20.7188 47.5498ZM21.0508 52.8965C21.0508 52.991 21.0158 53.0817 20.9535 53.1485C20.8913 53.2154 20.8068 53.2529 20.7188 53.2529H18.0625C17.9744 53.2529 17.89 53.2154 17.8277 53.1485C17.7655 53.0817 17.7305 52.991 17.7305 52.8965V50.0449C17.7305 49.9504 17.7655 49.8597 17.8277 49.7929C17.89 49.726 17.9744 49.6885 18.0625 49.6885H20.7188C20.8068 49.6885 20.8913 49.726 20.9535 49.7929C21.0158 49.8597 21.0508 49.9504 21.0508 50.0449V52.8965ZM30.4579 47.5498H27.8016C27.1854 47.5506 26.5947 47.8137 26.1589 48.2814C25.7232 48.7492 25.4781 49.3834 25.4774 50.0449V52.8965C25.4781 53.558 25.7232 54.1922 26.1589 54.66C26.5947 55.1277 27.1854 55.3908 27.8016 55.3916H30.4579C31.0741 55.3908 31.6649 55.1277 32.1006 54.66C32.5363 54.1922 32.7814 53.558 32.7821 52.8965V50.0449C32.7814 49.3834 32.5363 48.7492 32.1006 48.2814C31.6649 47.8137 31.0741 47.5506 30.4579 47.5498ZM30.7899 52.8965C30.7899 52.991 30.7549 53.0817 30.6927 53.1485C30.6304 53.2154 30.546 53.2529 30.4579 53.2529H27.8016C27.7137 53.2526 27.6294 53.2149 27.5672 53.1481C27.5051 53.0813 27.47 52.9909 27.4696 52.8965V50.0449C27.47 49.9505 27.5051 49.8601 27.5672 49.7933C27.6294 49.7265 27.7137 49.6889 27.8016 49.6885H30.4579C30.546 49.6885 30.6304 49.726 30.6927 49.7929C30.7549 49.8597 30.7899 49.9504 30.7899 50.0449V52.8965ZM40.1984 47.5498H37.5421C36.9259 47.5506 36.3351 47.8137 35.8994 48.2814C35.4637 48.7492 35.2186 49.3834 35.2179 50.0449V52.8965C35.2186 53.558 35.4637 54.1922 35.8994 54.66C36.3351 55.1277 36.9259 55.3908 37.5421 55.3916H40.1984C40.8146 55.3908 41.4053 55.1277 41.8411 54.66C42.2768 54.1922 42.5219 53.558 42.5226 52.8965V50.0449C42.5219 49.3834 42.2768 48.7492 41.8411 48.2814C41.4053 47.8137 40.8146 47.5506 40.1984 47.5498ZM40.5304 52.8965C40.53 52.9909 40.4949 53.0813 40.4328 53.1481C40.3706 53.2149 40.2863 53.2526 40.1984 53.2529H37.5421C37.4541 53.2529 37.3696 53.2154 37.3073 53.1485C37.2451 53.0817 37.2101 52.991 37.2101 52.8965V50.0449C37.2101 49.9504 37.2451 49.8597 37.3073 49.7929C37.3696 49.726 37.4541 49.6885 37.5421 49.6885H40.1984C40.2863 49.6889 40.3706 49.7265 40.4328 49.7933C40.4949 49.8601 40.53 49.9505 40.5304 50.0449V52.8965ZM20.7188 59.8115H18.0625C17.4463 59.8123 16.8555 60.0754 16.4198 60.5432C15.9841 61.0109 15.739 61.6451 15.7383 62.3066V65.1582C15.739 65.8197 15.9841 66.4539 16.4198 66.9217C16.8555 67.3894 17.4463 67.6526 18.0625 67.6533H20.7188C21.335 67.6526 21.9257 67.3894 22.3614 66.9217C22.7972 66.4539 23.0423 65.8197 23.043 65.1582V62.3066C23.0423 61.6451 22.7972 61.0109 22.3614 60.5432C21.9257 60.0754 21.335 59.8123 20.7188 59.8115ZM21.0508 65.1582C21.0508 65.2527 21.0158 65.3434 20.9535 65.4102C20.8913 65.4771 20.8068 65.5146 20.7188 65.5146H18.0625C17.9744 65.5146 17.89 65.4771 17.8277 65.4102C17.7655 65.3434 17.7305 65.2527 17.7305 65.1582V62.3066C17.7305 62.2121 17.7655 62.1214 17.8277 62.0546C17.89 61.9878 17.9744 61.9502 18.0625 61.9502H20.7188C20.8068 61.9502 20.8913 61.9878 20.9535 62.0546C21.0158 62.1214 21.0508 62.2121 21.0508 62.3066V65.1582ZM30.4579 59.8115H27.8016C27.1854 59.8123 26.5947 60.0754 26.1589 60.5432C25.7232 61.0109 25.4781 61.6451 25.4774 62.3066V65.1582C25.4781 65.8197 25.7232 66.4539 26.1589 66.9217C26.5947 67.3894 27.1854 67.6526 27.8016 67.6533H30.4579C31.0741 67.6526 31.6649 67.3894 32.1006 66.9217C32.5363 66.4539 32.7814 65.8197 32.7821 65.1582V62.3066C32.7814 61.6451 32.5363 61.0109 32.1006 60.5432C31.6649 60.0754 31.0741 59.8123 30.4579 59.8115ZM30.7899 65.1582C30.7899 65.2527 30.7549 65.3434 30.6927 65.4102C30.6304 65.4771 30.546 65.5146 30.4579 65.5146H27.8016C27.7137 65.5143 27.6294 65.4766 27.5672 65.4098C27.5051 65.3431 27.47 65.2526 27.4696 65.1582V62.3066C27.47 62.2122 27.5051 62.1218 27.5672 62.055C27.6294 61.9882 27.7137 61.9506 27.8016 61.9502H30.4579C30.546 61.9502 30.6304 61.9878 30.6927 62.0546C30.7549 62.1214 30.7899 62.2121 30.7899 62.3066V65.1582ZM40.1984 59.8115H37.5421C36.9259 59.8123 36.3351 60.0754 35.8994 60.5432C35.4637 61.0109 35.2186 61.6451 35.2179 62.3066V65.1582C35.2186 65.8197 35.4637 66.4539 35.8994 66.9217C36.3351 67.3894 36.9259 67.6526 37.5421 67.6533H40.1984C40.8146 67.6526 41.4053 67.3894 41.8411 66.9217C42.2768 66.4539 42.5219 65.8197 42.5226 65.1582V62.3066C42.5219 61.6451 42.2768 61.0109 41.8411 60.5432C41.4053 60.0754 40.8146 59.8123 40.1984 59.8115ZM40.5304 65.1582C40.53 65.2526 40.4949 65.3431 40.4328 65.4098C40.3706 65.4766 40.2863 65.5143 40.1984 65.5146H37.5421C37.4541 65.5146 37.3696 65.4771 37.3073 65.4102C37.2451 65.3434 37.2101 65.2527 37.2101 65.1582V62.3066C37.2101 62.2121 37.2451 62.1214 37.3073 62.0546C37.3696 61.9878 37.4541 61.9502 37.5421 61.9502H40.1984C40.2863 61.9506 40.3706 61.9882 40.4328 62.055C40.4949 62.1218 40.53 62.2122 40.5304 62.3066V65.1582ZM49.9375 47.5498H47.2812C46.665 47.5506 46.0743 47.8137 45.6386 48.2814C45.2028 48.7492 44.9577 49.3834 44.957 50.0449V65.1582C44.9577 65.8197 45.2028 66.4539 45.6386 66.9217C46.0743 67.3894 46.665 67.6526 47.2812 67.6533H49.9375C50.5537 67.6526 51.1445 67.3894 51.5802 66.9217C52.0159 66.4539 52.261 65.8197 52.2617 65.1582V50.0449C52.261 49.3834 52.0159 48.7492 51.5802 48.2814C51.1445 47.8137 50.5537 47.5506 49.9375 47.5498ZM50.2695 65.1582C50.2695 65.2527 50.2346 65.3434 50.1723 65.4102C50.11 65.4771 50.0256 65.5146 49.9375 65.5146H47.2812C47.1932 65.5146 47.1087 65.4771 47.0465 65.4102C46.9842 65.3434 46.9492 65.2527 46.9492 65.1582V50.0449C46.9492 49.9504 46.9842 49.8597 47.0465 49.7929C47.1087 49.726 47.1932 49.6885 47.2812 49.6885H49.9375C50.0256 49.6885 50.11 49.726 50.1723 49.7929C50.2346 49.8597 50.2695 49.9504 50.2695 50.0449V65.1582Z" fill="black"/>
</svg>
