<svg width="86" height="88" viewBox="0 0 86 88" fill="none" xmlns="http://www.w3.org/2000/svg">
<path d="M42.9451 7.3335C23.1903 7.3335 7.15747 23.7602 7.15747 44.0002C7.15747 64.2402 23.1903 80.6668 42.9451 80.6668C62.6999 80.6668 78.7328 64.2402 78.7328 44.0002C78.7328 23.7602 62.6999 7.3335 42.9451 7.3335ZM42.9451 77.7335C24.765 77.7335 10.0205 62.6268 10.0205 44.0002C10.0205 25.3735 24.765 10.2668 42.9451 10.2668C61.1253 10.2668 75.8698 25.3735 75.8698 44.0002C75.8698 62.6268 61.1253 77.7335 42.9451 77.7335Z" fill="black"/>
<path d="M36.2171 54.7067L24.4787 42.8267L22.4746 44.88L36.2171 58.96L63.4157 31.0934L61.4116 29.04L36.2171 54.7067Z" fill="black"/>
</svg>
