<svg width="75" height="76" viewBox="0 0 75 76" fill="none" xmlns="http://www.w3.org/2000/svg">
<path d="M69.1943 55.7888L64.28 50.7301C64.2568 50.7063 64.2104 50.6826 64.1872 50.6588C64.1785 50.6402 64.1656 50.6239 64.1494 50.6115C64.1333 50.5991 64.1144 50.5909 64.0945 50.5876L60.8029 47.1913L52.6664 38.8551L68.1743 22.9426C68.7176 22.3931 69.149 21.7386 69.4435 21.017C69.7379 20.2953 69.8895 19.521 69.8895 18.7388C69.8895 17.9567 69.7379 17.1823 69.4435 16.4607C69.149 15.7391 68.7176 15.0845 68.1743 14.5351L59.9915 6.15133C58.8884 5.06566 57.4182 4.45935 55.8886 4.45935C54.359 4.45935 52.8887 5.06566 51.7856 6.15133L40.3112 17.9076L36.2777 22.0638L26.7273 12.2788L26.2869 11.8988L25.9855 11.7801L12.3089 6.38883L4.86794 3.44383C4.66061 3.35984 4.43383 3.33983 4.21553 3.38625C3.99723 3.43267 3.79695 3.5435 3.63937 3.70508C3.47824 3.86927 3.36641 4.07733 3.31711 4.30462C3.26781 4.53192 3.28311 4.76892 3.3612 4.98758L6.21242 12.5638V12.5876L6.28196 12.7301L11.4976 26.6238C11.5719 26.926 11.7434 27.1937 11.9844 27.3838L21.5348 37.1688L15.9019 42.9401C15.8423 42.9806 15.7878 43.0284 15.7397 43.0826L10.9876 47.9751C10.928 48.0155 10.8735 48.0633 10.8254 48.1176L5.88789 53.1763C5.83503 53.2257 5.78832 53.2815 5.74881 53.3426L4.26524 54.8388C3.72193 55.3883 3.29054 56.0428 2.9961 56.7644C2.70167 57.4861 2.55005 58.2604 2.55005 59.0426C2.55005 59.8247 2.70167 60.5991 2.9961 61.3207C3.29054 62.0423 3.72193 62.6969 4.26524 63.2463L12.448 71.6301C12.9843 72.1867 13.6231 72.6287 14.3275 72.9304C15.0318 73.2321 15.7876 73.3874 16.551 73.3874C17.3144 73.3874 18.0702 73.2321 18.7745 72.9304C19.4789 72.6287 20.1177 72.1867 20.654 71.6301L37.9236 53.9601L49.4443 65.7638C49.4675 65.7876 49.4907 65.8351 49.5139 65.8588L54.4514 70.8938C54.984 71.4472 55.6194 71.8857 56.3201 72.1835C57.0208 72.4813 57.7726 72.6323 58.5312 72.6276C59.2929 72.6303 60.0476 72.4785 60.7518 72.1809C61.456 71.8833 62.0957 71.4459 62.6341 70.8938L69.1943 64.1726C70.2771 63.0596 70.8852 61.5522 70.8852 59.9807C70.8852 58.4092 70.2771 56.9018 69.1943 55.7888ZM41.1457 20.4251L43.6028 22.9426C43.8259 23.1356 44.1118 23.2353 44.4035 23.2217C44.6952 23.2081 44.9711 23.0822 45.1761 22.8691C45.3811 22.6561 45.5001 22.3716 45.5092 22.0726C45.5184 21.7736 45.417 21.4821 45.2255 21.2563L42.7683 18.7388L46.06 15.3901L48.5171 17.9076C48.7372 18.1189 49.0268 18.2376 49.3284 18.2401C49.637 18.2378 49.9339 18.1195 50.1629 17.9076C50.3752 17.6807 50.4937 17.3787 50.4937 17.0645C50.4937 16.7502 50.3752 16.4482 50.1629 16.2213L47.6826 13.7038L50.9743 10.3313L56.6999 16.2213C56.8091 16.3342 56.9391 16.4238 57.0824 16.485C57.2256 16.5461 57.3792 16.5776 57.5344 16.5776C57.6861 16.5773 57.8362 16.5457 57.9756 16.4844C58.115 16.4232 58.2409 16.3337 58.3457 16.2213C58.4543 16.1109 58.5406 15.9796 58.5994 15.8349C58.6583 15.6902 58.6886 15.535 58.6886 15.3782C58.6886 15.2214 58.6583 15.0662 58.5994 14.9215C58.5406 14.7768 58.4543 14.6455 58.3457 14.5351L52.6201 8.66883L53.4314 7.81383C54.0834 7.14669 54.9671 6.77196 55.8886 6.77196C56.81 6.77196 57.6938 7.14669 58.3457 7.81383L66.5517 16.2213C67.2028 16.8893 67.5686 17.7948 67.5686 18.7388C67.5686 19.6829 67.2028 20.5884 66.5517 21.2563L51.0206 37.1688L37.9004 23.7263L41.1457 20.4251ZM35.2346 24.3438C35.2661 24.4437 35.3219 24.5336 35.3969 24.6051L35.42 24.6288L36.2314 25.4601L41.957 31.3263C42.0268 31.4031 42.1145 31.4603 42.212 31.4926L49.398 38.8551L50.2093 39.6863L51.0206 40.5176L58.3689 48.0463L56.7231 49.7088L49.398 42.2038H49.3748L48.5635 41.3726V41.3488L47.7522 40.5413V40.5176L34.6319 27.0988V27.0751L33.8206 26.2676V26.2438L33.0093 25.4126H32.9861L27.9327 20.2351V20.2113C27.2804 19.5439 26.9136 18.6383 26.9127 17.6938V15.8176L34.6319 23.7263L35.2346 24.3438ZM50.1629 56.4301L42.8379 48.9251H42.8147L42.0033 48.0938V48.0701L41.192 47.2626V47.2388L28.0718 33.8201V33.7963L27.2605 32.9888V32.9651L26.4491 32.1338H26.4259L21.3726 26.9326L21.303 26.8613C20.6975 26.1972 20.3582 25.3239 20.3526 24.4151V22.0401C20.3526 21.7251 20.4747 21.4231 20.6921 21.2004C20.9095 20.9777 21.2043 20.8526 21.5117 20.8526H23.8297C24.7071 20.8499 25.5525 21.1895 26.1941 21.8026L26.2869 21.8976L31.3634 27.0988L32.1748 27.9301L32.1284 27.9776L32.9397 28.8088L32.9861 28.7613L46.1063 42.2038L46.9176 43.0351L47.7522 43.8901L55.0772 51.3951L50.1629 56.4301ZM10.3618 8.17008C9.79916 9.20193 8.96347 10.0499 7.95097 10.6163L6.46741 6.62633L10.3618 8.17008ZM12.5639 9.02508L24.5947 13.7751V17.6938C24.5948 17.9803 24.618 18.2663 24.6642 18.5488C24.3885 18.5015 24.1093 18.4777 23.8297 18.4776H21.5117C20.5895 18.4776 19.7051 18.8529 19.053 19.521C18.4009 20.1891 18.0346 21.0952 18.0346 22.0401V24.4151C18.0347 24.7016 18.0579 24.9875 18.1041 25.2701C17.8283 25.2228 17.5492 25.1989 17.2696 25.1988H13.4448L8.80865 12.8488C10.4172 12.0041 11.7295 10.6679 12.5639 9.02508ZM19.0081 69.9676C18.3427 70.6081 17.464 70.9647 16.551 70.9647C15.6379 70.9647 14.7592 70.6081 14.0938 69.9676L5.88789 61.5601C5.23674 60.8921 4.871 59.9866 4.871 59.0426C4.871 58.0985 5.23674 57.193 5.88789 56.5251L6.72239 55.6938L12.448 61.5601C12.555 61.6728 12.6829 61.7625 12.8242 61.8237C12.9656 61.8849 13.1175 61.9164 13.2709 61.9164C13.4244 61.9164 13.5763 61.8849 13.7176 61.8237C13.859 61.7625 13.9869 61.6728 14.0938 61.5601C14.3061 61.3332 14.4246 61.0312 14.4246 60.7169C14.4246 60.4027 14.3061 60.1007 14.0938 59.8738L8.34504 54.0076L11.6367 50.6351L14.0938 53.1763C14.3139 53.3876 14.6036 53.5063 14.9052 53.5088C15.2137 53.5065 15.5107 53.3882 15.7397 53.1763C15.9519 52.9495 16.0704 52.6474 16.0704 52.3332C16.0704 52.019 15.9519 51.7169 15.7397 51.4901L13.2825 48.9726L16.551 45.6001L19.0081 48.1176C19.2221 48.3413 19.5137 48.4694 19.8195 48.4738C19.9746 48.4738 20.1283 48.4423 20.2715 48.3812C20.4147 48.3201 20.5447 48.2305 20.654 48.1176C20.8663 47.8956 20.9853 47.5972 20.9853 47.2863C20.9853 46.9755 20.8663 46.6771 20.654 46.4551L18.1968 43.9376L23.1575 38.8313L36.2777 52.2738L19.0081 69.9676ZM38.7349 51.4426L37.9236 50.6113L24.8033 37.1688L23.992 36.3376L23.1575 35.4826L15.4383 27.5738H17.2696C18.1915 27.5747 19.0753 27.9505 19.7267 28.6188L24.8033 33.8201L25.406 34.4376C25.4374 34.5375 25.4932 34.6274 25.5683 34.6988L26.3796 35.5301L28.8367 38.0476C28.9065 38.1244 28.9943 38.1816 29.0917 38.2138L39.5462 48.9251L40.3575 49.7563L41.192 50.6113L48.5171 58.1163L46.8945 59.8026L39.5462 52.2738L38.7349 51.4426ZM48.5171 61.4651L50.9047 58.9951L51.0206 58.8763L57.4648 52.2738L57.5807 52.1551L59.9915 49.7088L61.8228 51.5851L50.3484 63.3413L48.5171 61.4651ZM67.5484 62.4863L60.9883 69.2076C60.6669 69.5405 60.2842 69.8048 59.8625 69.9851C59.4407 70.1655 58.9882 70.2584 58.5312 70.2584C58.0741 70.2584 57.6216 70.1655 57.1999 69.9851C56.7781 69.8048 56.3954 69.5405 56.074 69.2076L51.971 65.0038L63.4455 53.2476L67.5484 57.4513C67.8734 57.7806 68.1313 58.1727 68.3073 58.6048C68.4834 59.037 68.574 59.5006 68.574 59.9688C68.574 60.4371 68.4834 60.9007 68.3073 61.3328C68.1313 61.765 67.8734 62.157 67.5484 62.4863Z" fill="black"/>
</svg>
