<svg width="74" height="75" viewBox="0 0 74 75" fill="none" xmlns="http://www.w3.org/2000/svg">
<path d="M27.7725 31.311C25.0989 31.311 22.4182 31.311 19.7446 31.311C15.8986 31.311 12.0527 31.311 8.21385 31.311C7.80637 31.311 7.3989 31.311 6.99858 31.311C6.94139 31.311 6.89135 31.311 6.83416 31.311C6.79842 31.311 6.76982 31.311 6.73408 31.311C6.56966 31.2964 6.59825 31.3037 6.81986 31.333C6.80557 31.3477 6.61255 31.2891 6.58396 31.2817C6.55536 31.2744 6.3552 31.2305 6.3552 31.2085C6.41239 31.2305 6.46958 31.2598 6.51962 31.2817C6.46243 31.2524 6.40524 31.2231 6.3552 31.1938C6.32661 31.1792 6.1193 31.0693 6.1193 31.04C6.16934 31.0767 6.21223 31.1133 6.26227 31.1499C6.21223 31.106 6.16934 31.062 6.12644 31.0181C6.13359 31.0254 5.99777 30.8862 5.99777 30.8789C6.1193 31.0547 6.14074 31.0767 6.04781 30.9448C6.01207 30.8936 5.97632 30.835 5.94773 30.7837C5.93343 30.7544 5.91913 30.7251 5.90484 30.6958C5.8405 30.5493 5.84765 30.5786 5.93343 30.7837C5.91199 30.7837 5.8548 30.5273 5.84765 30.5054C5.84765 30.52 5.79761 30.3149 5.8119 30.3076C5.81905 30.3735 5.83335 30.4321 5.8405 30.498C5.83335 30.4321 5.83335 30.3589 5.83335 30.293C5.83335 30.2783 5.83335 30.2637 5.83335 30.249C5.83335 30.1392 5.83335 30.022 5.83335 29.9121C5.83335 29.3848 5.83335 28.8647 5.83335 28.3374C5.83335 24.2871 5.83335 20.2295 5.83335 16.1792C5.83335 14.3701 5.83335 12.561 5.83335 10.752C5.83335 10.2393 5.83335 9.72656 5.83335 9.21387C5.83335 9.104 5.83335 8.98682 5.83335 8.87695C5.83335 8.8623 5.83335 8.84766 5.83335 8.84033C5.83335 8.80371 5.83335 8.77441 5.83335 8.73779C5.84765 8.60596 5.8405 8.60596 5.8262 8.73047C5.81905 8.75977 5.81905 8.79639 5.8119 8.82568C5.81905 8.75977 5.83335 8.69385 5.84765 8.62793C5.8548 8.59863 5.91199 8.34961 5.93343 8.34961C5.84765 8.54736 5.8405 8.57666 5.90484 8.4375C5.93343 8.37891 5.96203 8.32764 5.99777 8.26904C6.01207 8.23975 6.03351 8.21777 6.04781 8.18848C6.1193 8.08594 6.1193 8.08594 6.04781 8.18115C6.02636 8.20312 6.01207 8.23242 5.99062 8.25439C6.03351 8.20312 6.0764 8.15918 6.1193 8.11523C6.14074 8.09326 6.16219 8.07129 6.18363 8.04932C6.29801 7.94678 6.27657 7.96143 6.11215 8.09326C6.11215 8.06396 6.31946 7.9541 6.34805 7.93945C6.37665 7.9248 6.40524 7.91016 6.43384 7.89551C6.57681 7.82959 6.54821 7.83691 6.34805 7.9248C6.39094 7.9248 6.47673 7.88086 6.52677 7.86621C6.55536 7.85889 6.79842 7.77832 6.81271 7.80029C6.59111 7.82959 6.56251 7.83691 6.72693 7.82227C6.76267 7.82227 6.79127 7.82227 6.82701 7.82227C6.8842 7.82227 6.94854 7.82227 7.00573 7.82227C7.42035 7.82227 7.83497 7.82227 8.24959 7.82227C9.94382 7.82227 11.6309 7.82227 13.3251 7.82227C17.357 7.82227 21.3816 7.82227 25.4135 7.82227C26.1998 7.82227 26.9933 7.80762 27.7797 7.82227C27.8154 7.82227 27.844 7.82227 27.8798 7.82227C28.0442 7.83691 28.0156 7.82959 27.794 7.80029C27.8083 7.77832 28.0513 7.85889 28.0799 7.86621C28.1085 7.87354 28.1443 7.88818 28.1728 7.89551C28.3158 7.9541 28.2944 7.93945 28.0942 7.85889C28.1085 7.84424 28.2801 7.96143 28.3015 7.96875C28.3301 7.9834 28.4945 8.07129 28.4945 8.10059C28.4445 8.06396 28.4016 8.02734 28.3516 7.99072C28.4016 8.03467 28.4445 8.07861 28.4874 8.12256C28.5088 8.14453 28.5303 8.1665 28.5517 8.18848C28.6518 8.30566 28.6375 8.28369 28.5088 8.11523C28.5589 8.11523 28.6804 8.40088 28.709 8.44482C28.8305 8.64258 28.6518 8.35693 28.6804 8.35693C28.7018 8.35693 28.759 8.61328 28.7662 8.63525C28.7733 8.66455 28.7805 8.70117 28.7876 8.73047C28.8162 8.8916 28.8091 8.8623 28.7805 8.63525C28.7876 8.63525 28.7876 8.84033 28.7876 8.84033C28.7876 8.85498 28.7876 8.87695 28.7876 8.8916C28.7876 9.22119 28.7876 9.55811 28.7876 9.8877C28.7876 13.6963 28.7876 17.5049 28.7876 21.3135C28.7876 24.2944 28.8234 27.2754 28.7876 30.2563C28.7876 30.271 28.7876 30.2856 28.7876 30.293C28.7876 30.3296 28.7876 30.3589 28.7876 30.3955C28.7733 30.564 28.7805 30.5347 28.8091 30.3076C28.8305 30.3223 28.7519 30.5713 28.7447 30.6006C28.7376 30.6372 28.6161 30.9229 28.7161 30.7031C28.8162 30.4761 28.6804 30.7617 28.6661 30.791C28.6518 30.8203 28.5446 31.0327 28.516 31.0327C28.5517 30.9814 28.5875 30.9375 28.6232 30.8862C28.5803 30.9375 28.5374 30.9814 28.4945 31.0254C28.4731 31.0474 28.4516 31.0693 28.4302 31.0913C28.3158 31.1938 28.3373 31.1792 28.5017 31.0474C28.5017 31.062 28.373 31.1426 28.3444 31.1572C28.323 31.1719 28.1085 31.311 28.0942 31.2964C28.1514 31.2744 28.2086 31.2451 28.2586 31.2231C28.2014 31.2451 28.1371 31.2671 28.0799 31.2817C28.0513 31.2891 27.8083 31.3696 27.794 31.3477C27.8583 31.3403 27.9155 31.3257 27.9798 31.3184C27.9083 31.311 27.844 31.311 27.7725 31.311C27.0219 31.3257 26.3071 31.9702 26.3428 32.7759C26.3785 33.5596 26.9719 34.2554 27.7725 34.2407C29.9028 34.1968 31.597 32.4683 31.6328 30.2856C31.6399 30.0366 31.6328 29.7949 31.6328 29.5459C31.6328 27.9932 31.6328 26.4478 31.6328 24.895C31.6328 20.5811 31.6328 16.2744 31.6328 11.9604C31.6328 10.9277 31.6471 9.89502 31.6328 8.8623C31.6113 7.14111 30.5891 5.66162 29.0092 5.08301C28.4659 4.88525 27.894 4.87061 27.3293 4.87061C23.8193 4.87061 20.3093 4.87061 16.7994 4.87061C13.5324 4.87061 10.2584 4.87061 6.99143 4.87061C5.8548 4.87061 4.73246 5.27344 3.96756 6.16699C3.26699 6.97998 2.96675 7.96875 2.96675 9.03809C2.96675 10.2905 2.96675 11.543 2.96675 12.7954C2.96675 17.1387 2.96675 21.4819 2.96675 25.8252C2.96675 27.1875 2.96675 28.5498 2.96675 29.9121C2.96675 30.6665 3.05968 31.3843 3.38852 32.0728C4.03189 33.4277 5.44018 34.2188 6.8842 34.2334C9.97241 34.2554 13.0678 34.2334 16.156 34.2334C19.8161 34.2334 23.4762 34.2334 27.1291 34.2334C27.3436 34.2334 27.5581 34.2334 27.7654 34.2334C28.516 34.2334 29.2308 33.5596 29.1951 32.7686C29.1665 31.9849 28.5732 31.311 27.7725 31.311ZM27.7725 40.7593C24.9917 40.7593 22.2109 40.7593 19.4301 40.7593C15.5841 40.7593 11.7381 40.7593 7.89216 40.7593C7.55617 40.7593 7.22019 40.7593 6.8842 40.7593C5.22572 40.7739 3.81029 41.7847 3.2098 43.3521C2.82377 44.3701 2.96675 45.6812 2.96675 46.7578C2.96675 50.918 2.96675 55.0781 2.96675 59.2456C2.96675 61.04 2.96675 62.8418 2.96675 64.6362C2.96675 65.0903 2.96675 65.5371 2.96675 65.9912C2.96675 67.1045 3.31703 68.1738 4.09623 68.9722C4.88258 69.7778 5.92628 70.1294 7.02002 70.1294C7.45609 70.1294 7.89216 70.1294 8.32108 70.1294C10.0725 70.1294 11.8311 70.1294 13.5825 70.1294C17.6572 70.1294 21.7391 70.1294 25.8138 70.1294C27.0219 70.1294 28.3087 70.2612 29.4382 69.7339C30.8035 69.0967 31.6185 67.6318 31.6328 66.123C31.6328 65.7788 31.6328 65.4346 31.6328 65.0903C31.6328 61.1499 31.6328 57.2095 31.6328 53.269C31.6328 50.4199 31.6828 47.5708 31.6328 44.7217C31.597 42.5317 29.9028 40.8032 27.7725 40.7593C27.0219 40.7446 26.3071 41.4478 26.3428 42.2241C26.3785 43.0298 26.9719 43.6743 27.7725 43.689C27.8083 43.689 27.8369 43.689 27.8726 43.689C28.037 43.7036 28.0084 43.6963 27.7868 43.667C27.8011 43.645 28.0442 43.7256 28.0728 43.7329C28.1014 43.7402 28.1371 43.7549 28.1657 43.7622C28.3087 43.8208 28.2872 43.8062 28.0871 43.7256C28.1014 43.7109 28.2729 43.8281 28.2944 43.8354C28.323 43.8501 28.4874 43.938 28.4874 43.9673C28.4373 43.9307 28.3945 43.894 28.3444 43.8574C28.3945 43.9014 28.4373 43.9453 28.4802 43.9893C28.5017 44.0112 28.5231 44.0332 28.5446 44.0552C28.6447 44.1724 28.6304 44.1504 28.5017 43.9819C28.5517 43.9819 28.6733 44.2676 28.7018 44.3115C28.8234 44.5093 28.6447 44.2236 28.6733 44.2236C28.6947 44.2236 28.7519 44.48 28.759 44.502C28.7662 44.5312 28.7733 44.5679 28.7805 44.5972C28.8091 44.7583 28.8019 44.729 28.7733 44.502C28.7805 44.502 28.7805 44.707 28.7805 44.707C28.7805 44.7217 28.7805 44.7437 28.7805 44.7583C28.7805 45.0879 28.7805 45.4248 28.7805 45.7544C28.7805 47.3657 28.7805 48.9697 28.7805 50.5811C28.7805 54.7852 28.7805 58.9819 28.7805 63.186C28.7805 64.1675 28.7948 65.1416 28.7805 66.123C28.7805 66.1377 28.7805 66.1523 28.7805 66.1597C28.7805 66.1963 28.7805 66.2256 28.7805 66.2622C28.7662 66.4307 28.7733 66.4014 28.8019 66.1743C28.8234 66.189 28.7447 66.438 28.7376 66.4673C28.7304 66.5039 28.6089 66.7896 28.709 66.5698C28.8091 66.3428 28.6304 66.7017 28.6089 66.7383C28.5946 66.7676 28.5732 66.7896 28.5589 66.8188C28.4731 66.9434 28.4874 66.9214 28.6089 66.7529C28.6161 66.7676 28.4302 66.9434 28.4159 66.958C28.2086 67.1924 28.6804 66.8042 28.4159 66.9653C28.3587 66.9946 28.3087 67.0312 28.2586 67.0679C28.23 67.0825 28.2014 67.0972 28.1728 67.1118C28.0299 67.1777 28.0585 67.1704 28.2586 67.0825C28.2586 67.1045 28.0084 67.1631 27.987 67.1704C27.9584 67.1777 27.9226 67.1851 27.894 67.1924C27.7368 67.2217 27.7654 67.2144 27.987 67.1851C27.9584 67.1704 27.8297 67.1924 27.7868 67.1924C27.5581 67.1997 27.3222 67.1924 27.0934 67.1924C23.5262 67.1924 19.9519 67.1924 16.3847 67.1924C13.2536 67.1924 10.1225 67.1924 6.99143 67.1924C6.90565 67.1924 6.81986 67.1924 6.74123 67.1924C6.40524 67.1997 7.04862 67.2729 6.73408 67.1997C6.66974 67.1851 6.6054 67.1704 6.54821 67.1558C6.51962 67.1484 6.48388 67.1338 6.45528 67.1265C6.31231 67.0679 6.33376 67.0825 6.53392 67.1631C6.51962 67.1777 6.30516 67.0386 6.28371 67.0239C6.25512 67.0093 6.23367 66.9873 6.20508 66.9727C6.08355 66.8848 6.105 66.8994 6.26942 67.0239C6.25512 67.0312 6.08355 66.8408 6.06926 66.8262C5.90484 66.6724 6.14789 66.8994 6.11215 66.8994C6.06211 66.8994 5.94058 66.6138 5.91198 66.5698C5.74757 66.2988 5.98347 66.8774 5.91198 66.5625C5.89054 66.4673 5.86194 66.3721 5.8405 66.2769C5.77616 66.0498 5.87624 66.3794 5.84765 66.3721C5.8405 66.3721 5.8405 66.167 5.8405 66.167C5.8405 66.1523 5.8405 66.1304 5.8405 66.1157C5.8405 65.9985 5.8405 65.8813 5.8405 65.7642C5.8405 64.4165 5.8405 63.0688 5.8405 61.7212C5.8405 57.4731 5.8405 53.2324 5.8405 48.9844C5.8405 47.6807 5.8405 46.377 5.8405 45.0806C5.8405 44.9707 5.8405 44.8608 5.8405 44.751C5.8405 44.707 5.8405 44.6558 5.8405 44.6191C5.83335 44.3188 5.8405 44.7217 5.81905 44.707C5.79761 44.6924 5.87624 44.4434 5.88339 44.4141C5.89054 44.3848 5.90484 44.3481 5.91198 44.3188C5.96917 44.1724 5.95488 44.1943 5.87624 44.3994C5.8548 44.3774 6.04066 44.0991 6.06211 44.0625C6.20508 43.8208 6.01921 44.1431 6.01207 44.1284C6.00492 44.1138 6.19078 43.938 6.20508 43.9233C6.41239 43.689 5.94058 44.0771 6.20508 43.916C6.28371 43.8647 6.3695 43.8208 6.44813 43.7695C6.71263 43.6011 6.14789 43.8428 6.45528 43.7695C6.51962 43.7549 6.57681 43.7329 6.64115 43.7183C6.66974 43.7109 6.70548 43.7036 6.73408 43.6963C6.89135 43.667 6.86275 43.6743 6.64115 43.7036C6.64115 43.6963 6.84131 43.6963 6.84131 43.6963C6.90565 43.6963 6.96998 43.6963 7.03432 43.6963C10.2226 43.6963 13.4109 43.6963 16.5992 43.6963C20.1235 43.6963 23.6478 43.6963 27.172 43.6963C27.3793 43.6963 27.5795 43.6963 27.7868 43.6963C28.5374 43.6963 29.2523 43.0225 29.2165 42.2314C29.1665 41.4331 28.5732 40.7593 27.7725 40.7593ZM37.7377 14.2676C38.7743 14.2676 39.8037 14.2676 40.8402 14.2676C43.3065 14.2676 45.7799 14.2676 48.2462 14.2676C51.2415 14.2676 54.2439 14.2676 57.2392 14.2676C59.8199 14.2676 62.4005 14.2676 64.9812 14.2676C66.2393 14.2676 67.4975 14.3042 68.7557 14.2676C68.7771 14.2676 68.7914 14.2676 68.8129 14.2676C69.5635 14.2676 70.2783 13.5938 70.2426 12.8027C70.2068 12.0117 69.6135 11.3379 68.8129 11.3379C67.7763 11.3379 66.7469 11.3379 65.7103 11.3379C63.2441 11.3379 60.7706 11.3379 58.3044 11.3379C55.3091 11.3379 52.3066 11.3379 49.3114 11.3379C46.7307 11.3379 44.1501 11.3379 41.5694 11.3379C40.3112 11.3379 39.0531 11.3013 37.7949 11.3379C37.7735 11.3379 37.7592 11.3379 37.7377 11.3379C36.9871 11.3379 36.2723 12.0117 36.308 12.8027C36.3437 13.5938 36.9371 14.2676 37.7377 14.2676ZM57.5823 24.8438C55.3377 24.8438 53.1002 24.8438 50.8555 24.8438C47.2955 24.8438 43.7426 24.8438 40.1826 24.8438C39.3676 24.8438 38.5527 24.8438 37.7377 24.8438C36.9871 24.8438 36.2723 25.5176 36.308 26.3086C36.3437 27.0996 36.9371 27.7734 37.7377 27.7734C39.9824 27.7734 42.2199 27.7734 44.4646 27.7734C48.0246 27.7734 51.5775 27.7734 55.1375 27.7734C55.9525 27.7734 56.7674 27.7734 57.5823 27.7734C58.333 27.7734 59.0478 27.0996 59.0121 26.3086C58.9763 25.5176 58.383 24.8438 57.5823 24.8438ZM37.7377 50.1562C38.7743 50.1562 39.8037 50.1562 40.8402 50.1562C43.3065 50.1562 45.7799 50.1562 48.2462 50.1562C51.2415 50.1562 54.2439 50.1562 57.2392 50.1562C59.8199 50.1562 62.4005 50.1562 64.9812 50.1562C66.2393 50.1562 67.4975 50.1929 68.7557 50.1562C68.7771 50.1562 68.7914 50.1562 68.8129 50.1562C69.5635 50.1562 70.2783 49.4824 70.2426 48.6914C70.2068 47.9004 69.6135 47.2266 68.8129 47.2266C67.7763 47.2266 66.7469 47.2266 65.7103 47.2266C63.2441 47.2266 60.7706 47.2266 58.3044 47.2266C55.3091 47.2266 52.3066 47.2266 49.3114 47.2266C46.7307 47.2266 44.1501 47.2266 41.5694 47.2266C40.3112 47.2266 39.0531 47.1899 37.7949 47.2266C37.7735 47.2266 37.7592 47.2266 37.7377 47.2266C36.9871 47.2266 36.2723 47.9004 36.308 48.6914C36.3437 49.4824 36.9371 50.1562 37.7377 50.1562ZM57.5823 60.7324C55.3377 60.7324 53.1002 60.7324 50.8555 60.7324C47.2955 60.7324 43.7426 60.7324 40.1826 60.7324C39.3676 60.7324 38.5527 60.7324 37.7377 60.7324C36.9871 60.7324 36.2723 61.4062 36.308 62.1973C36.3437 62.9883 36.9371 63.6621 37.7377 63.6621C39.9824 63.6621 42.2199 63.6621 44.4646 63.6621C48.0246 63.6621 51.5775 63.6621 55.1375 63.6621C55.9525 63.6621 56.7674 63.6621 57.5823 63.6621C58.333 63.6621 59.0478 62.9883 59.0121 62.1973C58.9763 61.4062 58.383 60.7324 57.5823 60.7324Z" fill="black"/>
</svg>
