<svg width="71" height="72" viewBox="0 0 71 72" fill="none" xmlns="http://www.w3.org/2000/svg">
<g clip-path="url(#clip0_205_7277)">
<path d="M68.0225 58.5562L53.1442 43.3169C53.3881 42.8 53.4999 42.228 53.4692 41.6547C53.4384 41.0813 53.266 40.5254 52.9681 40.0389C52.6703 39.5525 52.2567 39.1516 51.7663 38.8737C51.2758 38.5958 50.7245 38.4501 50.1641 38.4502C49.7282 38.4491 49.2965 38.5366 48.8939 38.7077C48.4913 38.8788 48.1258 39.1301 47.8187 39.4469L45.5019 41.8184L40.7606 36.9404L51.6926 24.8174L54.901 22.2614C55.5729 23.055 56.1563 23.9228 56.6403 24.8489C57.9517 27.4864 58.501 30.4526 58.2236 33.3989C58.2028 33.6431 58.2604 33.8876 58.3876 34.0952C58.5148 34.3028 58.7047 34.4621 58.9285 34.5489C59.1522 34.6358 59.3975 34.6454 59.627 34.5763C59.8565 34.5072 60.0578 34.3632 60.2001 34.1662C62.0519 31.6361 63.1501 28.6114 63.3624 25.4564C63.8785 16.8907 56.7018 10.6064 54.7495 9.37793L54.3827 9.15293C53.3453 8.55283 52.371 7.84484 51.4751 7.04018C49.8784 5.40431 48.4344 3.61904 47.1621 1.70768C47.0709 1.57136 46.9516 1.45729 46.8125 1.37358C46.6735 1.28986 46.5182 1.23856 46.3576 1.22331C46.197 1.20806 46.0351 1.22924 45.8834 1.28534C45.7317 1.34145 45.5939 1.4311 45.4799 1.54793L38.29 8.91443C38.1545 9.05366 38.057 9.22684 38.0072 9.41672C37.9574 9.60659 37.957 9.80653 38.0061 9.9966C38.0552 10.1867 38.152 10.3602 38.287 10.5C38.422 10.6398 38.5903 10.7408 38.7753 10.7932C41.0153 11.4254 44.8584 12.9914 45.6446 14.5034C46.359 15.9712 46.4843 17.6672 45.9938 19.2284L34.258 30.2849L23.2579 19.0079L21.7668 11.4052C21.7122 11.1209 21.5555 10.868 21.3276 10.6964L10.4571 2.73143C10.2408 2.57314 9.97673 2.49849 9.7118 2.52073C9.44686 2.54298 9.19819 2.66067 9.00991 2.85293L2.78627 9.22493C2.59749 9.41709 2.48166 9.67183 2.45953 9.94353C2.4374 10.2152 2.51041 10.4861 2.66548 10.7077L10.4395 21.8452C10.6065 22.0792 10.8536 22.2399 11.1313 22.2952L18.5518 23.8252L29.3586 34.8974L2.03961 60.6689C1.09353 61.559 0.432257 62.7215 0.142612 64.0036C-0.147034 65.2857 -0.0515177 66.6276 0.416621 67.8531C0.884759 69.0786 1.70364 70.1304 2.76576 70.8705C3.82787 71.6105 5.08359 72.0042 6.36804 71.9999H6.52177C7.37458 71.9836 8.21524 71.7897 8.99259 71.43C9.76994 71.0703 10.4677 70.5522 11.0435 69.9074L36.2499 41.9399L40.8177 46.6199L38.503 48.9914C37.9406 49.5524 37.5922 50.3007 37.5205 51.1015C37.4488 51.9023 37.6586 52.703 38.112 53.3594C38.5654 54.0158 39.2327 54.4848 39.9937 54.6818C40.7547 54.8789 41.5593 54.7911 42.2627 54.4342L57.1542 69.6914C57.8632 70.4436 58.7113 71.0435 59.6491 71.4562C60.5868 71.8689 61.5954 72.0862 62.616 72.0953C63.6365 72.1044 64.6487 71.9051 65.5933 71.5091C66.5379 71.1132 67.3961 70.5284 68.1177 69.789C68.8394 69.0496 69.4101 68.1704 69.7966 67.2026C70.1831 66.2348 70.3776 65.1978 70.3687 64.1521C70.3598 63.1065 70.1478 62.0732 69.745 61.1124C69.3421 60.1516 68.7566 59.2826 68.0225 58.5562ZM41.1185 9.19793L46.1168 4.07918C47.2743 5.75101 48.5839 7.30671 50.0279 8.72543C51.0281 9.62301 52.1149 10.4138 53.2715 11.0857L53.6119 11.2949C55.2172 12.2984 61.6188 17.9437 61.173 25.3102C61.0854 26.6893 60.7929 28.0467 60.3055 29.3354C59.8603 25.781 58.2761 22.4786 55.8014 19.9462C55.6123 19.7517 55.3604 19.6348 55.093 19.6174C54.8257 19.5999 54.5613 19.6833 54.3498 19.8517L51.0403 22.4887L48.1854 19.5637C48.7362 17.5221 48.5224 15.3433 47.5859 13.4549C46.5362 11.4367 43.2267 9.96293 41.1185 9.19793ZM46.8964 21.4267L49.424 24.0164L39.1904 35.3654L35.7953 31.8937L46.8964 21.4267ZM9.42496 68.3819C9.0484 68.8032 8.59222 69.1417 8.0841 69.3769C7.57598 69.612 7.02652 69.7389 6.46906 69.7499C5.90483 69.7617 5.34398 69.6579 4.81943 69.4446C4.29487 69.2313 3.81717 68.9129 3.41434 68.5079C3.01764 68.0982 2.70528 67.6109 2.49579 67.0752C2.2863 66.5394 2.18395 65.966 2.19481 65.3889C2.20566 64.8119 2.3295 64.243 2.55898 63.7159C2.78846 63.1888 3.11891 62.7142 3.53073 62.3204L30.9332 36.4769L34.7104 40.3312L9.42496 68.3819ZM37.0273 39.4829C36.9936 39.4568 36.9584 39.4327 36.9218 39.4109L31.827 34.2134C31.8057 34.176 31.7823 34.1399 31.7567 34.1054L19.898 21.9554C19.7413 21.795 19.5419 21.6854 19.3248 21.6404L12.0075 20.1329L5.05041 10.1587L9.91468 5.17493L19.652 12.3074L21.1212 19.7999C21.1663 20.0224 21.2739 20.2265 21.4308 20.3872L33.4213 32.6722C33.455 32.6983 33.4902 32.7223 33.5267 32.7442L38.3581 37.6942C38.3793 37.7316 38.4028 37.7677 38.4283 37.8022L43.9207 43.4452L43.1652 44.2192L42.4054 44.9999L37.0273 39.4829ZM41.606 52.1729C41.4016 52.3607 41.1348 52.4612 40.8603 52.4536C40.5858 52.4461 40.3246 52.3311 40.1303 52.1323C39.936 51.9336 39.8234 51.6661 39.8157 51.3849C39.8079 51.1037 39.9056 50.8301 40.0886 50.6204L43.1982 47.4344L46.2946 44.2619L49.4108 41.0737C49.5106 40.9714 49.6291 40.8904 49.7595 40.8352C49.8898 40.78 50.0296 40.7517 50.1707 40.7519C50.3821 40.7531 50.5886 40.8181 50.7641 40.9389C50.9396 41.0598 51.0764 41.231 51.1573 41.4312C51.2382 41.6313 51.2596 41.8515 51.2189 42.0641C51.1782 42.2767 51.0771 42.4722 50.9283 42.6262L41.606 52.1729ZM66.4677 68.1007C65.4219 69.1233 64.0318 69.6939 62.5861 69.6939C61.1405 69.6939 59.7504 69.1233 58.7046 68.1007L43.969 53.0054L51.7321 45.0494L66.4677 60.1469C67.4969 61.2018 68.0751 62.6323 68.0751 64.1238C68.0751 65.6154 67.4969 67.0458 66.4677 68.1007ZM51.1984 50.3257C50.9913 50.1208 50.714 50.0074 50.4261 50.0099C50.1382 50.0125 49.8628 50.1308 49.6592 50.3394C49.4556 50.548 49.3401 50.8301 49.3376 51.1251C49.3351 51.4201 49.4458 51.7043 49.6458 51.9164L63.6216 66.2354C63.8287 66.4404 64.106 66.5537 64.3939 66.5512C64.6818 66.5486 64.9572 66.4303 65.1608 66.2217C65.3644 66.0131 65.4799 65.731 65.4824 65.436C65.4849 65.141 65.3742 64.8569 65.1742 64.6447L51.1984 50.3257Z" fill="black"/>
</g>
<defs>
<clipPath id="clip0_205_7277">
<rect width="70.274" height="72" fill="white"/>
</clipPath>
</defs>
</svg>
