<svg width="32" height="32" viewBox="0 0 32 32" fill="none" xmlns="http://www.w3.org/2000/svg">
<g clip-path="url(#clip0_599_3019)">
<path d="M22.6323 15.1562C23.3462 14.2843 23.7865 13.2209 23.898 12.0995C24.2439 8.52297 21.4375 5.5 17.9416 5.5H8.59375C8.39484 5.5 8.20407 5.57902 8.06342 5.71967C7.92277 5.86032 7.84375 6.05109 7.84375 6.25V8.5C7.84375 8.69891 7.92277 8.88968 8.06342 9.03033C8.20407 9.17098 8.39484 9.25 8.59375 9.25H10.0877V22.75H8.59375C8.39484 22.75 8.20407 22.829 8.06342 22.9697C7.92277 23.1103 7.84375 23.3011 7.84375 23.5V25.75C7.84375 25.9489 7.92277 26.1397 8.06342 26.2803C8.20407 26.421 8.39484 26.5 8.59375 26.5H18.4056C21.7244 26.5 24.6934 24.0742 25.015 20.7625C25.2372 18.4914 24.2467 16.4472 22.6323 15.1562ZM13.8278 9.25H17.9416C18.5383 9.25 19.1106 9.48705 19.5326 9.90901C19.9545 10.331 20.1916 10.9033 20.1916 11.5C20.1916 12.0967 19.9545 12.669 19.5326 13.091C19.1106 13.5129 18.5383 13.75 17.9416 13.75H13.8278V9.25ZM17.9416 22.75H13.8278V17.5H17.9416C18.6378 17.5 19.3054 17.7766 19.7977 18.2688C20.29 18.7611 20.5666 19.4288 20.5666 20.125C20.5666 20.8212 20.29 21.4889 19.7977 21.9812C19.3054 22.4734 18.6378 22.75 17.9416 22.75Z" fill="black"/>
</g>
<defs>
<clipPath id="clip0_599_3019">
<rect width="18" height="24" fill="white" transform="translate(7 4)"/>
</clipPath>
</defs>
</svg>
