<svg width="32" height="32" viewBox="0 0 32 32" fill="none" xmlns="http://www.w3.org/2000/svg">
<path d="M24 6.25V7.75C24 7.94891 23.921 8.13968 23.7803 8.28033C23.6397 8.42098 23.4489 8.5 23.25 8.5H20.3081L16.5581 23.5H18.75C18.9489 23.5 19.1397 23.579 19.2803 23.7197C19.421 23.8603 19.5 24.0511 19.5 24.25V25.75C19.5 25.9489 19.421 26.1397 19.2803 26.2803C19.1397 26.421 18.9489 26.5 18.75 26.5H9.75C9.55109 26.5 9.36032 26.421 9.21967 26.2803C9.07902 26.1397 9 25.9489 9 25.75V24.25C9 24.0511 9.07902 23.8603 9.21967 23.7197C9.36032 23.579 9.55109 23.5 9.75 23.5H12.6919L16.4419 8.5H14.25C14.0511 8.5 13.8603 8.42098 13.7197 8.28033C13.579 8.13968 13.5 7.94891 13.5 7.75V6.25C13.5 6.05109 13.579 5.86032 13.7197 5.71967C13.8603 5.57902 14.0511 5.5 14.25 5.5H23.25C23.4489 5.5 23.6397 5.57902 23.7803 5.71967C23.921 5.86032 24 6.05109 24 6.25Z" fill="black"/>
</svg>
