<svg width="32" height="32" viewBox="0 0 32 32" fill="none" xmlns="http://www.w3.org/2000/svg">
<path d="M27 6.25V7.75C27 7.94891 26.921 8.13968 26.7803 8.28033C26.6397 8.42098 26.4489 8.5 26.25 8.5H24V25.75C24 25.9489 23.921 26.1397 23.7803 26.2803C23.6397 26.421 23.4489 26.5 23.25 26.5H21.75C21.5511 26.5 21.3603 26.421 21.2197 26.2803C21.079 26.1397 21 25.9489 21 25.75V8.5H19.5V25.75C19.5 25.9489 19.421 26.1397 19.2803 26.2803C19.1397 26.421 18.9489 26.5 18.75 26.5H17.25C17.0511 26.5 16.8603 26.421 16.7197 26.2803C16.579 26.1397 16.5 25.9489 16.5 25.75V20.5H15C13.0109 20.5 11.1032 19.7098 9.6967 18.3033C8.29018 16.8968 7.5 14.9891 7.5 13C7.5 11.0109 8.29018 9.10322 9.6967 7.6967C11.1032 6.29018 13.0109 5.5 15 5.5H26.25C26.4489 5.5 26.6397 5.57902 26.7803 5.71967C26.921 5.86032 27 6.05109 27 6.25Z" fill="black"/>
</svg>
