<svg width="58" height="58" viewBox="0 0 58 58" fill="none" xmlns="http://www.w3.org/2000/svg">
<path d="M33.609 28.299L26.871 25.155C26.283 24.882 25.8 25.188 25.8 25.839V31.761C25.8 32.412 26.283 32.718 26.871 32.445L33.606 29.301C34.197 29.025 34.197 28.575 33.609 28.299ZM28.8 0C12.894 0 0 12.894 0 28.8C0 44.706 12.894 57.6 28.8 57.6C44.706 57.6 57.6 44.706 57.6 28.8C57.6 12.894 44.706 0 28.8 0ZM28.8 40.5C14.058 40.5 13.8 39.171 13.8 28.8C13.8 18.429 14.058 17.1 28.8 17.1C43.542 17.1 43.8 18.429 43.8 28.8C43.8 39.171 43.542 40.5 28.8 40.5Z" fill="white"/>
</svg>
