<svg width="20" height="20" viewBox="0 0 20 20" fill="none" xmlns="http://www.w3.org/2000/svg">
<path d="M7.29285 14.707L4.29285 11.707C4.2 11.6141 4.12636 11.5039 4.07611 11.3826C4.02586 11.2613 4 11.1313 4 11C4 10.8687 4.02586 10.7387 4.07611 10.6174C4.12636 10.4961 4.2 10.3858 4.29285 10.293C4.38569 10.2001 4.49592 10.1265 4.61722 10.0762C4.73853 10.026 4.86855 10.0001 4.99985 10.0001C5.13115 10.0001 5.26117 10.026 5.38247 10.0762C5.50378 10.1265 5.614 10.2001 5.70685 10.293L7.94285 12.529L14.2408 5.34899C14.3262 5.24931 14.4304 5.16743 14.5474 5.10801C14.6644 5.04859 14.7919 5.01279 14.9228 5.00267C15.0536 4.99255 15.1852 5.0083 15.3099 5.04902C15.4347 5.08973 15.5502 5.15463 15.6498 5.23998C15.7495 5.32534 15.8314 5.4295 15.8908 5.5465C15.9502 5.66351 15.986 5.79107 15.9962 5.92191C16.0063 6.05275 15.9905 6.1843 15.9498 6.30905C15.9091 6.4338 15.8442 6.54931 15.7588 6.64899L8.75885 14.649C8.66942 14.7538 8.5593 14.839 8.4354 14.8992C8.3115 14.9594 8.1765 14.9934 8.03885 14.999C7.90121 15.0034 7.76412 14.9797 7.63589 14.9295C7.50765 14.8793 7.39095 14.8036 7.29285 14.707Z" fill="#5C5F62"/>
</svg>
