<svg width="13" height="13" viewBox="0 0 13 13" fill="none" xmlns="http://www.w3.org/2000/svg">
<g clip-path="url(#clip0_180_379)">
<path d="M9.51166 11.3751C9.42503 11.3754 9.33959 11.355 9.26249 11.3155L6.49999 9.86924L3.73749 11.3155C3.64779 11.3627 3.54665 11.3837 3.44558 11.3763C3.3445 11.3688 3.24754 11.3332 3.16573 11.2733C3.08391 11.2135 3.02051 11.132 2.98274 11.0379C2.94497 10.9439 2.93435 10.8411 2.95208 10.7413L3.49374 7.69174L1.26208 5.52507C1.19245 5.45559 1.14306 5.36846 1.1192 5.27303C1.09534 5.1776 1.09792 5.07748 1.12666 4.9834C1.15806 4.88713 1.21581 4.80159 1.29336 4.73649C1.37091 4.67138 1.46516 4.62932 1.56541 4.61507L4.65291 4.16549L6.01249 1.38674C6.05685 1.29516 6.1261 1.21792 6.21232 1.16388C6.29854 1.10984 6.39824 1.08118 6.49999 1.08118C6.60175 1.08118 6.70145 1.10984 6.78767 1.16388C6.87388 1.21792 6.94314 1.29516 6.98749 1.38674L8.36333 4.16007L11.4508 4.60965C11.5511 4.6239 11.6453 4.66597 11.7229 4.73107C11.8004 4.79618 11.8582 4.88172 11.8896 4.97799C11.9183 5.07206 11.9209 5.17218 11.897 5.26761C11.8732 5.36304 11.8238 5.45017 11.7542 5.51965L9.52249 7.68632L10.0642 10.7359C10.0835 10.8375 10.0734 10.9424 10.035 11.0384C9.99659 11.1344 9.93153 11.2174 9.84749 11.2776C9.74941 11.3463 9.6313 11.3806 9.51166 11.3751Z" fill="black"/>
</g>
<defs>
<clipPath id="clip0_180_379">
<rect width="13" height="13" fill="white"/>
</clipPath>
</defs>
</svg>
