<svg width="12" height="12" viewBox="0 0 12 12" fill="none" xmlns="http://www.w3.org/2000/svg">
<g clip-path="url(#clip0_180_377)">
<path d="M10.7957 4.20581L8.14051 3.81993C8.08056 3.81119 8.02363 3.788 7.97463 3.75236C7.92564 3.71673 7.88604 3.66971 7.85926 3.61537L6.67163 1.20937C6.60976 1.08408 6.51407 0.978594 6.39538 0.904837C6.2767 0.83108 6.13974 0.791992 6.00001 0.791992C5.86027 0.791992 5.72332 0.83108 5.60463 0.904837C5.48595 0.978594 5.39026 1.08408 5.32838 1.20937L4.14094 3.61537C4.11416 3.66971 4.07456 3.71673 4.02557 3.75236C3.97657 3.788 3.91965 3.81119 3.85969 3.81993L1.20432 4.20581C1.06603 4.2259 0.936117 4.2843 0.82928 4.37438C0.722444 4.46446 0.642944 4.58264 0.599773 4.71555C0.556601 4.84846 0.55148 4.9908 0.584988 5.12646C0.618496 5.26213 0.689296 5.38572 0.789382 5.48325L2.71069 7.356C2.75414 7.39839 2.78661 7.45073 2.8053 7.50849C2.82398 7.56625 2.82832 7.62768 2.81794 7.6875L2.36438 10.3312C2.3402 10.4692 2.35524 10.6112 2.4078 10.741C2.46036 10.8708 2.54831 10.9832 2.66165 11.0655C2.77499 11.1478 2.90916 11.1966 3.04887 11.2063C3.18858 11.216 3.32822 11.1864 3.45188 11.1206L5.82676 9.87225C5.88045 9.84412 5.94015 9.82943 6.00076 9.82943C6.06136 9.82943 6.12107 9.84412 6.17476 9.87225L8.54963 11.1206C8.67334 11.1858 8.81284 11.2151 8.95232 11.2051C9.09181 11.1951 9.22571 11.1463 9.33888 11.0642C9.45205 10.982 9.53997 10.8698 9.59268 10.7403C9.64539 10.6108 9.66079 10.4691 9.63713 10.3312L9.18188 7.6875C9.17161 7.62771 9.17605 7.56633 9.1948 7.50864C9.21355 7.45095 9.24605 7.39869 9.28951 7.35637L11.2106 5.48306C11.3107 5.38552 11.3814 5.26195 11.4149 5.12631C11.4484 4.99067 11.4432 4.84837 11.4001 4.71549C11.3569 4.58262 11.2774 4.46447 11.1706 4.3744C11.0638 4.28433 10.9339 4.22593 10.7957 4.20581ZM10.9489 5.21475L9.02776 7.0875C8.9408 7.17223 8.87577 7.27684 8.83827 7.39232C8.80076 7.50779 8.79192 7.63065 8.81251 7.75031L9.26607 10.3941C9.27772 10.4628 9.26994 10.5334 9.24359 10.598C9.21724 10.6625 9.17338 10.7184 9.11696 10.7593C9.06054 10.8003 8.99379 10.8246 8.92426 10.8297C8.85473 10.8347 8.78517 10.8202 8.72344 10.7878L6.34857 9.54056C6.24112 9.48391 6.12148 9.4543 6.00001 9.4543C5.87854 9.4543 5.7589 9.48391 5.65144 9.54056L3.27676 10.7889C3.21503 10.8213 3.14547 10.8358 3.07594 10.8308C3.00641 10.8258 2.93967 10.8014 2.88324 10.7605C2.82682 10.7195 2.78296 10.6636 2.75661 10.5991C2.73026 10.5345 2.72248 10.4639 2.73413 10.3952L3.18751 7.75031C3.20813 7.63067 3.19933 7.50781 3.16186 7.39233C3.12439 7.27686 3.05938 7.17223 2.97244 7.0875L1.05094 5.21475C1.00114 5.16607 0.96591 5.10447 0.949221 5.03686C0.932532 4.96925 0.935047 4.89833 0.956483 4.83207C0.977919 4.76581 1.01742 4.70686 1.07055 4.66184C1.12368 4.61682 1.18832 4.58752 1.25719 4.57725L3.91238 4.19137C4.03258 4.17396 4.14673 4.12757 4.24499 4.05619C4.34325 3.98482 4.42266 3.8906 4.47638 3.78168L5.66476 1.37531C5.69564 1.31276 5.7434 1.26009 5.80264 1.22327C5.86189 1.18645 5.93025 1.16693 6.00001 1.16693C6.06976 1.16693 6.13813 1.18645 6.19737 1.22327C6.25662 1.26009 6.30438 1.31276 6.33526 1.37531L7.52269 3.78131C7.57641 3.89023 7.65583 3.98444 7.75409 4.05582C7.85235 4.12719 7.9665 4.17359 8.08669 4.191L10.7417 4.57687C10.8106 4.58708 10.8753 4.61634 10.9285 4.66135C10.9816 4.70637 11.0212 4.76534 11.0426 4.83162C11.0641 4.89791 11.0666 4.96886 11.0498 5.03649C11.0331 5.10412 10.9978 5.16573 10.9479 5.21437L10.9489 5.21475Z" fill="black"/>
</g>
<defs>
<clipPath id="clip0_180_377">
<rect width="12" height="12" fill="white"/>
</clipPath>
</defs>
</svg>
