<svg width="7" height="14" viewBox="0 0 7 14" fill="none" xmlns="http://www.w3.org/2000/svg">
<path d="M5.7468 0C5.98297 0.0258633 6.1929 0.0258633 6.42907 0.0517265C6.58652 0.0517265 6.74396 0.0775898 6.90141 0.103453C6.90141 0.801761 6.90141 1.47421 6.90141 2.19838C6.84893 2.19838 6.7702 2.19838 6.71772 2.19838C6.27162 2.19838 5.82553 2.19838 5.37943 2.22424C4.82836 2.2501 4.51346 2.5346 4.48722 3.07773C4.46098 3.64672 4.48722 4.21571 4.48722 4.81057C5.24822 4.81057 6.03546 4.81057 6.82269 4.81057C6.71772 5.58647 6.61276 6.36236 6.50779 7.13826C5.82552 7.13826 5.16949 7.13826 4.48722 7.13826C4.48722 9.12973 4.48722 11.1212 4.48722 13.1127C3.67375 13.1127 2.86028 13.1127 2.0468 13.1127C2.0468 11.1212 2.0468 9.1556 2.0468 7.13826C1.36453 7.13826 0.682269 7.13826 0 7.13826C0 6.36236 0 5.58647 0 4.81057C0.682269 4.81057 1.33829 4.81057 2.0468 4.81057C2.0468 4.73298 2.0468 4.70711 2.0468 4.65539C2.0468 4.03467 2.0468 3.43981 2.0468 2.8191C2.07304 2.09492 2.30921 1.42248 2.83404 0.853488C3.22765 0.439676 3.72624 0.206906 4.30354 0.0775898C4.46099 0.0517265 4.61843 0.0258633 4.74963 0C5.06453 0 5.40567 0 5.7468 0Z" fill="#101C26"/>
</svg>
