<svg width="14" height="14" viewBox="0 0 14 14" fill="none" xmlns="http://www.w3.org/2000/svg">
<path d="M7.73807 13.7352C6.76728 13.7352 5.8536 13.7352 4.88281 13.7352C4.88281 10.68 4.88281 7.62492 4.88281 4.54124C5.76794 4.54124 6.68163 4.54124 7.59531 4.54124C7.59531 4.94097 7.59531 5.34071 7.59531 5.769C7.62386 5.74044 7.65241 5.74044 7.65241 5.74044C8.25201 4.76966 9.13715 4.34137 10.2507 4.31281C10.8789 4.28426 11.507 4.36992 12.0781 4.65545C12.8204 4.99808 13.2487 5.62623 13.4771 6.39715C13.677 7.02531 13.7341 7.65347 13.7341 8.28162C13.7341 10.0519 13.7341 11.8221 13.7341 13.5924C13.7341 13.621 13.7341 13.6495 13.7341 13.6781C12.7919 13.6781 11.8496 13.6781 10.8789 13.6781C10.8789 13.621 10.8789 13.5639 10.8789 13.4782C10.8789 11.9649 10.8789 10.4802 10.8789 8.96689C10.8789 8.62426 10.8503 8.28162 10.7932 7.93899C10.6219 6.99676 9.99373 6.68268 9.13715 6.79689C8.33767 6.88255 7.90938 7.36794 7.76662 8.22452C7.70951 8.5386 7.70952 8.85268 7.70952 9.16676C7.70952 10.5944 7.70952 12.0506 7.70952 13.4782C7.73807 13.5924 7.73807 13.6495 7.73807 13.7352Z" fill="#101C26"/>
<path d="M0.226562 4.56934C1.1688 4.56934 2.11103 4.56934 3.05327 4.56934C3.05327 7.62446 3.05327 10.6796 3.05327 13.7347C2.11103 13.7347 1.1688 13.7347 0.226562 13.7347C0.226562 10.6796 0.226562 7.62446 0.226562 4.56934Z" fill="#101C26"/>
<path d="M3.28355 1.62829C3.28355 2.54198 2.54118 3.28435 1.65605 3.3129C0.742364 3.3129 0 2.57053 0 1.65685C0 0.743164 0.742364 0.000796977 1.65605 0.000796977C2.54118 -0.0277556 3.28355 0.714612 3.28355 1.62829Z" fill="#101C26"/>
</svg>
