<svg width="14" height="12" viewBox="0 0 14 12" fill="none" xmlns="http://www.w3.org/2000/svg">
<path d="M0 10.254C1.52065 10.3746 2.92433 10.0126 4.15254 9.04708C2.86584 8.92639 1.98854 8.26261 1.52065 6.99538C1.93006 7.05572 2.33945 7.05572 2.80734 6.93503C2.10551 6.754 1.57914 6.39194 1.16973 5.90918C0.760324 5.36609 0.526375 4.76264 0.526375 4.03851C0.93578 4.21955 1.34519 4.40058 1.81308 4.40058C1.16973 3.91783 0.818815 3.37473 0.643355 2.6506C0.467896 1.92647 0.584869 1.20234 0.935787 0.538555C2.45644 2.40922 4.38649 3.43507 6.78444 3.61611C6.78444 3.31439 6.72595 3.07301 6.78444 2.77129C6.84292 1.56441 7.72022 0.417867 8.83146 0.116146C9.88422 -0.185575 10.82 0.116146 11.5803 0.840276C11.6388 0.90062 11.6973 0.90062 11.7558 0.90062C12.3407 0.779932 12.867 0.538555 13.4519 0.236834C13.2179 0.90062 12.8085 1.44372 12.2822 1.80578C12.2822 1.80578 12.2822 1.80578 12.2822 1.86613C12.5161 1.80578 12.8085 1.74544 13.0425 1.68509C13.2764 1.62475 13.5689 1.50406 13.8028 1.44372C13.4519 1.92647 13.101 2.40922 12.6331 2.77129C12.4576 2.89198 12.3991 3.01266 12.3991 3.25404C12.3991 4.58161 12.1067 5.7885 11.5803 6.99538C10.8785 8.44364 9.94271 9.65052 8.59752 10.4953C7.66174 11.0988 6.60897 11.4608 5.49773 11.6419C4.7374 11.7626 3.97708 11.7626 3.21676 11.6419C2.04703 11.2798 0.994271 10.9177 0 10.254Z" fill="#101C26"/>
</svg>
