<svg width="23" height="24" viewBox="0 0 23 24" fill="none" xmlns="http://www.w3.org/2000/svg">
<path d="M1.29613 24.0005C0.773156 24.0005 0.298832 23.6843 0.0993724 23.2003C-0.10252 22.7162 0.00937242 22.1568 0.379102 21.787L7.43316 14.733C7.94154 14.227 8.76127 14.227 9.26721 14.733C9.77559 15.2389 9.77559 16.0611 9.26721 16.567L2.21316 23.6211C1.97235 23.8643 1.64154 24.0005 1.29613 24.0005Z" fill="#ED952B"/>
<path d="M22.0649 0.0709651L3.61976 18.5137C-0.233217 14.6607 -0.233217 8.41178 3.61976 4.55637C9.10246 -0.926332 22.0649 0.0709651 22.0649 0.0709651Z" fill="#FEC86E"/>
<path d="M17.5762 18.5155C13.7232 22.3709 7.47431 22.3709 3.6189 18.5155L22.064 0.0727539C22.064 0.0727539 23.0613 13.0328 17.5762 18.5155Z" fill="#ED952B"/>
</svg>
