<svg width="83" height="84" viewBox="0 0 83 84" fill="none" xmlns="http://www.w3.org/2000/svg">
<path fill-rule="evenodd" clip-rule="evenodd" d="M9.961 16.6517V77.3777C9.961 77.6597 10.19 77.8897 10.473 77.8897H49.03C56.283 77.8897 62.162 72.0097 62.162 64.7577V16.6517C62.162 16.3687 61.933 16.1397 61.649 16.1397H10.295" fill="#BAE1FF"/>
<path fill-rule="evenodd" clip-rule="evenodd" d="M44.4697 27.5014L62.5517 0.000400543L80.6327 27.5014H44.4697Z" fill="#00B388"/>
<mask id="mask0_2_172" style="mask-type:alpha" maskUnits="userSpaceOnUse" x="0" y="0" width="83" height="84">
<path d="M0 83.223H82.201V0H0V83.223Z" fill="white"/>
</mask>
<g mask="url(#mask0_2_172)">
<path fill-rule="evenodd" clip-rule="evenodd" d="M2.382 29.729H25.246V6.864H2.382V29.729ZM26.438 32.111H1.191C0.533 32.111 0 31.578 0 30.92V5.673C0 5.015 0.533 4.482 1.191 4.482H26.438C27.095 4.482 27.629 5.015 27.629 5.673V30.92C27.629 31.578 27.095 32.111 26.438 32.111Z" fill="#00B388"/>
<path fill-rule="evenodd" clip-rule="evenodd" d="M29.086 62.9881C29.086 65.9291 26.701 68.3141 23.76 68.3141C20.817 68.3141 18.433 65.9291 18.433 62.9881C18.433 60.0461 20.817 57.6611 23.76 57.6611C26.701 57.6611 29.086 60.0461 29.086 62.9881Z" fill="#00B388"/>
<path fill-rule="evenodd" clip-rule="evenodd" d="M69.2529 47.7142C69.1089 47.7142 68.9639 47.6882 68.8209 47.6332C67.4369 47.0952 65.9849 46.7392 64.5059 46.5752C63.8519 46.5032 63.3809 45.9142 63.4529 45.2602C63.5259 44.6062 64.1179 44.1352 64.7699 44.2082C66.4529 44.3942 68.1069 44.8002 69.6839 45.4122C70.2979 45.6512 70.6019 46.3412 70.3629 46.9542C70.1809 47.4252 69.7299 47.7142 69.2529 47.7142ZM53.8889 48.6452C53.4639 48.6452 53.0529 48.4172 52.8379 48.0162C52.5259 47.4362 52.7449 46.7142 53.3239 46.4032C54.8169 45.6032 56.4089 45.0002 58.0549 44.6112C58.6899 44.4602 59.3369 44.8562 59.4879 45.4962C59.6399 46.1362 59.2429 46.7782 58.6029 46.9302C57.1579 47.2712 55.7609 47.8002 54.4499 48.5032C54.2719 48.5992 54.0779 48.6452 53.8889 48.6452ZM77.8199 54.5302C77.4409 54.5302 77.0649 54.3482 76.8359 54.0102C75.9989 52.7822 75.0049 51.6652 73.8819 50.6892C73.3849 50.2572 73.3319 49.5052 73.7639 49.0082C74.1929 48.5122 74.9469 48.4592 75.4429 48.8912C76.7219 50.0012 77.8519 51.2712 78.8039 52.6682C79.1749 53.2112 79.0339 53.9522 78.4899 54.3232C78.2849 54.4632 78.0519 54.5302 77.8199 54.5302ZM46.2019 56.4432C46.0179 56.4432 45.8299 56.4002 45.6559 56.3092C45.0709 56.0072 44.8429 55.2882 45.1449 54.7042C45.9209 53.2032 46.8919 51.8052 48.0279 50.5482C48.4699 50.0602 49.2239 50.0232 49.7109 50.4642C50.1989 50.9062 50.2359 51.6592 49.7949 52.1472C48.7949 53.2512 47.9429 54.4802 47.2609 55.7982C47.0489 56.2082 46.6329 56.4432 46.2019 56.4432ZM44.2969 67.2232C43.7049 67.2232 43.1919 66.7832 43.1159 66.1812C43.0139 65.3632 42.9609 64.5302 42.9619 63.7052C42.9619 62.8412 43.0189 61.9732 43.1299 61.1262C43.2169 60.4742 43.8189 60.0172 44.4669 60.1012C45.1189 60.1872 45.5779 60.7852 45.4919 61.4382C45.3939 62.1822 45.3449 62.9452 45.3449 63.7062C45.3439 64.4322 45.3899 65.1642 45.4809 65.8822C45.5629 66.5352 45.0999 67.1312 44.4469 67.2142C44.3969 67.2202 44.3469 67.2232 44.2969 67.2232ZM80.4019 69.6082C80.3019 69.6082 80.1989 69.5952 80.0979 69.5682C79.4619 69.4002 79.0819 68.7492 79.2499 68.1122C79.6269 66.6842 79.8179 65.2012 79.8179 63.7062C79.8179 62.2432 79.6359 60.7922 79.2749 59.3922C79.1099 58.7562 79.4939 58.1062 80.1309 57.9422C80.7659 57.7782 81.4179 58.1602 81.5809 58.7972C81.9919 60.3922 82.2009 62.0432 82.2009 63.7062C82.2009 65.4062 81.9829 67.0932 81.5539 68.7202C81.4119 69.2552 80.9299 69.6082 80.4019 69.6082ZM48.8429 77.1792C48.5159 77.1792 48.1909 77.0452 47.9539 76.7822C46.8259 75.5212 45.8639 74.1182 45.0959 72.6132C44.7959 72.0272 45.0279 71.3102 45.6139 71.0102C46.2019 70.7132 46.9179 70.9432 47.2169 71.5292C47.8929 72.8522 48.7379 74.0852 49.7309 75.1942C50.1689 75.6842 50.1269 76.4372 49.6369 76.8762C49.4089 77.0792 49.1249 77.1792 48.8429 77.1792ZM74.5839 78.8812C74.2479 78.8812 73.9159 78.7402 73.6799 78.4662C73.2509 77.9672 73.3089 77.2152 73.8079 76.7862C74.9369 75.8172 75.9359 74.7052 76.7799 73.4822C77.1539 72.9402 77.8979 72.8042 78.4369 73.1782C78.9789 73.5512 79.1139 74.2942 78.7409 74.8352C77.7809 76.2262 76.6439 77.4902 75.3589 78.5932C75.1349 78.7862 74.8579 78.8812 74.5839 78.8812ZM58.2319 82.8092C58.1409 82.8092 58.0459 82.7982 57.9519 82.7762C56.3069 82.3782 54.7179 81.7662 53.2299 80.9572C52.6509 80.6432 52.4379 79.9202 52.7519 79.3412C53.0659 78.7622 53.7879 78.5502 54.3679 78.8642C55.6739 79.5742 57.0679 80.1102 58.5119 80.4602C59.1509 80.6152 59.5439 81.2582 59.3899 81.8982C59.2579 82.4432 58.7709 82.8092 58.2319 82.8092ZM64.5359 83.2232C63.9349 83.2232 63.4179 82.7682 63.3539 82.1572C63.2839 81.5022 63.7589 80.9162 64.4129 80.8472C65.8949 80.6912 67.3479 80.3432 68.7319 79.8142C69.3459 79.5812 70.0359 79.8872 70.2709 80.5022C70.5049 81.1162 70.1969 81.8042 69.5819 82.0392C68.0049 82.6422 66.3499 83.0382 64.6629 83.2162C64.6209 83.2212 64.5779 83.2232 64.5359 83.2232Z" fill="#00B388"/>
</g>
</svg>
