<svg width="150" height="31" viewBox="0 0 150 31" fill="none" xmlns="http://www.w3.org/2000/svg">
<g clip-path="url(#clip0_2_570)">
<path d="M22.9849 4.85425H12.8637V8.63474V10.9408V12.884V14.5777V18.396H18.3864V12.8916H14.2121V8.6423H20.4091C21.0303 8.6423 21.5909 8.89181 21.9925 9.3001C22.4015 9.70084 22.6515 10.2679 22.6515 10.8803V20.5206V22.6452H20.5228H10.8409C10.2197 22.6452 9.65912 22.3957 9.2576 21.9874C8.84851 21.5791 8.59851 21.0196 8.59851 20.4072V10.9484V10.7669V8.6423V3.02449V0.60498H22.9849C25.1137 0.60498 27.0379 1.46693 28.4394 2.86571C29.8334 4.25693 30.7046 6.18498 30.7046 8.30205V24.2633V27.2725V28.6033C30.7046 29.745 29.7728 30.675 28.6288 30.675H28.2728H27.1818H8.2576C6.12881 30.675 4.20457 29.813 2.80305 28.4143C1.40154 27.023 0.537903 25.095 0.537903 22.9779V8.63474H2.76518H4.79548H7.24245V12.884H4.79548V22.9779C4.79548 23.923 5.18184 24.785 5.81063 25.4125C6.43942 26.0401 7.30305 26.4257 8.25002 26.4257H26.4318V8.30205C26.4318 7.35693 26.0455 6.49498 25.4167 5.86742C24.7955 5.24742 23.9394 4.85425 22.9849 4.85425Z" fill="#00B289"/>
<path d="M136.409 10.8804C134.455 9.52701 132.023 9.0431 129.576 9.56481C126.227 10.2831 123.561 13.0277 122.939 16.4075C122.462 18.9858 123.144 21.6094 124.803 23.598C126.462 25.5865 128.902 26.7282 131.485 26.7282C133.205 26.7282 134.871 26.2216 136.273 25.2916C136.492 25.9268 137.091 26.388 137.803 26.388H140.258V9.69335H138.326C137.485 9.68579 136.758 10.1772 136.409 10.8804ZM127.485 20.3619C127.023 19.6285 126.811 18.8421 126.841 17.9575C126.879 16.7099 127.447 15.4926 128.394 14.6307C129.288 13.8216 130.333 13.4285 131.583 13.4285C132.447 13.4285 133.212 13.6326 133.932 14.0485C135.455 14.9407 136.197 16.279 136.197 18.1238C136.197 19.3412 135.75 20.377 134.833 21.2994C133.826 22.3051 132.659 22.7512 131.25 22.6453C130.659 22.5999 130.068 22.4412 129.53 22.1765C128.652 21.7531 127.977 21.1558 127.485 20.3619Z" fill="#00B289"/>
<path d="M57.1061 10.4796C55.7348 9.73863 54.25 9.36814 52.6818 9.36814C51.3561 9.36814 50.1212 9.65546 48.9924 10.2301C48.7348 10.3586 48.4924 10.5023 48.2576 10.6535V6.20766C48.2576 5.31546 47.5303 4.59717 46.6439 4.59717H44.1364V26.3879H46.5682C47.2651 26.3879 47.8561 25.9494 48.0833 25.3294C48.4167 25.5486 48.7727 25.7452 49.1591 25.9191C50.3409 26.4635 51.5985 26.7357 52.8864 26.7357C55.4848 26.7357 57.7651 25.6545 59.6591 23.5299C60.9924 22.0403 61.6667 20.1728 61.6667 17.9725C61.6667 16.3923 61.25 14.9179 60.4242 13.5872C59.5985 12.264 58.4848 11.2206 57.1061 10.4796ZM56.9773 20.2181C56.5454 21.0045 55.9697 21.5942 55.2197 22.0403C54.5076 22.4562 53.75 22.6603 52.9167 22.6603C52.0454 22.6603 51.25 22.4638 50.5151 22.0781C48.9242 21.2011 48.1818 19.9535 48.1818 18.1464C48.1818 16.7779 48.6061 15.674 49.4848 14.7591C50.3485 13.8594 51.4242 13.4208 52.7803 13.4208C54.1364 13.4208 55.2424 13.8518 56.1742 14.7289C57.0909 15.5908 57.5303 16.6645 57.5379 18.0028C57.5379 18.7891 57.3409 19.5528 56.9773 20.2181Z" fill="#00B289"/>
<path d="M74.6894 9.36816C73.1137 9.36816 71.6364 9.7689 70.2955 10.5552C68.9546 11.3416 67.8864 12.4152 67.1212 13.7535C66.3561 15.0918 65.9697 16.5662 65.9697 18.1313C65.9697 19.6738 66.3788 21.1255 67.1743 22.4487C68.0834 23.9533 69.3561 25.1101 70.9546 25.8889C71.8637 26.335 72.8334 26.6072 73.8409 26.6979C74.1288 26.7206 74.4091 26.7357 74.6894 26.7357C76.25 26.7357 77.7197 26.335 79.0455 25.5335C80.5455 24.6338 81.697 23.356 82.4849 21.7455C82.9546 20.7777 83.2349 19.7418 83.3106 18.6606C83.5 16.0521 82.6516 13.7913 80.7728 11.9238C79.0606 10.2226 77.0152 9.36816 74.6894 9.36816ZM79.2046 17.9423C79.2046 18.7967 79.0076 19.5755 78.6137 20.3165C77.75 21.9194 76.5 22.6604 74.6894 22.6604C73.5379 22.6604 72.447 22.2521 71.6212 21.5035C70.5606 20.5433 70.0606 19.394 70.0909 17.9801C70.1061 17.3601 70.2425 16.7326 70.4925 16.1806C70.9091 15.2355 71.5228 14.5399 72.3712 14.0484C73.0909 13.6326 73.8485 13.4284 74.6894 13.4284C75.8864 13.4284 76.9243 13.8594 77.8561 14.7365C78.7652 15.5984 79.2046 16.6494 79.2046 17.9423Z" fill="#00B289"/>
<path d="M95.6667 9.36816C94.2879 9.36816 93.0682 9.73865 92.0076 10.4721C91.7273 10.0033 91.2121 9.68573 90.6212 9.68573H88.1894V26.3804H92.3182V17.6474C92.3182 16.9216 92.3561 16.2713 92.4318 15.7345C92.5455 15.0994 92.9015 14.5777 93.5531 14.1165C94.1894 13.6477 94.8485 13.4284 95.5834 13.4284C96.8637 13.4284 97.7803 13.8745 98.4697 14.8272C98.9015 15.4321 99.1212 16.3772 99.1212 17.6399V24.7623C99.1212 25.6545 99.8485 26.3728 100.735 26.3728H103.242V17.6399C103.242 15.3111 102.712 13.4738 101.667 12.1733C100.152 10.3133 98.1288 9.36816 95.6667 9.36816Z" fill="#00B289"/>
<path d="M145.659 11.2963V26.3804H148.167C149.061 26.3804 149.78 25.6546 149.78 24.7699V9.68579H147.273C146.386 9.68579 145.659 10.4041 145.659 11.2963Z" fill="#00B289"/>
<path d="M148.212 4.72571H146.182C145.894 4.72571 145.659 4.49132 145.659 4.204V2.17766C145.659 1.30815 146.364 0.60498 147.235 0.60498H149.788V3.15303C149.78 4.02254 149.083 4.72571 148.212 4.72571Z" fill="#00B289"/>
<path d="M117.705 17.7382C116.667 17.1031 115.492 16.589 114.182 16.2034C114.068 16.1655 113.932 16.1277 113.788 16.0824C113.644 16.0446 113.492 16.0068 113.333 15.969C113 15.848 112.689 15.6892 112.394 15.4851C112.099 15.2809 111.962 14.9936 111.985 14.6231V14.5929C111.985 14.1468 112.129 13.8065 112.424 13.5797C112.72 13.3529 113.076 13.2395 113.508 13.2395C113.879 13.2395 114.205 13.3377 114.492 13.5343C114.568 13.5873 114.629 13.6402 114.689 13.7082C114.917 13.9729 115.28 14.0787 115.599 13.9351L118.477 12.627C118.212 11.9843 117.795 11.4021 117.212 10.888C116.136 9.92018 114.924 9.43628 113.576 9.43628C112.144 9.43628 110.879 9.8975 109.765 10.8124C108.652 11.7273 108.091 12.937 108.091 14.4416C108.091 15.1221 108.22 15.7497 108.485 16.3168C108.75 16.8838 109.144 17.3904 109.674 17.8365C109.849 17.9953 110.023 18.1238 110.189 18.2297C110.356 18.3355 110.515 18.4263 110.674 18.5094C110.871 18.6077 111.068 18.6985 111.258 18.7741C111.455 18.8497 111.659 18.9329 111.871 19.0085L112.22 19.1294C112.341 19.1673 112.462 19.2051 112.599 19.2429C112.758 19.3034 112.917 19.3563 113.083 19.4016C113.25 19.447 113.424 19.5151 113.599 19.5907C114.045 19.7494 114.455 19.9536 114.818 20.2182C115.182 20.4829 115.364 20.8609 115.364 21.3448C115.364 21.8514 115.174 22.237 114.803 22.5016C114.432 22.7663 114.008 22.8948 113.538 22.8948C112.97 22.8948 112.515 22.7209 112.159 22.3655C112.121 22.3277 112.076 22.2824 112.045 22.237C111.644 21.7758 110.818 21.5036 110.22 21.6321L107.629 22.1992C107.864 23.3485 108.402 24.3238 109.242 25.1102C110.349 26.146 111.735 26.6602 113.394 26.6602C113.553 26.6602 113.705 26.6526 113.864 26.6299L114.333 26.5694C114.939 26.4485 115.53 26.2594 116.106 25.9873C116.682 25.7151 117.189 25.3824 117.614 24.9892C118.159 24.4599 118.568 23.8702 118.849 23.2199C119.121 22.5697 119.258 21.859 119.258 21.0953C119.265 19.4924 118.742 18.3658 117.705 17.7382Z" fill="#00B289"/>
</g>
<defs>
<clipPath id="clip0_2_570">
<rect width="150" height="31" fill="white"/>
</clipPath>
</defs>
</svg>
