<svg width="48" height="36" viewBox="0 0 48 36" fill="none" xmlns="http://www.w3.org/2000/svg">
<g clip-path="url(#clip0_2_134)">
<path d="M46.0311 7.2C40.784 7.56 36.3121 10.86 34.1655 15.42H40.9629C43.7653 15.42 46.0907 17.7 46.0907 20.58V30.84C46.0907 33.66 43.8249 36 40.9629 36H30.6476C27.8452 36 25.5198 33.72 25.5198 30.84V20.58C25.5198 9.24 34.7022 0 45.9714 0C45.9714 0 47.9987 0 47.9987 2.04C47.9987 2.04 47.9987 2.4 47.9987 5.1C48.0583 7.2 46.0311 7.2 46.0311 7.2ZM20.4516 7.2C15.2046 7.56 10.7326 10.86 8.5861 15.42H15.3834C18.1858 15.42 20.5112 17.7 20.5112 20.58V30.84C20.5112 33.66 18.2455 36 15.3834 36H5.12781C2.3254 36 0 33.72 0 30.84V20.58C0 9.24 9.18236 0 20.4516 0C20.4516 0 22.4789 0 22.4789 2.04C22.4789 2.04 22.4789 2.4 22.4789 5.1C22.4789 7.2 20.4516 7.2 20.4516 7.2Z" fill="#BBE1FD"/>
</g>
<defs>
<clipPath id="clip0_2_134">
<rect width="48" height="36" fill="white"/>
</clipPath>
</defs>
</svg>
