<svg width="43" height="43" viewBox="0 0 43 43" fill="none" xmlns="http://www.w3.org/2000/svg">
<path d="M21.2312 2.15002C17.3124 2.15465 13.5554 3.71344 10.7844 6.48446C8.01338 9.25548 6.45459 13.0125 6.44997 16.9313C6.44527 20.1337 7.49135 23.2493 9.42772 25.8C9.42772 25.8 9.83084 26.3308 9.89669 26.4074L21.2312 39.775L32.5711 26.4007C32.6302 26.3295 33.0347 25.8 33.0347 25.8L33.0361 25.796C34.9715 23.2464 36.0171 20.1323 36.0125 16.9313C36.0078 13.0125 34.4491 9.25548 31.678 6.48446C28.907 3.71344 25.15 2.15465 21.2312 2.15002ZM21.2312 22.3063C20.1681 22.3063 19.1289 21.991 18.245 21.4004C17.3611 20.8098 16.6722 19.9704 16.2654 18.9882C15.8585 18.006 15.7521 16.9253 15.9595 15.8827C16.1669 14.84 16.6788 13.8823 17.4305 13.1306C18.1822 12.3789 19.14 11.8669 20.1826 11.6596C21.2253 11.4522 22.306 11.5586 23.2881 11.9654C24.2703 12.3722 25.1098 13.0612 25.7004 13.9451C26.291 14.829 26.6062 15.8682 26.6062 16.9313C26.6044 18.3563 26.0376 19.7224 25.03 20.73C24.0223 21.7376 22.6562 22.3045 21.2312 22.3063Z" fill="#018ABE"/>
</svg>
