<svg width="24" height="23" viewBox="0 0 24 23" fill="none" xmlns="http://www.w3.org/2000/svg">
<path d="M10.1753 1.11486C10.9089 -0.371627 13.0286 -0.371624 13.7622 1.11487L15.9118 5.47039C16.2031 6.06067 16.7663 6.46981 17.4177 6.56447L22.2243 7.26291C23.8647 7.50128 24.5197 9.51722 23.3327 10.6743L19.8546 14.0646C19.3832 14.5241 19.1681 15.1861 19.2794 15.8349L20.1005 20.622C20.3807 22.2558 18.6658 23.5018 17.1986 22.7304L12.8994 20.4702C12.3168 20.1639 11.6207 20.1639 11.0381 20.4702L6.73892 22.7304C5.27166 23.5018 3.5568 22.2558 3.83702 20.622L4.65808 15.8349C4.76936 15.1861 4.55426 14.5241 4.08289 14.0646L0.604804 10.6743C-0.582231 9.51722 0.0727873 7.50128 1.71323 7.26291L6.51982 6.56447C7.17124 6.46981 7.73438 6.06067 8.0257 5.47039L10.1753 1.11486Z" fill="#FBA457"/>
</svg>
