<svg width="42" height="42" viewBox="0 0 42 42" fill="none" xmlns="http://www.w3.org/2000/svg">
<path d="M20.8333 37.5C25.2536 37.5 29.4928 35.7441 32.6184 32.6184C35.7441 29.4928 37.5 25.2536 37.5 20.8333C37.5 16.4131 35.7441 12.1738 32.6184 9.04822C29.4928 5.92261 25.2536 4.16667 20.8333 4.16667C16.4131 4.16667 12.1738 5.92261 9.04822 9.04822C5.92261 12.1738 4.16667 16.4131 4.16667 20.8333C4.16667 25.2536 5.92261 29.4928 9.04822 32.6184C12.1738 35.7441 16.4131 37.5 20.8333 37.5ZM20.8333 41.6667C9.32708 41.6667 0 32.3396 0 20.8333C0 9.32708 9.32708 0 20.8333 0C32.3396 0 41.6667 9.32708 41.6667 20.8333C41.6667 32.3396 32.3396 41.6667 20.8333 41.6667ZM14.3542 23.2708L9.15 21.6479C8.025 21.3042 8.01875 20.5292 9.40208 19.9729L29.6792 12.1396C30.8562 11.6604 31.5229 12.2667 31.1417 13.7854L27.6896 30.0771C27.4479 31.2375 26.75 31.5146 25.7812 30.9792L20.4667 27.0458L17.9896 29.4375C17.7354 29.6833 17.5292 29.8937 17.1375 29.9458C16.7479 30 16.4271 29.8833 16.1917 29.2375L14.3792 23.2562L14.3542 23.2729V23.2708Z" fill="#DCDCDC"/>
</svg>
