<svg width="42" height="42" viewBox="0 0 42 42" fill="none" xmlns="http://www.w3.org/2000/svg">
<path d="M10.9438 34.3625L12.4521 35.2437C14.9957 36.7272 17.8888 37.506 20.8334 37.5C24.1297 37.5 27.352 36.5225 30.0929 34.6911C32.8337 32.8598 34.9699 30.2568 36.2314 27.2114C37.4928 24.1659 37.8229 20.8148 37.1798 17.5818C36.5367 14.3488 34.9494 11.3791 32.6185 9.04822C30.2876 6.71734 27.3179 5.13 24.0849 4.48691C20.8519 3.84382 17.5007 4.17388 14.4553 5.43534C11.4099 6.6968 8.80689 8.83301 6.97554 11.5738C5.14418 14.3146 4.1667 17.537 4.1667 20.8333C4.1667 23.825 4.95211 26.6937 6.42503 29.2167L7.3042 30.725L5.94378 35.7271L10.9438 34.3625ZM0.00836121 41.6666L2.82503 31.3167C0.969065 28.1351 -0.00602215 24.5166 2.79838e-05 20.8333C2.79838e-05 9.32708 9.32711 0 20.8334 0C32.3396 0 41.6667 9.32708 41.6667 20.8333C41.6667 32.3396 32.3396 41.6666 20.8334 41.6666C17.1517 41.6726 13.5347 40.6983 10.3542 38.8437L0.00836121 41.6666ZM13.3146 11.0583C13.5938 11.0375 13.875 11.0375 14.1542 11.05C14.2667 11.0583 14.3792 11.0708 14.4917 11.0833C14.8229 11.1208 15.1875 11.3229 15.3104 11.6021C15.9313 13.0104 16.5354 14.4292 17.1188 15.8521C17.2479 16.1687 17.1709 16.575 16.925 16.9708C16.756 17.2385 16.5731 17.4972 16.3771 17.7458C16.1417 18.0479 15.6354 18.6021 15.6354 18.6021C15.6354 18.6021 15.4292 18.8479 15.5084 19.1542C15.5375 19.2708 15.6334 19.4396 15.7209 19.5812L15.8438 19.7792C16.3771 20.6687 17.0938 21.5708 17.9688 22.4208C18.2188 22.6625 18.4625 22.9104 18.725 23.1417C19.7 24.0021 20.8042 24.7042 21.9959 25.225L22.0063 25.2292C22.1834 25.3062 22.2729 25.3479 22.5313 25.4583C22.6604 25.5125 22.7938 25.5604 22.9292 25.5958C23.0691 25.6315 23.2165 25.6248 23.3526 25.5765C23.4887 25.5283 23.6075 25.4408 23.6938 25.325C25.2021 23.4979 25.3396 23.3792 25.3521 23.3792V23.3833C25.4569 23.2856 25.5814 23.2114 25.7172 23.1658C25.8531 23.1201 25.9971 23.1041 26.1396 23.1187C26.2646 23.1271 26.3917 23.15 26.5084 23.2021C27.6146 23.7083 29.425 24.4979 29.425 24.4979L30.6375 25.0417C30.8417 25.1396 31.0271 25.3708 31.0334 25.5937C31.0417 25.7333 31.0542 25.9583 31.0063 26.3708C30.9396 26.9104 30.7771 27.5583 30.6146 27.8979C30.5033 28.1297 30.3556 28.3421 30.1771 28.5271C29.9669 28.7478 29.7368 28.9486 29.4896 29.1271C29.4041 29.1914 29.3173 29.2539 29.2292 29.3146C28.9701 29.479 28.7038 29.6319 28.4313 29.7729C27.8949 30.0578 27.3025 30.2214 26.6959 30.2521C26.3104 30.2729 25.925 30.3021 25.5375 30.2812C25.5209 30.2812 24.3542 30.1 24.3542 30.1C21.3922 29.3209 18.6529 27.8614 16.3542 25.8375C15.8834 25.4229 15.4479 24.9771 15.0021 24.5333C13.1479 22.6896 11.7479 20.7 10.8979 18.8208C10.4629 17.8985 10.2279 16.8946 10.2084 15.875C10.1998 14.6101 10.6133 13.3785 11.3834 12.375C11.5354 12.1792 11.6792 11.975 11.9271 11.7396C12.1917 11.4896 12.3584 11.3562 12.5396 11.2646C12.7806 11.1438 13.0435 11.073 13.3125 11.0562L13.3146 11.0583Z" fill="#1C222A"/>
</svg>
