<svg width="13" height="14" viewBox="0 0 13 14" fill="none" xmlns="http://www.w3.org/2000/svg">
<path d="M9.51166 11.4628C9.42503 11.4632 9.33959 11.4426 9.26249 11.4028L6.49999 9.94537L3.73749 11.4028C3.64779 11.4503 3.54665 11.4715 3.44558 11.464C3.3445 11.4565 3.24754 11.4206 3.16573 11.3603C3.08391 11.3 3.02051 11.2178 2.98274 11.1231C2.94497 11.0283 2.93435 10.9247 2.95208 10.8242L3.49374 7.75106L1.26208 5.56767C1.19245 5.49765 1.14306 5.40985 1.1192 5.31368C1.09534 5.21752 1.09792 5.11662 1.12666 5.02182C1.15806 4.92481 1.21581 4.83861 1.29336 4.773C1.37091 4.70739 1.46516 4.66501 1.56541 4.65065L4.65291 4.19759L6.01249 1.3974C6.05685 1.30511 6.1261 1.22728 6.21232 1.17282C6.29854 1.11836 6.39824 1.08948 6.49999 1.08948C6.60175 1.08948 6.70145 1.11836 6.78767 1.17282C6.87388 1.22728 6.94314 1.30511 6.98749 1.3974L8.36333 4.19213L11.4508 4.64519C11.5511 4.65955 11.6453 4.70194 11.7229 4.76754C11.8004 4.83315 11.8582 4.91935 11.8896 5.01636C11.9183 5.11116 11.9209 5.21206 11.897 5.30823C11.8732 5.40439 11.8238 5.49219 11.7542 5.56221L9.52249 7.7456L10.0642 10.8187C10.0835 10.9211 10.0734 11.0268 10.035 11.1236C9.99659 11.2203 9.93153 11.3039 9.84749 11.3646C9.74941 11.4338 9.6313 11.4684 9.51166 11.4628Z" fill="white"/>
</svg>
