<svg width="12" height="13" viewBox="0 0 12 13" fill="none" xmlns="http://www.w3.org/2000/svg">
<path d="M10.7957 4.23823L8.14051 3.84938C8.08056 3.84057 8.02363 3.8172 7.97463 3.78129C7.92564 3.74538 7.88604 3.69801 7.85926 3.64324L6.67163 1.21869C6.60976 1.09243 6.51407 0.986136 6.39538 0.91181C6.2767 0.837485 6.13974 0.798096 6.00001 0.798096C5.86027 0.798096 5.72332 0.837485 5.60463 0.91181C5.48595 0.986136 5.39026 1.09243 5.32838 1.21869L4.14094 3.64324C4.11416 3.69801 4.07456 3.74538 4.02557 3.78129C3.97657 3.8172 3.91965 3.84057 3.85969 3.84938L1.20432 4.23823C1.06603 4.25849 0.936117 4.31733 0.82928 4.4081C0.722444 4.49888 0.642944 4.61797 0.599773 4.7519C0.556601 4.88584 0.55148 5.02927 0.584988 5.16599C0.618496 5.3027 0.689296 5.42724 0.789382 5.52552L2.71069 7.41271C2.75414 7.45544 2.78661 7.50818 2.8053 7.56638C2.82398 7.62458 2.82832 7.6865 2.81794 7.74677L2.36438 10.4109C2.3402 10.5499 2.35524 10.693 2.4078 10.8238C2.46036 10.9546 2.54831 11.0679 2.66165 11.1508C2.77499 11.2337 2.90916 11.2829 3.04887 11.2927C3.18858 11.3025 3.32822 11.2726 3.45188 11.2064L5.82676 9.94836C5.88045 9.92003 5.94015 9.90522 6.00076 9.90522C6.06136 9.90522 6.12107 9.92003 6.17476 9.94836L8.54963 11.2064C8.67334 11.2721 8.81284 11.3016 8.95232 11.2915C9.09181 11.2814 9.22571 11.2322 9.33888 11.1495C9.45205 11.0667 9.53997 10.9536 9.59268 10.8231C9.64539 10.6926 9.66079 10.5498 9.63713 10.4109L9.18188 7.74677C9.17161 7.68652 9.17605 7.62467 9.1948 7.56653C9.21355 7.5084 9.24605 7.45574 9.28951 7.41309L11.2106 5.52533C11.3107 5.42705 11.3814 5.30252 11.4149 5.16583C11.4484 5.02915 11.4432 4.88575 11.4001 4.75185C11.3569 4.61795 11.2774 4.49889 11.1706 4.40812C11.0638 4.31736 10.9339 4.25851 10.7957 4.23823ZM10.9489 5.25495L9.02776 7.14214C8.9408 7.22753 8.87577 7.33295 8.83827 7.44931C8.80076 7.56568 8.79192 7.68949 8.81251 7.81007L9.26607 10.4742C9.27772 10.5435 9.26994 10.6146 9.24359 10.6797C9.21724 10.7447 9.17338 10.801 9.11696 10.8423C9.06054 10.8836 8.99379 10.9081 8.92426 10.9132C8.85473 10.9182 8.78517 10.9036 8.72344 10.871L6.34857 9.61412C6.24112 9.55703 6.12148 9.52719 6.00001 9.52719C5.87854 9.52719 5.7589 9.55703 5.65144 9.61412L3.27676 10.8721C3.21503 10.9048 3.14547 10.9194 3.07594 10.9143C3.00641 10.9092 2.93967 10.8847 2.88324 10.8434C2.82682 10.8022 2.78296 10.7458 2.75661 10.6808C2.73026 10.6158 2.72248 10.5446 2.73413 10.4753L3.18751 7.81007C3.20813 7.6895 3.19933 7.5657 3.16186 7.44933C3.12439 7.33296 3.05938 7.22753 2.97244 7.14214L1.05094 5.25495C1.00114 5.20591 0.96591 5.14382 0.949221 5.07569C0.932532 5.00756 0.935047 4.93609 0.956483 4.86933C0.977919 4.80256 1.01742 4.74315 1.07055 4.69778C1.12368 4.65241 1.18832 4.62289 1.25719 4.61254L3.91238 4.22369C4.03258 4.20614 4.14673 4.15939 4.24499 4.08747C4.34325 4.01554 4.42266 3.9206 4.47638 3.81084L5.66476 1.38591C5.69564 1.32288 5.7434 1.26981 5.80264 1.2327C5.86189 1.19559 5.93025 1.17593 6.00001 1.17593C6.06976 1.17593 6.13813 1.19559 6.19737 1.2327C6.25662 1.26981 6.30438 1.32288 6.33526 1.38591L7.52269 3.81046C7.57641 3.92022 7.65583 4.01516 7.75409 4.08709C7.85235 4.15901 7.9665 4.20576 8.08669 4.22331L10.7417 4.61216C10.8106 4.62245 10.8753 4.65193 10.9285 4.69729C10.9816 4.74265 11.0212 4.80208 11.0426 4.86888C11.0641 4.93567 11.0666 5.00717 11.0498 5.07532C11.0331 5.14347 10.9978 5.20556 10.9479 5.25457L10.9489 5.25495Z" fill="white"/>
</svg>
