<svg width="50" height="50" viewBox="0 0 50 50" fill="none" xmlns="http://www.w3.org/2000/svg">
<path d="M42.3631 10.3777L32.9468 1.46934C31.9452 0.521777 30.6343 0 29.2556 0H11.3281C8.3665 0 5.95703 2.40947 5.95703 5.37109V44.6289C5.95703 47.5905 8.3665 50 11.3281 50H38.6719C41.6335 50 44.043 47.5905 44.043 44.6289V14.2795C44.043 12.8099 43.4307 11.3877 42.3631 10.3777ZM39.5177 11.7188H32.2266C31.9573 11.7188 31.7383 11.4997 31.7383 11.2305V4.35898L39.5177 11.7188ZM38.6719 47.0703H11.3281C9.98193 47.0703 8.88672 45.9751 8.88672 44.6289V5.37109C8.88672 4.0249 9.98193 2.92969 11.3281 2.92969H28.8086V11.2305C28.8086 13.1151 30.3419 14.6484 32.2266 14.6484H41.1133V44.6289C41.1133 45.9751 40.0181 47.0703 38.6719 47.0703Z" fill="#656084"/>
<path d="M35.4492 19.5312H13.9648C13.1559 19.5312 12.5 20.1871 12.5 20.9961C12.5 21.8051 13.1559 22.4609 13.9648 22.4609H35.4492C36.2582 22.4609 36.9141 21.8051 36.9141 20.9961C36.9141 20.1871 36.2582 19.5312 35.4492 19.5312Z" fill="#656084"/>
<path d="M35.4492 27.3438H13.9648C13.1559 27.3438 12.5 27.9996 12.5 28.8086C12.5 29.6176 13.1559 30.2734 13.9648 30.2734H35.4492C36.2582 30.2734 36.9141 29.6176 36.9141 28.8086C36.9141 27.9996 36.2582 27.3438 35.4492 27.3438Z" fill="#656084"/>
<path d="M21.0664 35.1562H13.9648C13.1559 35.1562 12.5 35.8121 12.5 36.6211C12.5 37.4301 13.1559 38.0859 13.9648 38.0859H21.0664C21.8754 38.0859 22.5312 37.4301 22.5312 36.6211C22.5312 35.8121 21.8754 35.1562 21.0664 35.1562Z" fill="#656084"/>
</svg>
