<svg width="44" height="44" viewBox="0 0 44 44" fill="none" xmlns="http://www.w3.org/2000/svg">
<circle cx="22" cy="22" r="22" fill="#F2F0FE"/>
<g clip-path="url(#clip0_3977_5919)">
<path fill-rule="evenodd" clip-rule="evenodd" d="M31 28C31.5523 28 32 27.5523 32 27V13C32 12.4477 31.5523 12 31 12H17C16.4477 12 16 12.4477 16 13V27C16 27.5523 16.4477 28 17 28H31ZM18.4264 26C18.1732 26 18.0001 25.809 18 25.6036C18.0001 25.5239 18.0261 25.4417 18.0835 25.368L21.1288 22.1272C21.2917 21.9592 21.5746 21.9592 21.746 22.1192L23.1431 23.6L25.7659 19.7752C25.9459 19.5352 26.323 19.5432 26.4858 19.7912L29.9478 25.4C30.102 25.672 29.8963 26 29.5706 26H18.4264ZM23 17C23 18.1046 22.1046 19 21 19C19.8954 19 19 18.1046 19 17C19 15.8954 19.8954 15 21 15C22.1046 15 23 15.8954 23 17Z" fill="#656084"/>
<path d="M12 16.5C12 15.6716 12.6716 15 13.5 15H14V30H29V30.5C29 31.3284 28.3284 32 27.5 32H13.5C12.6716 32 12 31.3284 12 30.5V16.5Z" fill="#656084"/>
</g>
<defs>
<clipPath id="clip0_3977_5919">
<rect width="20" height="20" fill="white" transform="translate(12 12)"/>
</clipPath>
</defs>
</svg>
