<svg width="40" height="41" viewBox="0 0 40 41" fill="none" xmlns="http://www.w3.org/2000/svg">
<g clip-path="url(#clip0_1_385)">
<path d="M30.7467 40.9412C28.2284 40.9412 25.8857 39.9412 24.1288 38.1765L18.7408 32.7647L18.5651 33.4706C18.0966 35.5294 16.9839 37.4118 15.344 38.8235C14.5241 39.4706 13.5871 40 12.5915 40.4118C11.5373 40.7647 10.4832 41 9.37042 41C6.85212 41 4.50948 40 2.75253 38.2353C0.995578 36.4706 0 34.0588 0 31.5882V17.5294V10.1177C0 9.94118 0 9.82354 0 9.64707C0 9.64707 0 9.64705 0 9.58822C0 9.5294 0 9.41177 0 9.35295V9.2941V9.23529C0 9.23529 0 9.23527 0 9.17645V9.11764V9.05883V8.99999C0 8.94116 -1.42977e-05 8.82354 0.0585508 8.76471C0.0585508 8.70589 0.0585508 8.70588 0.0585508 8.64706C0.0585508 8.58824 0.0585365 8.52942 0.117102 8.4706V8.41175V8.35294V8.2941V8.23529V8.17648V8.11763V8.05882C0.117102 8 0.117159 7.94117 0.175724 7.94117C0.175724 7.94117 0.175724 7.94118 0.175724 7.88236C0.175724 7.88236 0.175724 7.88234 0.175724 7.82352C0.234289 7.70587 0.23426 7.58824 0.292826 7.47059C0.292826 7.41177 0.351376 7.35293 0.351376 7.35293C0.409941 7.17646 0.468535 6.99998 0.5271 6.82351C0.5271 6.82351 0.5271 6.82352 0.5271 6.7647C0.585665 6.64705 0.585637 6.58823 0.644202 6.47058V6.41177C0.644202 6.41177 0.644188 6.35293 0.702753 6.35293C0.702753 6.2941 0.761375 6.23529 0.761375 6.17646C0.761375 6.17646 0.761361 6.11765 0.819926 6.11765C0.819926 6.11765 0.819912 6.05881 0.878477 6.05881C0.878477 5.99999 0.937027 5.94115 0.937027 5.94115C0.937027 5.94115 0.937013 5.88235 0.995578 5.88235C0.995578 5.88235 0.995635 5.82354 1.0542 5.82354C1.11277 5.70589 1.17129 5.64707 1.22985 5.52942C1.63981 4.88236 2.10834 4.23528 2.63543 3.70587C2.98682 3.35293 3.39676 2.99999 3.86528 2.64705C4.5095 2.17646 5.21227 1.82351 5.97361 1.52939C6.09074 1.47057 6.20793 1.4706 6.32506 1.41177H6.38361C6.50074 1.35295 6.61786 1.35294 6.73499 1.29412C6.73499 1.29412 6.73497 1.29412 6.79354 1.29412C6.91067 1.23529 7.02778 1.23527 7.14491 1.23527C7.8477 1.0588 8.55053 1 9.25332 1H23.1332H23.5431H30.6296C35.7833 1 40 5.23529 40 10.4118C40 12.9412 39.0043 15.2941 37.2474 17.0588C35.959 18.3529 34.3191 19.2353 32.5622 19.5882L31.8594 19.7647L37.2474 25.1765C40.8784 28.8235 40.8784 34.8235 37.2474 38.5294C35.6076 39.9412 33.265 40.9412 30.7467 40.9412ZM28.1113 34.1176C28.814 34.8235 29.7511 35.2353 30.7467 35.2353C31.7423 35.2353 32.6793 34.8235 33.3821 34.1176C34.0849 33.4118 34.4949 32.4706 34.4949 31.4706C34.4949 30.4706 34.0849 29.5294 33.3821 28.8235L24.0117 19.4118H18.7994V23.9412V24.7059L26.8814 32.8235L28.1113 34.1176ZM5.68079 31.5294C5.68079 32.5294 6.09076 33.4706 6.79354 34.1764C7.49632 34.8823 8.43336 35.2941 9.42897 35.2941C10.4246 35.2941 11.3616 34.8823 12.0644 34.1764C12.7672 33.4706 13.1771 32.5294 13.1771 31.5294V10.0588C13.1771 9.11763 12.8257 8.17647 12.1229 7.47059L12.0644 7.41174C11.3616 6.70586 10.4246 6.29412 9.42897 6.29412C9.31184 6.29412 9.19472 6.29412 9.07759 6.29412H9.01904C8.96048 6.29412 8.84335 6.2941 8.72622 6.35293C8.60909 6.35293 8.55052 6.41177 8.43339 6.41177C8.31626 6.41177 8.25768 6.47058 8.19912 6.47058C7.67203 6.64705 7.20349 6.99998 6.79354 7.41174C6.73497 7.47057 6.67645 7.5294 6.61789 7.64705C6.2665 8.11764 6.03219 8.64706 5.91506 9.23529C5.91506 9.29412 5.91508 9.41174 5.85651 9.47057C5.85651 9.47057 5.85651 9.47059 5.85651 9.52941C5.85651 9.52941 5.85651 9.58824 5.85651 9.64707C5.85651 9.70589 5.85651 9.82352 5.85651 9.88234V9.94118C5.85651 10 5.85651 9.99998 5.85651 10.0588L5.68079 31.5294ZM30.7467 13.6471C31.7423 13.6471 32.6793 13.3529 33.3821 12.6471C34.0849 11.9412 34.4949 11 34.4949 9.99999C34.4949 8.99999 34.0849 8.05882 33.3821 7.35293C32.6793 6.64705 31.7423 6.23527 30.7467 6.23527H18.0381L18.2137 6.7647C18.5651 7.7647 18.7408 8.88236 18.7408 9.94118V13.6471H29.5168H30.7467Z" fill="#34E0A1"/>
</g>
<defs>
<clipPath id="clip0_1_385">
<rect width="40" height="40" fill="white" transform="translate(0 1)"/>
</clipPath>
</defs>
</svg>
