<svg width="10" height="13" viewBox="0 0 10 13" fill="none" xmlns="http://www.w3.org/2000/svg">
<path d="M8.29737 5.46914C8.61076 4.64141 9.51344 2.24707 9.51344 1.48027C9.51344 0.804883 9.0929 0.238672 8.3429 0.238672C7.14826 0.238672 6.07683 3.58262 5.74201 4.37988C5.48219 3.65625 4.26612 0 3.19469 0C2.36165 0 1.97058 0.581445 1.97058 1.3127C1.97058 2.20898 2.88665 4.53223 3.21879 5.42598C3.05004 5.36758 2.8679 5.3168 2.68308 5.3168C2.05629 5.3168 1.38933 6.05566 1.38933 6.65234C1.38933 6.87832 1.52058 7.1957 1.60362 7.40645C0.615223 7.66035 0.234866 8.28496 0.234866 9.22695C0.232188 11.0602 2.06433 13 4.64112 13C7.80183 13 9.7679 10.7504 9.7679 7.84824C9.7679 6.75391 9.58308 5.76621 8.29737 5.46914ZM7.34915 2.74219C7.4563 2.42988 7.91433 1.10957 8.3429 1.10957C8.57326 1.10957 8.63487 1.33555 8.63487 1.51582C8.63487 2.00078 7.60094 4.67949 7.37326 5.27363L6.46255 5.12129L7.34915 2.74219ZM2.81165 1.22637C2.81165 0.924219 3.20005 0.0660156 4.05183 2.42227L4.97862 4.96895C4.56076 4.93594 4.23665 4.89277 4.0304 5.00449C3.73844 4.27324 2.81165 1.96523 2.81165 1.22637ZM2.75004 6.19531C3.53487 6.19531 4.54737 8.59727 4.54737 8.92227C4.54737 9.05176 4.41612 9.21172 4.26344 9.21172C3.70362 9.21172 2.20362 7.25918 2.20362 6.73105C2.20629 6.53555 2.54379 6.19531 2.75004 6.19531ZM7.68665 10.9256C6.90719 11.7381 5.91076 12.1596 4.74826 12.1596C3.15719 12.1596 1.90094 11.3318 1.29558 9.91758C0.837545 8.81563 1.39737 8.1834 1.84737 8.1834C2.15272 8.1834 3.30183 9.71445 3.30183 10.0395C3.30183 10.1639 3.09558 10.2502 2.98844 10.2502C2.55719 10.2502 2.38844 9.85664 1.61969 8.94512C0.824152 9.69922 2.16879 11.1516 3.18129 11.1516C3.8804 11.1516 4.33576 10.5371 4.19915 10.0852C4.29826 10.0852 4.42147 10.0928 4.51255 10.0699C4.54201 10.758 4.7563 11.5781 5.62951 11.6365C5.62951 11.6137 5.68308 11.4563 5.68308 11.4486C5.68308 11.0068 5.39915 10.6209 5.39915 10.1715C5.39915 9.45293 5.9804 8.75723 6.56969 8.35098C6.78397 8.19863 7.0438 8.10469 7.29558 8.01836C7.5554 7.92441 7.8313 7.81523 8.02951 7.62734C8.00005 7.34297 7.87683 7.0916 7.57683 7.0916C6.83487 7.0916 4.34647 7.19316 4.34647 6.08359C4.34647 5.91348 4.34915 5.75098 4.81254 5.75098C5.67772 5.75098 7.87415 5.9541 8.51701 6.48984C9.00183 6.89863 9.1679 9.36406 7.68665 10.9256ZM5.04558 7.72637C5.3054 7.80508 5.57326 7.82793 5.84112 7.87871C5.6429 8.01582 5.46612 8.1834 5.29737 8.36367C5.22237 8.14785 5.13129 7.93711 5.04558 7.72637Z" fill="black"/>
</svg>
