<svg width="80" height="80" viewBox="0 0 80 80" fill="none" xmlns="http://www.w3.org/2000/svg">
<path d="M40 50C45.5228 50 50 45.5228 50 40C50 34.4772 45.5228 30 40 30C34.4772 30 30 34.4772 30 40C30 45.5228 34.4772 50 40 50Z" stroke="#EDB021" stroke-width="2" stroke-linecap="round" stroke-linejoin="round"/>
<path d="M64.6667 50C64.223 51.0054 64.0906 52.1206 64.2867 53.202C64.4827 54.2833 64.9982 55.2811 65.7667 56.0667L65.9667 56.2667C66.5865 56.8858 67.0783 57.6211 67.4138 58.4304C67.7493 59.2397 67.9219 60.1072 67.9219 60.9833C67.9219 61.8594 67.7493 62.727 67.4138 63.5363C67.0783 64.3456 66.5865 65.0808 65.9667 65.7C65.3476 66.3198 64.6123 66.8116 63.803 67.1471C62.9936 67.4826 62.1261 67.6552 61.25 67.6552C60.3739 67.6552 59.5064 67.4826 58.6971 67.1471C57.8878 66.8116 57.1525 66.3198 56.5334 65.7L56.3334 65.5C55.5478 64.7315 54.55 64.2161 53.4687 64.02C52.3873 63.8239 51.2721 63.9563 50.2667 64.4C49.2808 64.8225 48.44 65.5242 47.8477 66.4185C47.2555 67.3128 46.9376 68.3607 46.9334 69.4333V70C46.9334 71.7681 46.231 73.4638 44.9807 74.714C43.7305 75.9643 42.0348 76.6667 40.2667 76.6667C38.4986 76.6667 36.8029 75.9643 35.5527 74.714C34.3024 73.4638 33.6 71.7681 33.6 70V69.7C33.5742 68.5967 33.2171 67.5267 32.5751 66.629C31.933 65.7314 31.0358 65.0476 30 64.6667C28.9947 64.223 27.8794 64.0906 26.7981 64.2867C25.7168 64.4827 24.719 64.9982 23.9334 65.7667L23.7334 65.9667C23.1142 66.5865 22.379 67.0782 21.5696 67.4137C20.7603 67.7492 19.8928 67.9219 19.0167 67.9219C18.1406 67.9219 17.2731 67.7492 16.4638 67.4137C15.6545 67.0782 14.9192 66.5865 14.3 65.9667C13.6802 65.3475 13.1885 64.6123 12.853 63.8029C12.5175 62.9936 12.3448 62.1261 12.3448 61.25C12.3448 60.3739 12.5175 59.5064 12.853 58.6971C13.1885 57.8877 13.6802 57.1525 14.3 56.5333L14.5 56.3333C15.2685 55.5477 15.784 54.55 15.9801 53.4686C16.1761 52.3873 16.0438 51.2721 15.6 50.2667C15.1775 49.2808 14.4759 48.4399 13.5816 47.8477C12.6873 47.2554 11.6393 46.9376 10.5667 46.9333H10C8.23193 46.9333 6.53624 46.231 5.286 44.9807C4.03575 43.7305 3.33337 42.0348 3.33337 40.2667C3.33337 38.4986 4.03575 36.8029 5.286 35.5526C6.53624 34.3024 8.23193 33.6 10 33.6H10.3C11.4034 33.5742 12.4734 33.2171 13.371 32.575C14.2687 31.933 14.9524 31.0358 15.3334 30C15.7771 28.9946 15.9095 27.8794 15.7134 26.798C15.5173 25.7167 15.0018 24.7189 14.2334 23.9333L14.0334 23.7333C13.4135 23.1142 12.9218 22.3789 12.5863 21.5696C12.2508 20.7603 12.0781 19.8928 12.0781 19.0167C12.0781 18.1406 12.2508 17.2731 12.5863 16.4637C12.9218 15.6544 13.4135 14.9192 14.0334 14.3C14.6525 13.6802 15.3878 13.1884 16.1971 12.8529C17.0064 12.5174 17.8739 12.3448 18.75 12.3448C19.6261 12.3448 20.4937 12.5174 21.303 12.8529C22.1123 13.1884 22.8476 13.6802 23.4667 14.3L23.6667 14.5C24.4523 15.2685 25.4501 15.784 26.5314 15.98C27.6127 16.1761 28.728 16.0437 29.7334 15.6H30C30.9859 15.1775 31.8268 14.4759 32.419 13.5816C33.0113 12.6873 33.3291 11.6393 33.3334 10.5667V10C33.3334 8.2319 34.0358 6.53621 35.286 5.28596C36.5362 4.03572 38.2319 3.33334 40 3.33334C41.7681 3.33334 43.4638 4.03572 44.7141 5.28596C45.9643 6.53621 46.6667 8.2319 46.6667 10V10.3C46.671 11.3726 46.9888 12.4206 47.5811 13.3149C48.1733 14.2092 49.0141 14.9108 50 15.3333C51.0054 15.7771 52.1207 15.9094 53.202 15.7134C54.2833 15.5173 55.2811 15.0018 56.0667 14.2333L56.2667 14.0333C56.8859 13.4135 57.6211 12.9218 58.4304 12.5863C59.2398 12.2508 60.1073 12.0781 60.9834 12.0781C61.8595 12.0781 62.727 12.2508 63.5363 12.5863C64.3456 12.9218 65.0809 13.4135 65.7 14.0333C66.3199 14.6525 66.8116 15.3878 67.1471 16.1971C67.4826 17.0064 67.6553 17.8739 67.6553 18.75C67.6553 19.6261 67.4826 20.4936 67.1471 21.3029C66.8116 22.1123 66.3199 22.8475 65.7 23.4667L65.5 23.6667C64.7316 24.4523 64.2161 25.4501 64.02 26.5314C63.824 27.6127 63.9563 28.728 64.4 29.7333V30C64.8226 30.9859 65.5242 31.8267 66.4185 32.419C67.3128 33.0112 68.3607 33.3291 69.4334 33.3333H70C71.7681 33.3333 73.4638 34.0357 74.7141 35.286C75.9643 36.5362 76.6667 38.2319 76.6667 40C76.6667 41.7681 75.9643 43.4638 74.7141 44.7141C73.4638 45.9643 71.7681 46.6667 70 46.6667H69.7C68.6274 46.671 67.5795 46.9888 66.6852 47.581C65.7909 48.1733 65.0892 49.0141 64.6667 50V50Z" stroke="#EDB021" stroke-width="2" stroke-linecap="round" stroke-linejoin="round"/>
</svg>
