<svg width="98" height="98" viewBox="0 0 98 98" fill="none" xmlns="http://www.w3.org/2000/svg">
<g clip-path="url(#clip0_219_2022)">
<path d="M62.6007 32.9665C61.8494 33.4103 61.3022 34.1309 61.0764 34.9737C60.8505 35.8165 60.9642 36.7142 61.3928 37.4742L65.1641 44.0061C65.6079 44.7574 66.3285 45.3046 67.1713 45.5304C68.0141 45.7563 68.9118 45.6426 69.6717 45.214L85.0627 36.328C85.723 40.3396 85.1451 44.4571 83.406 48.1319C81.6669 51.8067 78.8491 54.8642 75.3283 56.897C71.8074 58.9298 67.7506 59.8413 63.6986 59.51C59.6466 59.1787 55.7917 57.6204 52.6478 55.0428L24.4378 71.3298C22.8137 72.2675 20.8836 72.5216 19.0722 72.0362C17.2607 71.5508 15.7162 70.3657 14.7786 68.7416C13.8409 67.1175 13.5868 65.1874 14.0722 63.3759C14.5575 61.5645 15.7426 60.02 17.3667 59.0823L45.5767 42.7953C44.9164 38.7837 45.4942 34.6662 47.2334 30.9914C48.9725 27.3166 51.7902 24.2591 55.3111 22.2263C58.832 20.1935 62.8888 19.282 66.9408 19.6133C70.9928 19.9446 74.8477 21.5029 77.9916 24.0805L62.6415 32.9429L62.6007 32.9665Z" stroke="white" stroke-width="2" stroke-linecap="round" stroke-linejoin="round"/>
</g>
<defs>
<clipPath id="clip0_219_2022">
<rect width="80" height="80" fill="white" transform="translate(20.7056) rotate(15)"/>
</clipPath>
</defs>
</svg>
