<svg width="80" height="80" viewBox="0 0 80 80" fill="none" xmlns="http://www.w3.org/2000/svg">
<path d="M53.3334 10H3.33337V53.3333H53.3334V10Z" stroke="#EDB021" stroke-width="2" stroke-linecap="round" stroke-linejoin="round"/>
<path d="M53.3334 26.6667H66.6667L76.6667 36.6667V53.3333H53.3334V26.6667Z" stroke="#EDB021" stroke-width="2" stroke-linecap="round" stroke-linejoin="round"/>
<path d="M18.3333 70C22.9357 70 26.6667 66.269 26.6667 61.6667C26.6667 57.0643 22.9357 53.3333 18.3333 53.3333C13.731 53.3333 10 57.0643 10 61.6667C10 66.269 13.731 70 18.3333 70Z" stroke="#EDB021" stroke-width="2" stroke-linecap="round" stroke-linejoin="round"/>
<path d="M61.6667 70C66.2691 70 70.0001 66.269 70.0001 61.6667C70.0001 57.0643 66.2691 53.3333 61.6667 53.3333C57.0643 53.3333 53.3334 57.0643 53.3334 61.6667C53.3334 66.269 57.0643 70 61.6667 70Z" stroke="#EDB021" stroke-width="2" stroke-linecap="round" stroke-linejoin="round"/>
</svg>
