<svg width="46" height="46" viewBox="0 0 46 46" fill="none" xmlns="http://www.w3.org/2000/svg">
<path d="M43.9107 34.5422C43.7919 34.1843 43.036 33.657 41.6437 32.9616C41.2665 32.7424 40.729 32.4445 40.0336 32.0666C39.3375 31.6887 38.7057 31.3405 38.1393 31.0223C37.5717 30.7041 37.04 30.3959 36.5432 30.0981C36.4637 30.0384 36.2152 29.8647 35.7976 29.5757C35.3795 29.2875 35.027 29.0737 34.7381 28.9342C34.4498 28.7955 34.1662 28.7258 33.8878 28.7258C33.4901 28.7258 32.9934 29.0093 32.397 29.5757C31.8006 30.1428 31.2535 30.7588 30.7566 31.4256C30.2596 32.092 29.7324 32.708 29.1762 33.2748C28.6191 33.8418 28.1613 34.1251 27.8038 34.1251C27.6243 34.1251 27.4005 34.075 27.1322 33.9763C26.8641 33.8769 26.6602 33.7918 26.5202 33.7231C26.3814 33.653 26.1433 33.5143 25.805 33.3048C25.466 33.096 25.2775 32.9816 25.2378 32.9616C22.5134 31.4499 20.1768 29.7198 18.2277 27.7716C16.2791 25.8222 14.5487 23.486 13.0373 20.7614C13.0175 20.7216 12.9028 20.5326 12.6942 20.1947C12.4852 19.8565 12.3459 19.6182 12.2763 19.4786C12.2068 19.3396 12.1222 19.1356 12.023 18.8672C11.9237 18.5988 11.8739 18.3752 11.8739 18.1961C11.8739 17.8383 12.1573 17.3807 12.7242 16.8238C13.2909 16.2673 13.9076 15.7401 14.5735 15.2433C15.24 14.7465 15.8561 14.1995 16.423 13.6031C16.9897 13.0064 17.2731 12.5095 17.2731 12.1119C17.2731 11.8337 17.2035 11.55 17.0644 11.2618C16.9253 10.9729 16.7115 10.6204 16.423 10.2026C16.1344 9.78496 15.9605 9.53662 15.9007 9.45669C15.6027 8.9599 15.2948 8.428 14.9762 7.86121C14.6577 7.29452 14.3099 6.66285 13.9319 5.96692C13.5542 5.27131 13.2561 4.73419 13.0371 4.35639C12.3414 2.96464 11.8145 2.20864 11.4565 2.08975C11.3172 2.03009 11.1082 2 10.8301 2C10.2928 2 9.59194 2.09925 8.72691 2.29839C7.86157 2.49721 7.18065 2.70575 6.68341 2.92484C5.68903 3.34223 4.6351 4.55522 3.52129 6.56338C2.50706 8.43229 2 10.2821 2 12.1114C2 12.6479 2.03479 13.1698 2.10438 13.6774C2.17397 14.1844 2.2983 14.7562 2.47749 15.3927C2.65637 16.029 2.80066 16.5016 2.90975 16.8094C3.01893 17.1174 3.22278 17.6692 3.52119 18.4649C3.81918 19.2604 3.99837 19.7473 4.05803 19.9263C4.754 21.8752 5.57932 23.6151 6.53379 25.1464C8.10418 27.6917 10.2473 30.3222 12.9618 33.0367C15.6764 35.7511 18.3065 37.8939 20.8521 39.4648C22.3833 40.4191 24.1239 41.2443 26.0727 41.9407C26.2518 42.0001 26.7388 42.1788 27.534 42.4779C28.3295 42.776 28.8815 42.9799 29.1895 43.0893C29.4977 43.1988 29.9705 43.3431 30.6062 43.5223C31.2434 43.7015 31.8147 43.8258 32.3218 43.8959C32.8292 43.9646 33.3513 44 33.8879 44C35.7172 44 37.5672 43.4927 39.4365 42.4786C41.4446 41.3653 42.6574 40.3112 43.075 39.3162C43.2946 38.8195 43.5026 38.1384 43.7015 37.2731C43.9009 36.4082 44 35.7075 44 35.1704C44.0006 34.8911 43.9706 34.6827 43.9107 34.5422Z" stroke="white" stroke-width="4"/>
</svg>
