<svg width="28" height="20" viewBox="0 0 28 20" fill="none" xmlns="http://www.w3.org/2000/svg">
<path fill-rule="evenodd" clip-rule="evenodd" d="M0 14.9077V9.94803H4.20924C7.78306 9.94803 8.41849 9.92702 8.41849 9.80916C8.41849 9.73282 8.36535 9.3307 8.30041 8.91555C8.00806 7.04567 6.79875 5.19105 5.14304 4.07329C3.84484 3.19689 2.56512 2.72708 0.984854 2.54688L0 2.43447V1.23161V0.0287476L0.628653 0.0300121C0.974358 0.0306931 1.7001 0.113062 2.24129 0.212934C4.4325 0.61729 6.23515 1.48212 7.82657 2.89241C9.35863 4.25018 10.2597 5.62128 10.8546 7.49981C11.0828 8.22042 11.0922 8.44691 11.1262 14.0568L11.1614 19.8673H5.58069H0V14.9077ZM16.837 14.9077V9.94803H21.0072H25.1774L25.1187 9.18609C25.0497 8.2918 24.5809 6.99403 24.0381 6.19523C22.6163 4.10285 20.2537 2.7654 17.5203 2.50575L16.837 2.44088V1.22042V-3.8147e-05L17.7936 0.0578232C19.1407 0.139318 20.3085 0.433882 21.7022 1.04392C24.6902 2.35151 26.7438 4.58627 27.6398 7.50526L27.9269 8.44069L27.9635 14.154L28 19.8673H22.4185H16.837V14.9077ZM8.41849 14.9563V12.4765H5.63055H2.84261V14.9563V17.4361H5.63055H8.41849V14.9563ZM25.1461 14.9563V12.4765H22.3582H19.5703V14.9563V17.4361H22.3582H25.1461V14.9563Z" fill="#F37825"/>
</svg>
