<svg width="12" height="14" viewBox="0 0 12 14" fill="none" xmlns="http://www.w3.org/2000/svg">
<path d="M5.37182 0.362844C5.50986 -0.12087 6.19538 -0.120869 6.33342 0.362844L7.24765 3.56629C7.3217 3.82577 7.58828 3.97968 7.85002 3.91407L11.0814 3.10408C11.5693 2.98178 11.9121 3.57545 11.5622 3.93686L9.24504 6.33032C9.05735 6.52419 9.05735 6.83201 9.24504 7.02588L11.5622 9.41934C11.9121 9.78075 11.5693 10.3744 11.0814 10.2521L7.85002 9.44213C7.58828 9.37652 7.3217 9.53044 7.24765 9.78991L6.33342 12.9934C6.19538 13.4771 5.50986 13.4771 5.37182 12.9934L4.4576 9.78991C4.38355 9.53044 4.11696 9.37652 3.85522 9.44213L0.62385 10.2521C0.135919 10.3744 -0.206838 9.78075 0.143047 9.41934L2.4602 7.02588C2.64789 6.83201 2.64789 6.52419 2.4602 6.33032L0.143047 3.93686C-0.206839 3.57545 0.13592 2.98178 0.623851 3.10408L3.85522 3.91407C4.11696 3.97968 4.38355 3.82577 4.4576 3.56629L5.37182 0.362844Z" fill="#F37825"/>
</svg>
