<svg width="34" height="33" viewBox="0 0 34 33" fill="none" xmlns="http://www.w3.org/2000/svg">
<path d="M16.7725 1.5C16.8689 1.5 16.9643 1.52049 17.0518 1.55957L17.1357 1.60449C17.2173 1.65563 17.2866 1.72338 17.3398 1.80273L17.3877 1.88574L17.3926 1.89355L21.668 10.5127L21.9014 10.9824L22.4199 11.0586L32.0156 12.4551L32.0186 12.4561C32.145 12.474 32.2635 12.5273 32.3613 12.6094C32.4568 12.6895 32.5281 12.7943 32.5684 12.9121C32.6021 13.0281 32.6055 13.1512 32.5762 13.2686C32.5463 13.3879 32.4832 13.4957 32.3965 13.583L25.4697 20.3105L25.0889 20.6797L25.1816 21.2021L26.8652 30.6807L26.8672 30.6924C26.8916 30.8205 26.8795 30.9531 26.8311 31.0742C26.7831 31.1942 26.7012 31.2973 26.5967 31.373C26.474 31.4572 26.3275 31.5 26.1787 31.4932L26.1533 31.4912L26.1289 31.4922C26.0468 31.4925 25.9653 31.4776 25.8887 31.4492L25.8145 31.417L17.2363 26.9258L16.7725 26.6826L16.3086 26.9258L7.72363 31.4209L7.72168 31.4219C7.63693 31.4664 7.54401 31.4918 7.44922 31.498H7.35352C7.25782 31.491 7.16501 31.464 7.08105 31.4189L7.00098 31.3682C6.89775 31.2927 6.81718 31.19 6.76953 31.0713C6.73382 30.9823 6.71728 30.8871 6.7207 30.792L6.73145 30.6973L8.41406 21.2197L8.50781 20.6973L8.12695 20.3271L1.19824 13.6016C1.13325 13.5362 1.08283 13.4581 1.04883 13.373L1.02051 13.2852C0.990994 13.1671 0.99403 13.0434 1.02832 12.9268C1.06867 12.8098 1.1395 12.7056 1.23438 12.626C1.3077 12.5644 1.39306 12.5195 1.48438 12.4932L1.57812 12.4727H1.58105L11.1768 11.0752L11.6992 10.999L11.9307 10.5254L16.1562 1.88867L16.1582 1.88574C16.2002 1.79904 16.2599 1.72274 16.333 1.66113L16.4102 1.60449C16.5188 1.53642 16.6443 1.50008 16.7725 1.5Z" stroke="#FFAE5D" stroke-width="2"/>
</svg>
