<svg width="23" height="50" viewBox="0 0 23 50" fill="none" xmlns="http://www.w3.org/2000/svg">
<path fill-rule="evenodd" clip-rule="evenodd" d="M0.734498 48.7159C1.54612 49.6799 2.85875 49.6799 3.66837 48.7159L20.8287 28.2884C21.2128 27.8381 21.5187 27.2971 21.7277 26.6964C21.9367 26.0958 22.0444 25.4479 22.0444 24.7943C22.0444 24.1407 21.9367 23.494 21.7277 22.8934C21.5187 22.2927 21.2128 21.7517 20.8287 21.3014L3.54413 0.723021C3.15185 0.263133 2.63237 0.00465302 2.09118 6.20742e-05C1.54999 -0.00452887 1.02765 0.245692 0.630286 0.698882C0.433436 0.922681 0.275946 1.19354 0.167538 1.49546C0.0591297 1.79739 0.00212479 2.12358 5.82779e-05 2.45378C-0.00200824 2.78398 0.0509041 3.11055 0.15552 3.4145C0.260137 3.71846 0.414213 3.99322 0.608238 4.22074L16.4279 23.0491C16.6201 23.2742 16.7731 23.5452 16.8777 23.8456C16.9823 24.1461 17.0363 24.4685 17.0363 24.7955C17.0363 25.1225 16.9823 25.4461 16.8777 25.7466C16.7731 26.047 16.6201 26.318 16.4279 26.5431L0.734498 45.223C0.542334 45.4479 0.38932 45.7194 0.284746 46.0196C0.180172 46.3198 0.126226 46.6427 0.126226 46.9695C0.126226 47.2962 0.180172 47.6191 0.284746 47.9193C0.38932 48.2195 0.542334 48.491 0.734498 48.7159Z" fill="#6A655D"/>
</svg>
