<svg width="42" height="42" viewBox="0 0 42 42" fill="none" xmlns="http://www.w3.org/2000/svg">
<path d="M21.0002 0C11.7368 0 4.2002 7.53662 4.2002 16.8C4.2002 26.0634 11.7368 33.6 21.0002 33.6C30.2636 33.6 37.8002 26.0634 37.8002 16.8C37.8002 7.53662 30.2636 0 21.0002 0ZM21.0002 32.2C12.5086 32.2 5.6002 25.2916 5.6002 16.8C5.6002 8.3084 12.5086 1.4 21.0002 1.4C29.4918 1.4 36.4002 8.3084 36.4002 16.8C36.4002 25.2916 29.4918 32.2 21.0002 32.2Z" fill="white"/>
<path d="M21.6998 6.4386H20.2998V17.5H28.0887V16.1H21.6998V6.4386Z" fill="white"/>
</svg>
