<svg width="29" height="49" viewBox="0 0 29 49" fill="none" xmlns="http://www.w3.org/2000/svg">
<g clip-path="url(#clip0_164_289)">
<path d="M12.6875 7.65625L12.6875 41.3438C12.6875 42.1894 12.2818 42.875 11.7813 42.875C11.3364 42.875 10.9663 42.3333 10.8896 41.619L10.875 41.3438L10.875 7.65625C10.875 6.81056 11.2807 6.125 11.7813 6.125C12.2261 6.125 12.5962 6.66668 12.6729 7.38101L12.6875 7.65625L12.6875 41.3438L12.6875 7.65625ZM18.125 7.65625L18.125 41.3438C18.125 42.1894 17.7193 42.875 17.2188 42.875C16.7739 42.875 16.4038 42.3333 16.3271 41.619L16.3125 41.3438L16.3125 7.65625C16.3125 6.81057 16.7182 6.125 17.2188 6.125C17.6636 6.125 18.0337 6.66668 18.1104 7.38101L18.125 7.65625L18.125 41.3438L18.125 7.65625Z" fill="white"/>
</g>
<defs>
<clipPath id="clip0_164_289">
<rect width="49" height="29" fill="white" transform="translate(29 1.26763e-06) rotate(90)"/>
</clipPath>
</defs>
</svg>
