<svg width="33" height="34" viewBox="0 0 33 34" fill="none" xmlns="http://www.w3.org/2000/svg">
<g clip-path="url(#clip0_164_96)">
<path d="M25.9927 16.2352L29.8812 20.2416L28.909 21.2433L25.0204 17.2369L25.9927 16.2352Z" fill="white"/>
<path d="M13.3531 3.21265L17.2417 7.21905L16.2695 8.22077L12.3809 4.21437L13.3531 3.21265Z" fill="white"/>
<path d="M12.8672 33.4936C11.2414 33.4981 9.63079 33.1704 8.12866 32.5294C6.62653 31.8884 5.26269 30.9469 4.11606 29.7592C-0.709504 24.7881 -0.709504 16.699 4.11606 11.7279L15.2976 0.207562C15.3614 0.141726 15.4371 0.0894946 15.5205 0.0538579C15.6039 0.0182211 15.6933 -0.00012207 15.7836 -0.00012207C15.8739 -0.00012207 15.9633 0.0182211 16.0467 0.0538579C16.1301 0.0894946 16.2059 0.141726 16.2697 0.207562L20.1589 4.2146C20.2878 4.34744 20.3602 4.52757 20.3602 4.7154C20.3602 4.90322 20.2878 5.08336 20.1589 5.21619L9.262 16.4426C7.11768 18.6526 7.11768 22.2474 9.262 24.4566C9.77156 24.9845 10.3777 25.4029 11.0452 25.6878C11.7128 25.9727 12.4286 26.1183 13.1512 26.1163C13.8737 26.1182 14.5895 25.9725 15.257 25.6876C15.9246 25.4027 16.5307 24.9844 17.0404 24.4566L27.9366 13.2296C28.068 13.1017 28.2419 13.0305 28.4226 13.0305C28.6034 13.0305 28.7773 13.1017 28.9087 13.2296L32.7979 17.2366C32.862 17.3022 32.9129 17.3803 32.9477 17.4663C32.9824 17.5523 33.0004 17.6445 33.0004 17.7376C33.0005 17.8307 32.9827 17.923 32.948 18.009C32.9134 18.095 32.8626 18.1732 32.7986 18.2389L21.6171 29.7592C20.4707 30.9469 19.1071 31.8884 17.6052 32.5294C16.1033 33.1704 14.4929 33.4981 12.8672 33.4936ZM15.7836 1.70994L5.08818 12.7295C0.799559 17.1488 0.799559 24.3384 5.08818 28.7576C7.16581 30.8982 9.92887 32.0769 12.8666 32.0769C15.8042 32.0769 18.5673 30.8982 20.6442 28.7576L31.3397 17.7381L28.4226 14.7326L18.0132 25.4582C17.3762 26.118 16.6186 26.6411 15.7842 26.9972C14.9498 27.3533 14.0551 27.5354 13.1519 27.5329C12.2487 27.5354 11.354 27.3534 10.5195 26.9973C9.68508 26.6411 8.92748 26.118 8.29056 25.4582C5.61068 22.6971 5.61068 18.2028 8.29056 15.4403L18.7007 4.7154L15.7836 1.70994Z" fill="white"/>
</g>
<defs>
<clipPath id="clip0_164_96">
<rect width="33" height="34" fill="white"/>
</clipPath>
</defs>
</svg>
