<svg width="38" height="38" viewBox="0 0 38 38" fill="none" xmlns="http://www.w3.org/2000/svg">
<path d="M19.9834 32.264C19.4739 32.264 19.0435 32.0738 18.7375 31.7136C18.7096 31.6861 18.6309 31.6117 18.5411 31.5267C18.4442 31.435 18.3169 31.3145 18.1597 31.1647C17.7941 30.8227 17.2581 30.3721 16.5703 29.8289C15.8919 29.2932 15.0618 28.7048 14.103 28.0798C13.1628 27.4669 12.0985 26.8865 10.9395 26.3545C9.79522 25.8323 8.54122 25.3867 7.21338 25.0305C5.9141 24.6828 4.54677 24.5064 3.14975 24.5064C2.6654 24.5064 2.25104 24.332 1.91816 23.9882C1.59717 23.6473 1.43018 23.2339 1.43018 22.7869V15.3023C1.43018 14.8554 1.59717 14.4418 1.91312 14.1063C1.9149 14.1044 1.91675 14.1024 1.91861 14.1006C2.25185 13.757 2.66614 13.5827 3.14982 13.5827C4.54811 13.5827 5.91544 13.4063 7.2136 13.0586C8.52111 12.712 9.77466 12.2667 10.9406 11.7349C12.1025 11.2013 13.1656 10.6167 14.0996 9.99778C15.0604 9.36068 15.8931 8.77027 16.5744 8.2428C17.2611 7.7111 17.7932 7.26267 18.1557 6.91013C18.3993 6.67137 18.5717 6.5037 18.6696 6.40863C18.7135 6.36595 18.7414 6.33894 18.7529 6.32743C19.0797 5.98595 19.4883 5.8056 19.935 5.8056C20.1482 5.8056 20.3728 5.84657 20.6024 5.92732C20.6194 5.93333 20.636 5.94009 20.6522 5.94773C21.3161 6.25938 21.667 6.81283 21.667 7.54833V30.5406C21.667 30.8936 21.5769 31.2131 21.3993 31.4901C21.2113 31.7796 20.9506 31.9914 20.6227 32.1219C20.6191 32.1234 20.6154 32.1248 20.6117 32.1261C20.3559 32.2215 20.162 32.264 19.9834 32.264ZM2.68878 14.842C2.55949 14.9804 2.4993 15.1268 2.4993 15.3023V22.787C2.4993 22.9637 2.56038 23.1107 2.69145 23.25C2.81547 23.3781 2.95841 23.4375 3.1499 23.4375C4.64021 23.4375 6.10046 23.626 7.49014 23.9979C8.87536 24.3695 10.1855 24.8353 11.3845 25.3824C12.5921 25.9368 13.7028 26.5428 14.6868 27.1842C15.6726 27.8268 16.5292 28.4343 17.2329 28.9899C17.9541 29.5595 18.4973 30.0166 18.8937 30.3874C19.0533 30.5395 19.1797 30.6591 19.2759 30.7502C19.4894 30.9522 19.5139 30.9756 19.5453 31.0131C19.6165 31.0991 19.7285 31.195 19.9835 31.195C19.9901 31.195 20.0531 31.1931 20.2326 31.1266C20.3529 31.0778 20.4358 31.011 20.501 30.9106C20.5667 30.8081 20.5981 30.6897 20.5981 30.5406V7.54841C20.5981 7.24122 20.4887 7.05938 20.2221 6.92697C19.9227 6.82834 19.7201 6.86166 19.523 7.06903C19.5211 7.07103 19.5192 7.07311 19.5172 7.07504C19.5088 7.08358 19.4746 7.11705 19.4147 7.17524C19.3176 7.26964 19.1462 7.43634 18.9028 7.67495C18.5044 8.06237 17.9574 8.52401 17.2289 9.08808C16.527 9.63143 15.673 10.2372 14.6903 10.8888C13.7105 11.5381 12.5987 12.1497 11.3857 12.7069C10.1638 13.2642 8.85316 13.7299 7.48902 14.0915C6.10195 14.4631 4.64162 14.6516 3.14997 14.6516C2.95997 14.6516 2.81755 14.7104 2.68878 14.842ZM36.1052 25.103C35.9685 25.103 35.8317 25.0509 35.7273 24.9465L24.6551 13.8776C24.4463 13.6689 24.4463 13.3305 24.655 13.1216C24.8638 12.9129 25.2021 12.9129 25.4109 13.1216L36.4832 24.1906C36.6919 24.3993 36.6919 24.7376 36.4832 24.9465C36.3788 25.0508 36.242 25.103 36.1052 25.103Z" fill="white"/>
<path d="M25.0326 25.103C24.8957 25.103 24.7589 25.0508 24.6546 24.9465C24.4458 24.7377 24.4459 24.3993 24.6547 24.1906L35.7269 13.1216C35.9357 12.9128 36.2741 12.9129 36.4828 13.1216C36.6916 13.3304 36.6915 13.6689 36.4828 13.8776L25.4105 24.9466C25.3062 25.0509 25.1694 25.103 25.0326 25.103Z" fill="white"/>
</svg>
