<svg width="29" height="29" viewBox="0 0 29 29" fill="none" xmlns="http://www.w3.org/2000/svg">
<g clip-path="url(#clip0_180_1532)">
<path d="M0 29H29.1876L0 -0.187607V29ZM0.90625 24.9219H3.625V24.0156H0.90625V21.2969H2.71875V20.3906H0.90625V17.6719H3.625V16.7656H0.90625V14.0469H2.71875V13.1406H0.90625V10.4219H3.625V9.51561H0.90625V2.00008L26.9999 28.0937H0.90625V24.9219Z" fill="white"/>
<path d="M5.89062 12.4999V24.9219H18.3126L5.89062 12.4999ZM6.79688 14.6876L16.1249 24.0156H6.79688V14.6876Z" fill="white"/>
<path d="M29.17 21.0137L28.0499 16.5341L11.3282 -0.187607L7.96875 3.17186L24.6904 19.8935L29.17 21.0137ZM27.9239 19.7676L25.1535 19.0752L11.9689 5.89061L14.047 3.81258L27.2315 16.9972L27.9239 19.7676ZM11.3282 1.09383L13.4062 3.17186L11.3282 5.24989L9.25019 3.17186L11.3282 1.09383Z" fill="white"/>
</g>
<defs>
<clipPath id="clip0_180_1532">
<rect width="29" height="29" fill="white"/>
</clipPath>
</defs>
</svg>
