<svg width="34" height="34" viewBox="0 0 34 34" fill="none" xmlns="http://www.w3.org/2000/svg">
<mask id="path-1-inside-1_164_67" fill="white">
<path d="M27.5062 19.1929H9.44366C8.39637 19.191 7.36129 18.9679 6.40618 18.5383C5.45107 18.1086 4.59746 17.4821 3.90124 16.6997C3.20501 15.9174 2.68187 14.9968 2.36604 13.9983C2.05022 12.9997 1.94884 11.9457 2.06854 10.9053C2.18824 9.86489 2.52633 8.86147 3.06066 7.96074C3.595 7.06002 4.31354 6.28229 5.16924 5.67848C6.02495 5.07467 6.99853 4.65838 8.02625 4.45687C9.05398 4.25536 10.1127 4.27318 11.133 4.50914C11.7865 2.9836 12.9314 1.72043 14.3855 0.920645C15.8397 0.12086 17.5196 -0.169589 19.1579 0.095517C20.7961 0.360623 22.2987 1.16605 23.4264 2.38364C24.5541 3.60122 25.2422 5.161 25.3812 6.81476C26.2571 6.50172 27.1909 6.38416 28.1171 6.47034C29.0433 6.55651 29.9394 6.84432 30.7426 7.31358C31.5457 7.78284 32.2365 8.42217 32.7663 9.18672C33.2961 9.95127 33.6523 10.8225 33.8096 11.7393C33.967 12.6561 33.9219 13.5962 33.6774 14.4937C33.4329 15.3911 32.9949 16.2242 32.3942 16.9345C31.7936 17.6448 31.0448 18.215 30.2003 18.6051C29.3559 18.9952 28.4363 19.1959 27.5062 19.1929ZM3.82304 25.2598L5.94804 23.1348C6.14811 22.9347 6.26051 22.6633 6.26051 22.3804C6.26051 22.0974 6.14811 21.8261 5.94804 21.626C5.74796 21.4259 5.47661 21.3135 5.19366 21.3135C4.91071 21.3135 4.63936 21.4259 4.43929 21.626L2.31429 23.751C2.2147 23.8498 2.13566 23.9673 2.08171 24.0968C2.02777 24.2263 2 24.3651 2 24.5054C2 24.6457 2.02777 24.7845 2.08171 24.914C2.13566 25.0435 2.2147 25.161 2.31429 25.2598C2.41306 25.3594 2.53057 25.4384 2.66005 25.4923C2.78952 25.5463 2.9284 25.5741 3.06866 25.5741C3.20892 25.5741 3.3478 25.5463 3.47727 25.4923C3.60675 25.4384 3.72426 25.3594 3.82304 25.2598ZM3.82304 31.6348L12.323 23.1348C12.5231 22.9347 12.6355 22.6633 12.6355 22.3804C12.6355 22.0974 12.5231 21.8261 12.323 21.626C12.123 21.4259 11.8516 21.3135 11.5687 21.3135C11.2857 21.3135 11.0144 21.4259 10.8143 21.626L2.31429 30.126C2.2147 30.2248 2.13566 30.3423 2.08171 30.4718C2.02777 30.6013 2 30.7401 2 30.8804C2 31.0207 2.02777 31.1595 2.08171 31.289C2.13566 31.4185 2.2147 31.536 2.31429 31.6348C2.41306 31.7344 2.53057 31.8134 2.66005 31.8673C2.78952 31.9213 2.9284 31.9491 3.06866 31.9491C3.20892 31.9491 3.3478 31.9213 3.47727 31.8673C3.60675 31.8134 3.72426 31.7344 3.82304 31.6348ZM9.44366 31.9429C9.30383 31.9437 9.16521 31.9169 9.03576 31.864C8.90631 31.8111 8.78856 31.7332 8.68928 31.6348C8.5897 31.536 8.51065 31.4185 8.45671 31.289C8.40277 31.1595 8.375 31.0207 8.375 30.8804C8.375 30.7401 8.40277 30.6013 8.45671 30.4718C8.51065 30.3423 8.5897 30.2248 8.68928 30.126L11.1862 27.6929C11.3894 27.5188 11.6509 27.4279 11.9183 27.4382C12.1857 27.4485 12.4393 27.5594 12.6286 27.7486C12.8178 27.9378 12.9286 28.1915 12.939 28.4589C12.9493 28.7263 12.8584 28.9878 12.6843 29.191L10.198 31.6348C10.0988 31.7332 9.98101 31.8111 9.85156 31.864C9.72211 31.9169 9.58349 31.9437 9.44366 31.9429ZM14.9368 26.4498C14.797 26.4506 14.6583 26.4238 14.5289 26.3709C14.3994 26.318 14.2817 26.2401 14.1824 26.1416C14.0828 26.0429 14.0038 25.9254 13.9498 25.7959C13.8959 25.6664 13.8681 25.5275 13.8681 25.3873C13.8681 25.247 13.8959 25.1081 13.9498 24.9787C14.0038 24.8492 14.0828 24.7317 14.1824 24.6329L17.1893 21.626C17.3894 21.4259 17.6607 21.3135 17.9437 21.3135C18.0838 21.3135 18.2225 21.3411 18.3519 21.3948C18.4814 21.4484 18.599 21.5269 18.698 21.626C18.7971 21.7251 18.8757 21.8427 18.9293 21.9721C18.9829 22.1016 19.0105 22.2403 19.0105 22.3804C19.0105 22.5205 18.9829 22.6592 18.9293 22.7887C18.8757 22.9181 18.7971 23.0357 18.698 23.1348L15.6912 26.1416C15.5919 26.2401 15.4741 26.318 15.3447 26.3709C15.2152 26.4238 15.0766 26.4506 14.9368 26.4498ZM16.573 31.6348L25.073 23.1348C25.2731 22.9347 25.3855 22.6633 25.3855 22.3804C25.3855 22.0974 25.2731 21.8261 25.073 21.626C24.873 21.4259 24.6016 21.3135 24.3187 21.3135C24.0357 21.3135 23.7644 21.4259 23.5643 21.626L15.0643 30.126C14.9647 30.2248 14.8857 30.3423 14.8317 30.4718C14.7778 30.6013 14.75 30.7401 14.75 30.8804C14.75 31.0207 14.7778 31.1595 14.8317 31.289C14.8857 31.4185 14.9647 31.536 15.0643 31.6348C15.1631 31.7344 15.2806 31.8134 15.41 31.8673C15.5395 31.9213 15.6784 31.9491 15.8187 31.9491C15.9589 31.9491 16.0978 31.9213 16.2273 31.8673C16.3567 31.8134 16.4743 31.7344 16.573 31.6348ZM22.1937 31.9429C22.0538 31.9437 21.9152 31.9169 21.7858 31.864C21.6563 31.8111 21.5386 31.7332 21.4393 31.6348C21.3397 31.536 21.2607 31.4185 21.2067 31.289C21.1528 31.1595 21.125 31.0207 21.125 30.8804C21.125 30.7401 21.1528 30.6013 21.2067 30.4718C21.2607 30.3423 21.3397 30.2248 21.4393 30.126L23.9362 27.6929C24.1394 27.5188 24.4009 27.4279 24.6683 27.4382C24.9357 27.4485 25.1893 27.5594 25.3786 27.7486C25.5678 27.9378 25.6786 28.1915 25.689 28.4589C25.6993 28.7263 25.6083 28.9878 25.4343 29.191L22.948 31.6879C22.7391 31.8675 22.4687 31.9589 22.1937 31.9429ZM27.6868 26.4498C27.547 26.4506 27.4083 26.4238 27.2789 26.3709C27.1494 26.318 27.0317 26.2401 26.9324 26.1416C26.8328 26.0429 26.7538 25.9254 26.6998 25.7959C26.6459 25.6664 26.6181 25.5275 26.6181 25.3873C26.6181 25.247 26.6459 25.1081 26.6998 24.9787C26.7538 24.8492 26.8328 24.7317 26.9324 24.6329L29.9393 21.626C30.1394 21.4259 30.4107 21.3135 30.6937 21.3135C30.9766 21.3135 31.248 21.4259 31.448 21.626C31.6481 21.8261 31.7605 22.0974 31.7605 22.3804C31.7605 22.6633 31.6481 22.9347 31.448 23.1348L28.4412 26.1416C28.3419 26.2401 28.2241 26.318 28.0947 26.3709C27.9652 26.4238 27.8266 26.4506 27.6868 26.4498Z"/>
</mask>
<path d="M27.5062 19.1929H9.44366C8.39637 19.191 7.36129 18.9679 6.40618 18.5383C5.45107 18.1086 4.59746 17.4821 3.90124 16.6997C3.20501 15.9174 2.68187 14.9968 2.36604 13.9983C2.05022 12.9997 1.94884 11.9457 2.06854 10.9053C2.18824 9.86489 2.52633 8.86147 3.06066 7.96074C3.595 7.06002 4.31354 6.28229 5.16924 5.67848C6.02495 5.07467 6.99853 4.65838 8.02625 4.45687C9.05398 4.25536 10.1127 4.27318 11.133 4.50914C11.7865 2.9836 12.9314 1.72043 14.3855 0.920645C15.8397 0.12086 17.5196 -0.169589 19.1579 0.095517C20.7961 0.360623 22.2987 1.16605 23.4264 2.38364C24.5541 3.60122 25.2422 5.161 25.3812 6.81476C26.2571 6.50172 27.1909 6.38416 28.1171 6.47034C29.0433 6.55651 29.9394 6.84432 30.7426 7.31358C31.5457 7.78284 32.2365 8.42217 32.7663 9.18672C33.2961 9.95127 33.6523 10.8225 33.8096 11.7393C33.967 12.6561 33.9219 13.5962 33.6774 14.4937C33.4329 15.3911 32.9949 16.2242 32.3942 16.9345C31.7936 17.6448 31.0448 18.215 30.2003 18.6051C29.3559 18.9952 28.4363 19.1959 27.5062 19.1929ZM3.82304 25.2598L5.94804 23.1348C6.14811 22.9347 6.26051 22.6633 6.26051 22.3804C6.26051 22.0974 6.14811 21.8261 5.94804 21.626C5.74796 21.4259 5.47661 21.3135 5.19366 21.3135C4.91071 21.3135 4.63936 21.4259 4.43929 21.626L2.31429 23.751C2.2147 23.8498 2.13566 23.9673 2.08171 24.0968C2.02777 24.2263 2 24.3651 2 24.5054C2 24.6457 2.02777 24.7845 2.08171 24.914C2.13566 25.0435 2.2147 25.161 2.31429 25.2598C2.41306 25.3594 2.53057 25.4384 2.66005 25.4923C2.78952 25.5463 2.9284 25.5741 3.06866 25.5741C3.20892 25.5741 3.3478 25.5463 3.47727 25.4923C3.60675 25.4384 3.72426 25.3594 3.82304 25.2598ZM3.82304 31.6348L12.323 23.1348C12.5231 22.9347 12.6355 22.6633 12.6355 22.3804C12.6355 22.0974 12.5231 21.8261 12.323 21.626C12.123 21.4259 11.8516 21.3135 11.5687 21.3135C11.2857 21.3135 11.0144 21.4259 10.8143 21.626L2.31429 30.126C2.2147 30.2248 2.13566 30.3423 2.08171 30.4718C2.02777 30.6013 2 30.7401 2 30.8804C2 31.0207 2.02777 31.1595 2.08171 31.289C2.13566 31.4185 2.2147 31.536 2.31429 31.6348C2.41306 31.7344 2.53057 31.8134 2.66005 31.8673C2.78952 31.9213 2.9284 31.9491 3.06866 31.9491C3.20892 31.9491 3.3478 31.9213 3.47727 31.8673C3.60675 31.8134 3.72426 31.7344 3.82304 31.6348ZM9.44366 31.9429C9.30383 31.9437 9.16521 31.9169 9.03576 31.864C8.90631 31.8111 8.78856 31.7332 8.68928 31.6348C8.5897 31.536 8.51065 31.4185 8.45671 31.289C8.40277 31.1595 8.375 31.0207 8.375 30.8804C8.375 30.7401 8.40277 30.6013 8.45671 30.4718C8.51065 30.3423 8.5897 30.2248 8.68928 30.126L11.1862 27.6929C11.3894 27.5188 11.6509 27.4279 11.9183 27.4382C12.1857 27.4485 12.4393 27.5594 12.6286 27.7486C12.8178 27.9378 12.9286 28.1915 12.939 28.4589C12.9493 28.7263 12.8584 28.9878 12.6843 29.191L10.198 31.6348C10.0988 31.7332 9.98101 31.8111 9.85156 31.864C9.72211 31.9169 9.58349 31.9437 9.44366 31.9429ZM14.9368 26.4498C14.797 26.4506 14.6583 26.4238 14.5289 26.3709C14.3994 26.318 14.2817 26.2401 14.1824 26.1416C14.0828 26.0429 14.0038 25.9254 13.9498 25.7959C13.8959 25.6664 13.8681 25.5275 13.8681 25.3873C13.8681 25.247 13.8959 25.1081 13.9498 24.9787C14.0038 24.8492 14.0828 24.7317 14.1824 24.6329L17.1893 21.626C17.3894 21.4259 17.6607 21.3135 17.9437 21.3135C18.0838 21.3135 18.2225 21.3411 18.3519 21.3948C18.4814 21.4484 18.599 21.5269 18.698 21.626C18.7971 21.7251 18.8757 21.8427 18.9293 21.9721C18.9829 22.1016 19.0105 22.2403 19.0105 22.3804C19.0105 22.5205 18.9829 22.6592 18.9293 22.7887C18.8757 22.9181 18.7971 23.0357 18.698 23.1348L15.6912 26.1416C15.5919 26.2401 15.4741 26.318 15.3447 26.3709C15.2152 26.4238 15.0766 26.4506 14.9368 26.4498ZM16.573 31.6348L25.073 23.1348C25.2731 22.9347 25.3855 22.6633 25.3855 22.3804C25.3855 22.0974 25.2731 21.8261 25.073 21.626C24.873 21.4259 24.6016 21.3135 24.3187 21.3135C24.0357 21.3135 23.7644 21.4259 23.5643 21.626L15.0643 30.126C14.9647 30.2248 14.8857 30.3423 14.8317 30.4718C14.7778 30.6013 14.75 30.7401 14.75 30.8804C14.75 31.0207 14.7778 31.1595 14.8317 31.289C14.8857 31.4185 14.9647 31.536 15.0643 31.6348C15.1631 31.7344 15.2806 31.8134 15.41 31.8673C15.5395 31.9213 15.6784 31.9491 15.8187 31.9491C15.9589 31.9491 16.0978 31.9213 16.2273 31.8673C16.3567 31.8134 16.4743 31.7344 16.573 31.6348ZM22.1937 31.9429C22.0538 31.9437 21.9152 31.9169 21.7858 31.864C21.6563 31.8111 21.5386 31.7332 21.4393 31.6348C21.3397 31.536 21.2607 31.4185 21.2067 31.289C21.1528 31.1595 21.125 31.0207 21.125 30.8804C21.125 30.7401 21.1528 30.6013 21.2067 30.4718C21.2607 30.3423 21.3397 30.2248 21.4393 30.126L23.9362 27.6929C24.1394 27.5188 24.4009 27.4279 24.6683 27.4382C24.9357 27.4485 25.1893 27.5594 25.3786 27.7486C25.5678 27.9378 25.6786 28.1915 25.689 28.4589C25.6993 28.7263 25.6083 28.9878 25.4343 29.191L22.948 31.6879C22.7391 31.8675 22.4687 31.9589 22.1937 31.9429ZM27.6868 26.4498C27.547 26.4506 27.4083 26.4238 27.2789 26.3709C27.1494 26.318 27.0317 26.2401 26.9324 26.1416C26.8328 26.0429 26.7538 25.9254 26.6998 25.7959C26.6459 25.6664 26.6181 25.5275 26.6181 25.3873C26.6181 25.247 26.6459 25.1081 26.6998 24.9787C26.7538 24.8492 26.8328 24.7317 26.9324 24.6329L29.9393 21.626C30.1394 21.4259 30.4107 21.3135 30.6937 21.3135C30.9766 21.3135 31.248 21.4259 31.448 21.626C31.6481 21.8261 31.7605 22.0974 31.7605 22.3804C31.7605 22.6633 31.6481 22.9347 31.448 23.1348L28.4412 26.1416C28.3419 26.2401 28.2241 26.318 28.0947 26.3709C27.9652 26.4238 27.8266 26.4506 27.6868 26.4498Z" stroke="white" stroke-width="2" mask="url(#path-1-inside-1_164_67)"/>
</svg>
