<svg width="23" height="23" viewBox="0 0 23 23" fill="none" xmlns="http://www.w3.org/2000/svg">
<path d="M19.4062 7.0725C19.1187 3.59375 17.0416 1.54531 13.6562 1.4375H7.90625C7.525 1.4375 7.15937 1.58895 6.88978 1.85853C6.6202 2.12812 6.46875 2.49375 6.46875 2.875V10.7812H5.03125C4.65 10.7812 4.28437 10.9327 4.01478 11.2023C3.7452 11.4719 3.59375 11.8375 3.59375 12.2188C3.59375 12.6 3.7452 12.9656 4.01478 13.2352C4.28437 13.5048 4.65 13.6562 5.03125 13.6562H6.46875V15.0938H5.03125C4.65 15.0938 4.28437 15.2452 4.01478 15.5148C3.7452 15.7844 3.59375 16.15 3.59375 16.5312C3.59375 16.9125 3.7452 17.2781 4.01478 17.5477C4.28437 17.8173 4.65 17.9688 5.03125 17.9688H6.46875V20.125C6.46875 20.5062 6.6202 20.8719 6.88978 21.1415C7.15937 21.411 7.525 21.5625 7.90625 21.5625C8.2875 21.5625 8.65313 21.411 8.92272 21.1415C9.1923 20.8719 9.34375 20.5062 9.34375 20.125V13.6562H13.7066C17.0631 13.5484 19.2481 11.3706 19.4062 7.90625V7.1875C19.4062 7.15156 19.4062 7.10844 19.4062 7.0725ZM13.6562 10.7812H9.34375V4.3125H13.6059C15.4531 4.37 16.3516 5.28281 16.5312 7.25219V7.84156C16.445 9.76062 15.4891 10.7238 13.6562 10.7812Z" fill="#1C222A"/>
<path d="M15.0938 15.0938H11.5C11.1188 15.0938 10.7531 15.2452 10.4835 15.5148C10.214 15.7844 10.0625 16.15 10.0625 16.5312C10.0625 16.9125 10.214 17.2781 10.4835 17.5477C10.7531 17.8173 11.1188 17.9688 11.5 17.9688H15.0938C15.475 17.9688 15.8406 17.8173 16.1102 17.5477C16.3798 17.2781 16.5312 16.9125 16.5312 16.5312C16.5312 16.15 16.3798 15.7844 16.1102 15.5148C15.8406 15.2452 15.475 15.0938 15.0938 15.0938Z" fill="#1C222A"/>
</svg>
