<svg width="37" height="37" viewBox="0 0 37 37" fill="none" xmlns="http://www.w3.org/2000/svg">
<path d="M6.15145 2.31247C5.59301 2.3432 5.13659 2.76919 5.06747 3.32419C4.1677 10.4453 4.5504 16.2458 6.5986 21.35C8.64679 26.4543 12.3391 30.7887 17.8314 35.0488C18.2486 35.3727 18.8323 35.3727 19.2496 35.0488C24.7462 30.7852 28.38 26.4276 30.3966 21.3183C32.4131 16.2089 32.7912 10.4206 32.009 3.34226C31.9149 2.50598 30.9875 2.04709 30.2656 2.47959C25.9364 5.0911 21.967 5.01141 19.3128 2.61057C18.8727 2.21354 18.2037 2.21354 17.7636 2.61057C15.1094 5.01233 11.1445 5.09202 6.81539 2.47959C6.61602 2.35814 6.38456 2.29988 6.15145 2.31247ZM18.536 4.79661C21.5891 7.04343 25.6855 6.85178 29.7507 4.97727C30.2923 11.1237 29.9443 16.168 28.2467 20.4692C26.512 24.8641 23.3314 28.6773 18.536 32.5466C13.7329 28.6764 10.5026 24.8699 8.74398 20.4873C7.0201 16.1911 6.67792 11.1508 7.31222 4.97275C11.3804 6.85282 15.4797 7.04343 18.536 4.79661ZM23.6623 13.875C23.3616 13.8845 23.0765 14.0109 22.8674 14.2273L16.7655 20.3292L14.1323 17.696C14.0257 17.5851 13.8981 17.4965 13.7569 17.4354C13.6157 17.3744 13.4637 17.3422 13.3099 17.3406C13.1561 17.339 13.0035 17.3682 12.8611 17.4263C12.7186 17.4845 12.5893 17.5704 12.4805 17.6792C12.3717 17.788 12.2857 17.9174 12.2276 18.0598C12.1694 18.2022 12.1403 18.3548 12.1418 18.5087C12.1434 18.6625 12.1757 18.8145 12.2367 18.9557C12.2977 19.0969 12.3863 19.2245 12.4973 19.331L15.948 22.7862C16.0554 22.8942 16.1832 22.9799 16.3238 23.0384C16.4645 23.0969 16.6154 23.127 16.7677 23.127C16.9201 23.127 17.0709 23.0969 17.2116 23.0384C17.3523 22.9799 17.48 22.8942 17.5875 22.7862L24.5024 15.8578C24.6687 15.6952 24.7821 15.4863 24.8278 15.2583C24.8735 15.0304 24.8495 14.7939 24.7588 14.5798C24.6681 14.3657 24.5149 14.1839 24.3193 14.0582C24.1237 13.9324 23.8948 13.8686 23.6623 13.875Z" fill="white"/>
</svg>
