<svg width="41" height="37" viewBox="0 0 41 37" fill="none" xmlns="http://www.w3.org/2000/svg">
<path fill-rule="evenodd" clip-rule="evenodd" d="M20.49 3.45295C20.4059 3.45414 20.3228 3.47026 20.2456 3.50041C20.1684 3.53056 20.0985 3.57414 20.04 3.62866C19.9814 3.68319 19.9353 3.74759 19.9043 3.81818C19.8734 3.88878 19.8581 3.96419 19.8594 4.04011V6.42713L17.0391 4.7176C16.9336 4.65023 16.808 4.61323 16.6788 4.61146V4.61372C16.5401 4.61276 16.4048 4.65244 16.2933 4.72679C16.1817 4.80115 16.0999 4.90617 16.0601 5.02607C16.0203 5.14597 16.0248 5.27428 16.0727 5.39173C16.1206 5.50917 16.2095 5.60941 16.326 5.67738L19.8594 7.82051V11.0476L17.0391 9.33808C16.9336 9.27071 16.808 9.23371 16.6788 9.23194V9.2342C16.5401 9.23324 16.4048 9.27292 16.2933 9.34728C16.1817 9.42163 16.0999 9.52665 16.0601 9.64655C16.0203 9.76645 16.0248 9.89476 16.0727 10.0122C16.1206 10.1297 16.2095 10.2299 16.326 10.2979L19.8594 12.441V18.0642L14.4616 15.2503L14.1714 11.4202C14.1669 11.3429 14.1453 11.2671 14.1078 11.1974C14.0703 11.1277 14.0177 11.0655 13.953 11.0145C13.8884 10.9635 13.813 10.9248 13.7314 10.9006C13.6499 10.8764 13.5637 10.8673 13.4782 10.8737C13.3942 10.88 13.3124 10.9012 13.2374 10.936C13.1625 10.9709 13.0959 11.0187 13.0415 11.0768C12.9871 11.1349 12.946 11.2022 12.9204 11.2747C12.8949 11.3472 12.8854 11.4235 12.8926 11.4993L13.1253 14.5525L10.0273 12.9401L9.73702 9.11225C9.72818 8.96641 9.6585 8.82898 9.54198 8.7276C9.42546 8.62622 9.27074 8.56839 9.10891 8.56574C9.01955 8.56454 8.93089 8.58021 8.84864 8.61177C8.76639 8.64333 8.69236 8.69006 8.63132 8.74898C8.57028 8.80789 8.52358 8.87768 8.4942 8.95386C8.46483 9.03003 8.45345 9.11091 8.46078 9.19129L8.691 12.2423L6.39627 11.0476C6.28481 10.9872 6.15564 10.9589 6.0259 10.9663C5.88799 10.9745 5.75671 11.0228 5.65167 11.1038C5.54662 11.1849 5.47344 11.2944 5.44304 11.4161C5.41264 11.5378 5.42665 11.665 5.48299 11.7789C5.53933 11.8928 5.63497 11.9872 5.75564 12.048L8.05789 13.2472L4.9999 14.5999C4.84725 14.6673 4.73052 14.7866 4.67538 14.9317C4.62023 15.0768 4.6312 15.2356 4.70587 15.3734C4.78053 15.5111 4.91278 15.6165 5.07351 15.6663C5.23425 15.716 5.4103 15.7061 5.56295 15.6387L9.39669 13.945L12.4897 15.5574L9.43173 16.9079C9.35614 16.9414 9.28861 16.988 9.23299 17.0451C9.17737 17.1022 9.13475 17.1686 9.10757 17.2405C9.08038 17.3124 9.06916 17.3885 9.07454 17.4643C9.07992 17.5402 9.10181 17.6143 9.13894 17.6825C9.17608 17.7507 9.22773 17.8117 9.29097 17.8619C9.3542 17.912 9.42777 17.9505 9.50747 17.975C9.58718 17.9996 9.67146 18.0097 9.7555 18.0048C9.83954 18 9.9217 17.9802 9.99728 17.9467L13.826 16.253L19.2313 19.0691L13.831 21.8829L9.99728 20.187C9.90115 20.1435 9.79444 20.1225 9.68698 20.126V20.1282C9.54345 20.1324 9.40562 20.1799 9.29561 20.2632C9.18561 20.3465 9.1098 20.4608 9.08036 20.5876C9.05092 20.7144 9.06956 20.8465 9.13328 20.9627C9.19699 21.0788 9.3021 21.1723 9.43173 21.228L12.4922 22.5808L9.39419 24.1932L5.56295 22.4995C5.46683 22.456 5.36012 22.435 5.25265 22.4385V22.4407C5.10932 22.4454 4.97185 22.4932 4.86225 22.5767C4.75264 22.6602 4.67724 22.7744 4.64812 22.9012C4.61899 23.0279 4.63783 23.1598 4.70161 23.2757C4.76539 23.3916 4.87043 23.4849 4.9999 23.5405L8.05538 24.891L5.75564 26.0902C5.60913 26.1672 5.50239 26.2935 5.45878 26.4414C5.41517 26.5892 5.43824 26.7467 5.52294 26.8793C5.60764 27.0118 5.74707 27.1087 5.91074 27.1488C6.07441 27.1888 6.24898 27.1687 6.39627 27.0928L8.691 25.8982L8.46078 28.9492C8.44976 29.0274 8.45658 29.1068 8.48082 29.1826C8.50507 29.2583 8.54622 29.3288 8.60176 29.3896C8.6573 29.4505 8.72604 29.5005 8.80377 29.5365C8.88149 29.5725 8.96656 29.5938 9.05373 29.599C9.14091 29.6043 9.22835 29.5934 9.31068 29.567C9.39302 29.5406 9.4685 29.4993 9.5325 29.4456C9.5965 29.392 9.64766 29.327 9.68283 29.2549C9.718 29.1827 9.73644 29.1048 9.73702 29.026L10.0273 25.2004L13.1253 23.588L12.8926 26.6367C12.8856 26.7132 12.8955 26.7901 12.9217 26.8631C12.948 26.9361 12.9901 27.0037 13.0456 27.0618C13.1011 27.12 13.1688 27.1676 13.2449 27.2019C13.321 27.2362 13.4039 27.2565 13.4887 27.2616C13.5736 27.2667 13.6587 27.2565 13.7392 27.2316C13.8196 27.2067 13.8938 27.1676 13.9573 27.1166C14.0208 27.0656 14.0725 27.0036 14.1092 26.9344C14.146 26.8652 14.1671 26.7901 14.1714 26.7135L14.4591 22.8901L19.8594 20.0786V25.695L16.326 27.8381C16.2528 27.879 16.1894 27.9328 16.1398 27.9963C16.0901 28.0597 16.0552 28.1316 16.037 28.2075C16.0188 28.2835 16.0177 28.362 16.0339 28.4383C16.0501 28.5146 16.0831 28.5872 16.1311 28.6517C16.179 28.7162 16.2409 28.7714 16.313 28.8139C16.3851 28.8563 16.4659 28.8852 16.5507 28.8989C16.6355 28.9125 16.7224 28.9106 16.8063 28.8933C16.8902 28.8759 16.9694 28.8435 17.0391 28.7979L19.8594 27.0883V30.3132L16.326 32.4563C16.2528 32.4972 16.1894 32.551 16.1398 32.6145C16.0901 32.678 16.0552 32.7498 16.037 32.8258C16.0188 32.9017 16.0178 32.9802 16.0339 33.0565C16.0501 33.1328 16.0831 33.2054 16.1311 33.2699C16.179 33.3345 16.2409 33.3896 16.313 33.4321C16.3851 33.4745 16.466 33.5035 16.5507 33.5171C16.6355 33.5307 16.7224 33.5288 16.8063 33.5115C16.8902 33.4941 16.9694 33.4617 17.0391 33.4161L19.8594 31.7066V34.1026C19.8582 34.1792 19.8739 34.2553 19.9055 34.3264C19.9372 34.3975 19.9842 34.4622 20.0438 34.5167C20.1034 34.5713 20.1744 34.6146 20.2528 34.6442C20.3311 34.6737 20.4151 34.689 20.5 34.689C20.5849 34.689 20.669 34.6737 20.7473 34.6442C20.8256 34.6146 20.8966 34.5713 20.9563 34.5167C21.0159 34.4622 21.0629 34.3975 21.0945 34.3264C21.1262 34.2553 21.1419 34.1792 21.1406 34.1026V31.7066L23.9609 33.4161C24.0306 33.4617 24.1098 33.4941 24.1937 33.5115C24.2776 33.5288 24.3646 33.5307 24.4493 33.5171C24.5341 33.5035 24.6149 33.4745 24.687 33.4321C24.7591 33.3896 24.821 33.3345 24.869 33.2699C24.9169 33.2054 24.95 33.1328 24.9661 33.0565C24.9823 32.9802 24.9813 32.9017 24.9631 32.8258C24.9449 32.7498 24.9099 32.678 24.8603 32.6145C24.8106 32.551 24.7473 32.4972 24.6741 32.4563L21.1406 30.3132V27.0883L23.9609 28.7979C24.0306 28.8435 24.1098 28.8759 24.1937 28.8933C24.2776 28.9106 24.3646 28.9125 24.4493 28.8989C24.5341 28.8852 24.6149 28.8563 24.687 28.8139C24.7591 28.7714 24.821 28.7162 24.869 28.6517C24.9169 28.5872 24.95 28.5146 24.9661 28.4383C24.9823 28.362 24.9813 28.2835 24.9631 28.2075C24.9449 28.1316 24.9099 28.0597 24.8603 27.9963C24.8106 27.9328 24.7473 27.879 24.6741 27.8381L21.1406 25.695V20.065L26.5384 22.8766L26.8287 26.7157C26.8343 26.7916 26.8564 26.8658 26.8937 26.934C26.9311 27.0021 26.983 27.063 27.0465 27.113C27.1099 27.1631 27.1837 27.2014 27.2636 27.2256C27.3435 27.2499 27.4279 27.2597 27.512 27.2545C27.5961 27.2493 27.6782 27.2292 27.7536 27.1953C27.8291 27.1615 27.8964 27.1145 27.9517 27.0571C28.0071 26.9997 28.0493 26.933 28.076 26.8609C28.1027 26.7887 28.1134 26.7125 28.1074 26.6367L27.8747 23.5722L30.9702 25.1868L31.263 29.0282C31.2636 29.1071 31.282 29.185 31.3172 29.2571C31.3524 29.3293 31.4035 29.3942 31.4675 29.4479C31.5315 29.5016 31.607 29.5429 31.6894 29.5692C31.7717 29.5956 31.8591 29.6065 31.9463 29.6013C32.0335 29.596 32.1186 29.5748 32.1963 29.5387C32.274 29.5027 32.3428 29.4528 32.3983 29.3919C32.4538 29.331 32.495 29.2606 32.5192 29.1848C32.5435 29.1091 32.5503 29.0296 32.5393 28.9514L32.309 25.8824L34.6038 27.0793C34.6767 27.1209 34.7582 27.1488 34.8434 27.1612C34.9285 27.1737 35.0156 27.1706 35.0994 27.1519C35.1831 27.1333 35.2619 27.0996 35.3308 27.0529C35.3998 27.0061 35.4576 26.9472 35.5008 26.8798C35.544 26.8124 35.5716 26.7378 35.5821 26.6606C35.5925 26.5833 35.5855 26.5049 35.5616 26.4301C35.5377 26.3553 35.4972 26.2856 35.4427 26.2253C35.3882 26.1649 35.3208 26.1151 35.2444 26.0789L32.9572 24.8865L36.0001 23.5405C36.1309 23.4841 36.2367 23.3893 36.3 23.2716C36.3634 23.1539 36.3807 23.0203 36.349 22.8926C36.3173 22.765 36.2386 22.6507 36.1257 22.5687C36.0128 22.4866 35.8724 22.4415 35.7274 22.4407C35.6267 22.4402 35.5272 22.4611 35.4371 22.5017L31.6184 24.1909L28.5203 22.574L31.5683 21.228C31.6993 21.1715 31.8051 21.0765 31.8685 20.9586C31.9318 20.8407 31.9489 20.7069 31.9169 20.579C31.8849 20.4512 31.8057 20.337 31.6924 20.2551C31.5791 20.1732 31.4383 20.1285 31.2931 20.1282C31.1923 20.1277 31.0929 20.1486 31.0028 20.1892L27.184 21.8784L21.7938 19.0691L27.1891 16.2598L31.0028 17.9467C31.1554 18.0144 31.3316 18.0246 31.4926 17.975C31.6535 17.9255 31.7861 17.8203 31.8611 17.6825C31.9361 17.5448 31.9474 17.3858 31.8925 17.2405C31.8376 17.0952 31.721 16.9756 31.5683 16.9079L28.5254 15.562L31.6159 13.9518L35.4371 15.6387C35.5897 15.7061 35.7658 15.716 35.9265 15.6663C36.0873 15.6165 36.2195 15.5111 36.2942 15.3734C36.3688 15.2356 36.3798 15.0768 36.3247 14.9317C36.2695 14.7866 36.1528 14.6673 36.0001 14.5999L32.9572 13.254L35.2444 12.0616C35.3674 12.0002 35.4647 11.904 35.5212 11.7878C35.5776 11.6716 35.5902 11.5419 35.5569 11.4187C35.5236 11.2954 35.4463 11.1854 35.3369 11.1057C35.2276 11.026 35.0922 10.981 34.9516 10.9776V10.9799C34.8297 10.9758 34.709 11.0032 34.6038 11.0589L32.309 12.2558L32.5393 9.19129C32.5468 9.10935 32.5349 9.02689 32.5044 8.94942C32.4738 8.87195 32.4253 8.80126 32.3621 8.74205C32.2988 8.68285 32.2223 8.6365 32.1377 8.6061C32.053 8.57569 31.9621 8.56194 31.8711 8.56574C31.7128 8.57282 31.563 8.6326 31.4507 8.73354C31.3384 8.83448 31.2715 8.96941 31.263 9.11225L30.9702 12.9514L27.8747 14.5661L28.1074 11.4993C28.115 11.4173 28.1031 11.3349 28.0726 11.2574C28.042 11.1799 27.9935 11.1092 27.9303 11.05C27.867 10.9908 27.7905 10.9445 27.7059 10.9141C27.6212 10.8837 27.5303 10.8699 27.4393 10.8737C27.2805 10.8803 27.1301 10.9398 27.0173 11.0408C26.9045 11.1418 26.8372 11.277 26.8287 11.4202L26.5384 15.2616L21.1406 18.0732V12.441L24.6741 10.2979C24.7473 10.257 24.8106 10.2032 24.8603 10.1397C24.9099 10.0762 24.9449 10.0044 24.9631 9.92841C24.9813 9.85247 24.9823 9.774 24.9661 9.69768C24.95 9.62137 24.9169 9.54878 24.869 9.48424C24.821 9.41971 24.7591 9.36457 24.687 9.3221C24.6149 9.27963 24.5341 9.25071 24.4493 9.23706C24.3646 9.22342 24.2776 9.22534 24.1937 9.24269C24.1098 9.26005 24.0306 9.29249 23.9609 9.33808L21.1406 11.0476V7.82051L24.6741 5.67738C24.7473 5.63648 24.8106 5.58268 24.8603 5.51921C24.9099 5.45573 24.9449 5.38387 24.9631 5.30793C24.9813 5.23199 24.9823 5.15351 24.9661 5.0772C24.95 5.00088 24.9169 4.92829 24.869 4.86376C24.821 4.79923 24.7591 4.74408 24.687 4.70161C24.6149 4.65914 24.5341 4.63022 24.4493 4.61658C24.3646 4.60294 24.2776 4.60485 24.1937 4.62221C24.1098 4.63957 24.0306 4.67201 23.9609 4.7176L21.1406 6.42713V4.04011C21.142 3.96267 21.1261 3.88577 21.0939 3.81399C21.0616 3.7422 21.0138 3.67699 20.9531 3.62223C20.8924 3.56746 20.8201 3.52426 20.7406 3.49518C20.661 3.4661 20.5758 3.45174 20.49 3.45295Z" fill="white"/>
</svg>
