<svg width="33" height="33" viewBox="0 0 33 33" fill="none" xmlns="http://www.w3.org/2000/svg">
<path d="M26.7248 28.875H6.27515C4.90762 28.875 3.59611 28.3318 2.62913 27.3648C1.66214 26.3978 1.1189 25.0863 1.1189 23.7188V9.28125C1.11826 7.96899 1.61798 6.70586 2.51624 5.74922C2.70359 5.54956 2.96258 5.4325 3.23624 5.4238C3.5099 5.4151 3.7758 5.51546 3.97546 5.70281C4.17512 5.89016 4.29217 6.14915 4.30088 6.42281C4.30958 6.69647 4.20922 6.96237 4.02187 7.16203C3.48216 7.7357 3.18157 8.49361 3.1814 9.28125V23.7188C3.1814 24.5393 3.50734 25.3262 4.08754 25.9064C4.66773 26.4866 5.45463 26.8125 6.27515 26.8125H26.7248C27.5453 26.8125 28.3323 26.4866 28.9124 25.9064C29.4926 25.3262 29.8186 24.5393 29.8186 23.7188V9.28125C29.8186 8.46074 29.4926 7.67383 28.9124 7.09364C28.3323 6.51345 27.5453 6.1875 26.7248 6.1875H7.61062C7.33711 6.1875 7.07481 6.07885 6.88141 5.88545C6.68801 5.69206 6.57937 5.42975 6.57937 5.15625C6.57937 4.88275 6.68801 4.62044 6.88141 4.42705C7.07481 4.23365 7.33711 4.125 7.61062 4.125H26.7248C28.0924 4.125 29.4039 4.66825 30.3709 5.63523C31.3378 6.60222 31.8811 7.91373 31.8811 9.28125V23.7188C31.8811 25.0863 31.3378 26.3978 30.3709 27.3648C29.4039 28.3318 28.0924 28.875 26.7248 28.875Z" fill="white"/>
<path d="M12.8287 22.5844C12.4185 22.5844 12.025 22.4214 11.7349 22.1313C11.4448 21.8412 11.2819 21.4478 11.2819 21.0375V11.9625C11.2821 11.6951 11.3517 11.4323 11.4837 11.1998C11.6158 10.9673 11.8059 10.773 12.0355 10.6358C12.2651 10.4987 12.5263 10.4235 12.7937 10.4174C13.061 10.4113 13.3254 10.4747 13.5609 10.6013L22.0223 15.1388C22.1415 15.2031 22.2468 15.2902 22.3323 15.3953C22.4178 15.5003 22.4818 15.6212 22.5206 15.7509C22.5593 15.8807 22.5722 16.0168 22.5584 16.1515C22.5445 16.2862 22.5043 16.4169 22.44 16.5361C22.3757 16.6553 22.2885 16.7606 22.1835 16.8461C22.0784 16.9316 21.9576 16.9955 21.8278 17.0343C21.6981 17.0731 21.5619 17.086 21.4272 17.0721C21.2925 17.0583 21.1618 17.0181 21.0426 16.9538L13.3444 12.8288V20.1764L17.985 17.6859C18.1047 17.614 18.2377 17.5671 18.376 17.5481C18.5144 17.5292 18.6551 17.5385 18.7897 17.5755C18.9244 17.6125 19.0501 17.6765 19.1592 17.7636C19.2684 17.8506 19.3587 17.959 19.4248 18.082C19.4909 18.205 19.5312 18.3402 19.5435 18.4792C19.5558 18.6183 19.5397 18.7585 19.4961 18.8911C19.4526 19.0238 19.3826 19.1463 19.2904 19.2511C19.1982 19.3559 19.0856 19.4409 18.9595 19.5009L13.5609 22.3988C13.3359 22.5202 13.0844 22.584 12.8287 22.5844Z" fill="white"/>
</svg>
