<svg width="22" height="19" viewBox="0 0 22 19" fill="none" xmlns="http://www.w3.org/2000/svg">
<g clip-path="url(#clip0_0_226)">
<path d="M11 19C10.6562 19 10.3125 18.869 10.0375 18.6724C7.7 16.7069 0 9.95862 0 5.83103C0 2.62069 2.68125 0 5.9125 0C8.04375 0 9.96875 1.11379 11 2.81724C12.0312 1.11379 13.9563 0 16.0875 0C19.3188 0 22 2.62069 22 5.83103C22 9.95862 14.3 16.7069 11.9625 18.6724C11.6875 18.869 11.3438 19 11 19ZM5.9125 1.31034C3.4375 1.31034 1.375 3.34138 1.375 5.83103C1.375 8.71379 6.53125 14.0207 10.9312 17.6897H11C15.4688 14.0207 20.625 8.71379 20.625 5.83103C20.625 3.34138 18.5625 1.31034 16.0875 1.31034C14.2312 1.31034 12.5812 2.42414 11.8937 4.12759C11.7562 4.32414 11.55 4.58621 11 4.58621C10.5188 4.58621 10.2437 4.45517 10.1062 4.12759C9.41875 2.42414 7.76875 1.31034 5.9125 1.31034Z" fill="#2B7BC6"/>
</g>
<defs>
<clipPath id="clip0_0_226">
<rect width="22" height="19" fill="white"/>
</clipPath>
</defs>
</svg>
